{"glyphs":{"0":{"ha":728,"x_min":46,"x_max":740,"o":"m 46 282 q 162 810 46 608 q 490 1011 279 1011 q 740 726 740 1011 q 627 183 740 380 q 300 -14 513 -14 q 112 64 178 -14 q 46 282 46 142 m 182 307 q 311 102 182 102 q 527 278 451 102 q 604 713 604 455 q 467 896 604 896 q 260 708 338 896 q 182 307 182 521 z "},"1":{"ha":728,"x_min":233,"x_max":612,"o":"m 301 0 l 433 747 l 233 644 l 252 774 q 572 998 488 884 l 612 998 l 437 0 l 301 0 z "},"2":{"ha":728,"x_min":43,"x_max":676,"o":"m 43 0 l 43 61 l 370 480 q 500 665 467 605 q 534 783 534 726 q 490 864 534 835 q 382 894 447 894 q 228 804 289 894 l 133 866 q 399 1011 197 1011 q 603 952 530 1011 q 676 791 676 892 q 638 650 676 724 q 493 437 601 576 l 250 122 l 619 122 l 597 0 l 43 0 z "},"3":{"ha":728,"x_min":32,"x_max":684,"o":"m 32 73 l 94 185 q 169 126 119 151 q 267 102 218 102 q 429 163 367 102 q 491 324 491 224 q 309 475 491 475 l 328 585 q 538 768 538 585 q 501 862 538 829 q 399 896 465 896 q 266 849 321 896 l 205 929 q 430 1011 282 1011 q 613 951 542 1011 q 684 786 684 890 q 628 631 684 702 q 486 532 572 560 q 633 329 633 481 q 539 71 633 155 q 244 -14 445 -14 q 32 73 109 -14 z "},"4":{"ha":728,"x_min":17,"x_max":726,"o":"m 598 271 l 551 0 l 415 0 l 463 271 l 17 271 l 31 348 l 679 998 l 726 998 l 616 375 l 717 375 l 699 271 l 598 271 m 542 722 l 196 375 l 481 375 l 542 722 z "},"5":{"ha":728,"x_min":54,"x_max":720,"o":"m 211 513 l 141 513 l 226 998 l 720 998 l 700 882 l 334 882 l 292 641 q 425 678 347 678 q 595 612 529 678 q 662 442 662 545 q 255 -14 662 -14 q 54 57 125 -14 l 110 177 q 275 102 189 102 q 453 182 390 102 q 515 396 515 262 q 471 516 515 470 q 358 563 427 563 q 211 513 266 563 z "},"6":{"ha":728,"x_min":77,"x_max":694,"o":"m 595 1011 l 649 939 q 444 775 578 911 q 286 568 311 639 q 452 622 351 622 q 629 559 564 622 q 694 384 694 496 q 593 103 694 222 q 342 -17 492 -17 q 77 266 77 -17 q 135 551 77 418 q 324 830 192 684 q 595 1011 456 976 m 210 246 q 353 98 210 98 q 496 175 440 98 q 551 356 551 252 q 517 466 551 425 q 422 507 483 507 q 266 435 322 507 q 210 246 210 363 z "},"7":{"ha":728,"x_min":68,"x_max":796,"o":"m 232 0 l 68 0 q 600 869 192 256 l 125 869 l 147 998 l 796 998 l 796 945 q 232 0 445 450 z "},"8":{"ha":728,"x_min":57,"x_max":730,"o":"m 292 553 q 214 637 244 581 q 184 751 184 693 q 267 940 184 868 q 484 1011 349 1011 q 658 955 587 1011 q 730 809 730 899 q 675 645 730 723 q 542 539 621 566 q 642 443 604 504 q 679 311 679 382 q 595 65 679 144 q 328 -14 511 -14 q 133 52 210 -14 q 57 223 57 118 q 118 422 57 337 q 292 553 179 507 m 444 606 q 544 676 498 621 q 589 788 589 732 q 552 865 589 834 q 464 896 514 896 q 360 853 398 896 q 321 752 321 811 q 357 668 321 708 q 444 606 393 627 m 403 492 q 262 401 329 475 q 196 247 196 328 q 239 142 196 182 q 341 102 281 102 q 542 300 542 102 q 503 409 542 357 q 403 492 464 460 z "},"9":{"ha":728,"x_min":119,"x_max":736,"o":"m 217 -17 l 164 56 q 369 219 235 83 q 527 426 503 355 q 361 372 463 372 q 189 444 258 372 q 119 624 119 515 q 214 905 119 798 q 471 1011 309 1011 q 665 933 593 1011 q 736 728 736 856 q 556 243 736 466 q 217 -17 376 20 m 603 748 q 566 855 603 814 q 460 896 528 896 q 315 824 368 896 q 262 638 262 752 q 296 529 262 570 q 390 488 330 488 q 547 559 490 488 q 603 748 603 631 z "}," ":{"ha":418,"x_min":0,"x_max":0,"o":""},"!":{"ha":510,"x_min":90,"x_max":423,"o":"m 238 259 l 190 259 q 202 591 194 506 q 220 733 210 677 l 270 1011 l 423 1011 l 375 734 q 238 259 353 604 m 186 178 q 254 150 226 178 q 282 82 282 122 q 254 14 282 42 q 186 -14 226 -14 q 118 14 146 -14 q 90 82 90 42 q 118 150 90 122 q 186 178 146 178 z "},"\"":{"ha":451,"x_min":131,"x_max":509,"o":"m 221 736 l 131 736 l 160 995 l 285 995 l 221 736 m 445 736 l 355 736 l 384 995 l 509 995 l 445 736 z "},"#":{"ha":728,"x_min":64,"x_max":776,"o":"m 635 642 l 568 376 l 677 376 l 677 289 l 546 289 l 462 -14 l 376 -14 l 460 289 l 258 289 l 174 -14 l 86 -14 l 170 289 l 64 289 l 64 376 l 192 376 l 259 642 l 142 642 l 142 729 l 281 729 l 351 1008 l 439 1008 l 370 729 l 571 729 l 641 1008 l 727 1008 l 657 729 l 776 729 l 776 642 l 635 642 m 348 642 l 281 376 l 482 376 l 549 642 l 348 642 z "},"$":{"ha":668,"x_min":79,"x_max":671,"o":"m 351 -15 l 332 -123 l 226 -123 l 245 -13 q 79 32 141 1 l 119 162 q 207 123 149 139 q 318 106 264 106 q 448 146 399 106 q 496 254 496 185 q 459 356 496 312 q 333 465 422 400 q 203 585 243 530 q 163 724 163 640 q 229 916 163 841 q 410 1006 296 990 l 434 1143 l 540 1143 l 516 1009 q 671 984 637 1002 l 632 852 q 568 882 613 868 q 485 895 524 895 q 348 856 398 895 q 298 743 298 817 q 314 682 298 711 q 357 630 330 653 q 468 543 384 606 q 592 415 553 480 q 632 262 632 349 q 558 70 632 141 q 351 -15 484 -2 z "},"%":{"ha":833,"x_min":11,"x_max":876,"o":"m 97 -14 l 11 -14 l 790 1011 l 876 1011 l 97 -14 m 83 710 q 140 920 83 829 q 325 1011 197 1011 q 473 845 473 1011 q 410 634 473 722 q 237 545 348 545 q 83 710 83 545 m 170 722 q 243 614 170 614 q 354 691 320 614 q 389 845 389 768 q 311 942 389 942 q 209 876 248 942 q 170 722 170 810 m 441 153 q 498 364 441 273 q 683 454 555 454 q 831 288 831 454 q 770 79 831 169 q 595 -12 709 -12 q 441 153 441 -12 m 528 165 q 601 58 528 58 q 712 134 678 58 q 747 288 747 211 q 669 385 747 385 q 566 317 605 385 q 528 165 528 249 z "},"&":{"ha":981,"x_min":96,"x_max":926,"o":"m 590 35 q 358 -14 483 -14 q 168 50 239 -14 q 96 222 96 113 q 259 563 96 427 q 194 717 194 640 q 286 933 194 854 q 530 1011 378 1011 q 700 979 648 1011 l 663 852 q 534 909 603 909 q 378 858 435 909 q 321 715 321 807 q 377 597 321 646 l 629 597 l 651 722 l 785 741 l 758 595 l 926 595 l 907 487 l 739 487 l 712 359 q 696 264 701 307 q 691 189 691 222 q 769 102 691 102 q 869 137 823 102 l 869 14 q 718 -14 817 -14 q 590 35 640 -14 m 610 487 l 340 487 q 235 252 235 378 q 283 141 235 180 q 411 102 331 102 q 555 135 503 102 l 555 149 q 562 213 555 177 l 610 487 z "},"'":{"ha":222,"x_min":130,"x_max":284,"o":"m 220 736 l 130 736 l 159 995 l 284 995 l 220 736 z "},"(":{"ha":510,"x_min":118,"x_max":523,"o":"m 523 1000 l 523 944 q 325 568 393 801 q 257 59 257 336 q 312 -219 257 -109 l 312 -290 q 172 -94 227 -224 q 118 188 118 37 q 237 663 118 415 q 523 1000 357 911 z "},")":{"ha":510,"x_min":17,"x_max":435,"o":"m 17 -290 l 17 -219 q 216 145 137 -125 q 295 644 295 414 q 235 944 295 827 l 235 1000 q 381 815 328 960 q 435 515 435 671 q 317 55 435 287 q 17 -290 199 -177 z "},"*":{"ha":510,"x_min":112,"x_max":543,"o":"m 484 764 l 367 762 l 474 691 l 506 649 l 423 578 l 387 626 l 331 734 l 269 624 l 240 581 l 151 649 l 185 696 l 292 752 l 173 770 l 112 792 l 161 894 l 226 869 l 311 804 l 268 943 l 268 997 l 387 996 l 387 945 l 347 802 l 454 875 l 504 893 l 543 784 l 484 764 z "},"+":{"ha":728,"x_min":83,"x_max":651,"o":"m 414 479 l 651 479 l 651 383 l 414 383 l 414 149 l 319 149 l 319 383 l 83 383 l 83 479 l 319 479 l 319 711 l 414 711 l 414 479 z "},",":{"ha":510,"x_min":94,"x_max":349,"o":"m 123 -227 l 94 -176 q 224 -14 224 -86 q 209 37 224 10 q 157 116 157 68 q 184 174 157 152 q 251 197 211 197 q 321 164 293 197 q 349 90 349 132 q 300 -75 349 -1 q 123 -227 250 -149 z "},"-":{"ha":510,"x_min":98,"x_max":408,"o":"m 98 343 l 118 462 l 408 462 l 388 343 l 98 343 z "},".":{"ha":510,"x_min":112,"x_max":315,"o":"m 214 191 q 286 161 256 191 q 315 89 315 131 q 286 17 315 47 q 214 -14 256 -14 q 142 17 172 -14 q 112 89 112 47 q 142 161 112 131 q 214 191 172 191 z "},"/":{"ha":728,"x_min":128,"x_max":596,"o":"m 237 0 l 128 0 l 488 998 l 596 998 l 237 0 z "},":":{"ha":510,"x_min":138,"x_max":401,"o":"m 300 726 q 372 696 342 726 q 401 625 401 667 q 372 552 401 583 q 300 522 342 522 q 228 552 258 522 q 198 625 198 583 q 228 696 198 667 q 300 726 258 726 m 240 191 q 312 161 282 191 q 342 89 342 131 q 312 17 342 47 q 240 -14 282 -14 q 168 17 198 -14 q 138 89 138 47 q 168 161 138 131 q 240 191 198 191 z "},";":{"ha":510,"x_min":94,"x_max":401,"o":"m 300 726 q 372 696 342 726 q 401 625 401 667 q 372 552 401 583 q 300 522 342 522 q 228 552 258 522 q 198 625 198 583 q 228 696 198 667 q 300 726 258 726 m 123 -227 l 94 -176 q 224 -14 224 -86 q 209 37 224 10 q 157 116 157 68 q 184 174 157 152 q 251 197 211 197 q 321 164 293 197 q 349 90 349 132 q 300 -75 349 -1 q 123 -227 250 -149 z "},"<":{"ha":728,"x_min":102,"x_max":603,"o":"m 603 148 l 102 391 l 102 474 l 603 714 l 603 605 l 216 432 l 603 257 l 603 148 z "},"=":{"ha":728,"x_min":83,"x_max":651,"o":"m 651 594 l 651 498 l 83 498 l 83 594 l 651 594 m 651 363 l 651 268 l 83 268 l 83 363 l 651 363 z "},">":{"ha":728,"x_min":172,"x_max":673,"o":"m 673 391 l 172 148 l 172 257 l 559 432 l 172 605 l 172 714 l 673 474 l 673 391 z "},"?":{"ha":510,"x_min":99,"x_max":569,"o":"m 233 291 l 166 291 q 161 322 165 299 q 157 358 157 345 q 230 531 157 448 l 361 658 q 418 733 397 693 q 439 814 439 774 q 327 907 439 907 q 195 867 245 907 l 152 955 q 366 1011 214 1011 q 514 960 458 1011 q 569 819 569 909 q 480 605 569 699 l 322 467 q 254 384 277 428 q 233 291 231 339 m 195 178 q 263 150 235 178 q 292 82 292 121 q 263 15 292 43 q 195 -14 235 -14 q 127 15 155 -14 q 99 82 99 43 q 127 150 99 121 q 195 178 155 178 z "},"@":{"ha":1070,"x_min":83,"x_max":1046,"o":"m 630 241 q 566 188 612 211 q 477 165 519 165 q 360 205 404 165 q 315 319 315 245 q 403 541 315 444 q 612 637 491 637 q 680 631 654 637 q 778 593 705 625 q 722 313 722 348 q 778 244 722 244 q 903 327 858 244 q 947 522 947 410 q 863 735 947 655 q 645 816 779 816 q 315 663 449 816 q 180 303 180 509 q 267 74 180 157 q 500 -8 353 -8 q 766 79 656 -8 l 831 30 q 485 -91 690 -91 q 192 10 300 -91 q 83 288 83 111 q 250 718 83 537 q 660 899 418 899 q 941 805 836 899 q 1046 545 1046 711 q 968 285 1046 398 q 767 172 891 172 q 684 191 725 172 q 630 241 644 210 m 675 543 q 608 573 647 573 q 477 493 531 573 q 424 326 424 413 q 500 241 424 241 q 588 275 549 241 q 637 359 627 310 l 675 543 z "},"A":{"ha":848,"x_min":-22,"x_max":792,"o":"m 635 0 l 604 210 l 248 210 l 130 0 l -22 0 l 559 1007 l 595 1007 l 792 0 l 635 0 m 528 734 l 301 309 l 589 309 l 528 734 z "},"B":{"ha":786,"x_min":59,"x_max":772,"o":"m 59 0 l 235 994 q 421 1008 336 1008 q 772 774 772 1008 q 716 632 772 697 q 586 557 661 566 q 751 329 751 526 q 634 76 751 161 q 259 -8 516 -8 q 59 0 187 -8 m 355 885 l 311 610 q 406 605 370 605 q 633 779 633 605 q 457 891 633 891 q 355 885 424 891 m 288 496 l 220 115 q 302 109 257 109 q 524 162 437 109 q 611 314 611 216 q 373 501 611 501 q 288 496 334 501 z "},"C":{"ha":831,"x_min":96,"x_max":817,"o":"m 817 979 l 779 846 q 618 890 722 890 q 349 730 458 890 q 239 385 239 570 q 472 105 239 105 q 705 203 592 105 l 694 60 q 436 -17 611 -17 q 184 83 273 -17 q 96 360 96 184 q 244 822 96 633 q 627 1010 392 1010 q 817 979 745 1010 z "},"D":{"ha":852,"x_min":45,"x_max":846,"o":"m 262 0 l 45 0 l 220 994 q 389 1009 304 1009 q 726 908 606 1009 q 846 609 846 807 q 680 160 846 320 q 262 0 515 0 m 334 877 l 208 128 q 284 123 247 123 q 586 262 472 123 q 700 616 700 401 q 618 814 700 740 q 416 888 536 888 q 334 877 373 888 z "},"E":{"ha":744,"x_min":32,"x_max":808,"o":"m 328 871 l 279 595 l 608 595 l 587 480 l 259 480 l 196 122 l 646 122 l 625 0 l 32 0 l 208 994 l 808 994 l 785 871 l 328 871 z "},"F":{"ha":729,"x_min":37,"x_max":833,"o":"m 334 871 l 285 595 l 634 595 l 614 480 l 264 480 l 180 0 l 37 0 l 215 994 l 833 994 l 812 871 l 334 871 z "},"G":{"ha":939,"x_min":76,"x_max":876,"o":"m 865 954 l 825 824 q 636 888 738 888 q 337 747 454 888 q 220 392 220 606 q 491 105 220 105 q 678 170 600 105 l 720 403 l 582 403 l 602 518 l 876 518 l 799 85 q 441 -17 659 -17 q 76 366 76 -17 q 238 831 76 651 q 662 1010 400 1010 q 865 954 808 1010 z "},"H":{"ha":909,"x_min":45,"x_max":933,"o":"m 619 0 l 704 480 l 270 480 l 185 0 l 45 0 l 221 994 l 361 994 l 290 595 l 724 595 l 795 994 l 933 994 l 758 0 l 619 0 z "},"I":{"ha":387,"x_min":51,"x_max":365,"o":"m 51 0 l 227 994 l 365 994 l 189 0 l 51 0 z "},"J":{"ha":662,"x_min":-11,"x_max":658,"o":"m -9 199 l 110 199 q 201 109 110 109 q 334 145 289 109 q 412 366 380 182 l 522 994 l 658 994 l 549 371 q 436 72 511 157 q 181 -14 361 -14 q 41 34 93 -14 q -11 166 -11 82 q -9 199 -11 182 z "},"K":{"ha":800,"x_min":47,"x_max":879,"o":"m 589 0 l 397 457 l 231 269 l 184 0 l 47 0 l 222 994 l 359 994 l 269 479 l 721 994 l 879 994 l 506 563 l 746 0 l 589 0 z "},"L":{"ha":703,"x_min":57,"x_max":666,"o":"m 57 0 l 233 994 l 371 994 l 217 122 l 666 122 l 644 0 l 57 0 z "},"M":{"ha":1057,"x_min":3,"x_max":982,"o":"m 846 0 l 832 614 l 502 -14 l 468 -14 l 361 620 l 132 0 l 3 0 l 357 994 l 425 994 l 533 296 l 883 994 l 954 994 l 982 0 l 846 0 z "},"N":{"ha":886,"x_min":40,"x_max":899,"o":"m 680 -14 l 292 692 l 176 0 l 40 0 l 216 994 l 270 994 l 650 317 l 764 994 l 899 994 l 721 -14 l 680 -14 z "},"O":{"ha":936,"x_min":77,"x_max":931,"o":"m 77 365 q 217 819 77 627 q 580 1011 357 1011 q 841 918 751 1011 q 931 648 931 824 q 790 171 931 359 q 398 -17 648 -17 q 163 89 248 -17 q 77 365 77 195 m 222 384 q 273 180 222 255 q 420 105 324 105 q 688 262 589 105 q 787 634 787 418 q 568 890 787 890 q 319 724 416 890 q 222 384 222 558 z "},"P":{"ha":755,"x_min":37,"x_max":791,"o":"m 245 382 l 178 0 l 37 0 l 218 994 q 417 1007 344 1007 q 791 718 791 1007 q 676 459 791 552 q 381 366 561 366 q 245 382 310 366 m 332 871 l 267 505 q 377 486 304 486 q 572 543 498 486 q 647 705 647 600 q 450 887 647 887 q 332 871 395 887 z "},"Q":{"ha":936,"x_min":68,"x_max":1084,"o":"m 623 30 q 711 -79 644 -41 q 869 -117 778 -117 q 1025 -66 954 -117 l 1084 -169 q 991 -226 1061 -199 q 845 -252 921 -252 q 615 -185 709 -252 q 498 -1 522 -117 q 389 -17 446 -17 q 151 84 233 -17 q 68 365 68 186 q 207 819 68 627 q 570 1011 347 1011 q 831 918 741 1011 q 922 648 922 824 q 840 263 922 444 q 623 30 758 83 m 212 384 q 263 180 212 255 q 410 105 315 105 q 679 263 579 105 q 778 634 778 420 q 558 890 778 890 q 311 727 410 890 q 212 384 212 565 z "},"R":{"ha":808,"x_min":48,"x_max":794,"o":"m 566 0 l 410 427 q 267 433 357 427 l 191 0 l 48 0 l 223 994 q 333 999 251 994 q 467 1004 414 1004 q 709 947 624 1004 q 794 786 794 891 q 721 569 794 662 q 536 450 647 475 l 721 0 l 566 0 m 344 871 l 287 549 q 381 542 337 542 q 575 592 502 542 q 649 730 649 642 q 597 844 649 810 q 425 878 546 878 q 344 871 399 878 z "},"S":{"ha":668,"x_min":59,"x_max":651,"o":"m 59 32 l 100 162 q 187 123 129 139 q 298 106 245 106 q 428 146 379 106 q 477 254 477 185 q 440 356 477 312 q 314 465 403 400 q 184 585 224 529 q 143 724 143 640 q 228 934 143 858 q 448 1010 313 1010 q 651 984 601 1010 l 612 852 q 549 882 593 868 q 465 895 504 895 q 328 856 378 895 q 278 743 278 817 q 294 682 278 711 q 337 630 310 653 q 449 543 364 606 q 573 415 533 480 q 612 262 612 349 q 522 55 612 127 q 283 -17 431 -17 q 163 -2 230 -17 q 59 32 97 13 z "},"T":{"ha":806,"x_min":106,"x_max":910,"o":"m 562 871 l 408 0 l 269 0 l 422 871 l 106 871 l 128 994 l 910 994 l 888 871 l 562 871 z "},"U":{"ha":901,"x_min":91,"x_max":917,"o":"m 220 994 l 362 994 l 240 313 q 236 271 236 291 q 282 150 236 194 q 409 105 329 105 q 573 161 508 105 q 656 317 638 218 l 777 994 l 917 994 l 795 302 q 660 67 768 152 q 389 -17 551 -17 q 171 50 251 -17 q 91 227 91 117 q 98 303 91 263 l 220 994 z "},"V":{"ha":816,"x_min":121,"x_max":919,"o":"m 382 -14 l 313 -14 l 121 994 l 270 994 l 396 269 l 765 994 l 919 994 l 382 -14 z "},"W":{"ha":1183,"x_min":126,"x_max":1292,"o":"m 805 -14 l 762 -14 l 648 657 l 304 -14 l 262 -14 l 126 994 l 267 994 l 348 322 l 685 994 l 732 994 l 832 326 l 1144 994 l 1292 994 l 805 -14 z "},"X":{"ha":773,"x_min":-50,"x_max":865,"o":"m 555 0 l 389 383 l 107 0 l -50 0 l 333 522 l 149 994 l 290 994 l 425 630 l 709 994 l 865 994 l 480 505 l 707 0 l 555 0 z "},"Y":{"ha":792,"x_min":123,"x_max":900,"o":"m 484 445 l 406 0 l 270 0 l 349 445 l 123 994 l 265 994 l 434 570 l 747 994 l 900 994 l 484 445 z "},"Z":{"ha":764,"x_min":54,"x_max":803,"o":"m 54 0 l 54 34 l 608 871 l 188 871 l 209 994 l 803 994 l 803 960 l 268 122 l 684 122 l 663 0 l 54 0 z "},"[":{"ha":510,"x_min":15,"x_max":566,"o":"m 15 -285 l 245 1024 l 566 1024 l 546 909 l 368 909 l 178 -170 l 356 -170 l 336 -285 l 15 -285 z "},"\\":{"ha":494,"x_min":125,"x_max":429,"o":"m 332 0 l 125 998 l 222 998 l 429 0 l 332 0 z "},"]":{"ha":510,"x_min":-5,"x_max":547,"o":"m 316 -285 l -5 -285 l 16 -170 l 194 -170 l 384 909 l 205 909 l 226 1024 l 547 1024 l 316 -285 z "},"^":{"ha":728,"x_min":198,"x_max":701,"o":"m 614 615 l 449 919 l 281 612 l 198 612 l 414 998 l 486 998 l 701 615 l 614 615 z "},"_":{"ha":728,"x_min":-5,"x_max":730,"o":"m -5 -172 l -5 -85 l 730 -85 l 730 -172 l -5 -172 z "},"`":{"ha":728,"x_min":342,"x_max":516,"o":"m 448 831 l 342 1057 l 476 1057 l 516 831 l 448 831 z "},"a":{"ha":730,"x_min":42,"x_max":713,"o":"m 713 681 l 625 258 q 619 196 619 233 q 652 0 619 90 l 521 0 q 498 73 510 22 q 403 11 466 35 q 269 -14 340 -14 q 102 50 162 -14 q 42 232 42 113 q 160 586 42 431 q 463 740 277 740 q 713 681 637 740 m 571 606 q 448 635 553 635 q 259 521 340 635 q 178 236 178 407 q 307 92 178 92 q 433 161 374 92 q 515 339 492 231 l 571 606 z "},"b":{"ha":774,"x_min":18,"x_max":738,"o":"m 172 70 l 103 -14 l 18 -14 q 93 281 62 113 l 223 1024 l 348 1024 l 288 650 q 469 740 338 740 q 662 653 585 740 q 738 421 738 567 q 619 118 738 250 q 326 -14 500 -14 q 172 70 215 -14 m 269 532 l 201 178 q 216 148 200 171 q 262 109 233 125 q 321 92 292 92 q 517 194 437 92 q 598 410 598 296 q 403 631 598 631 q 269 532 326 631 z "},"c":{"ha":639,"x_min":61,"x_max":629,"o":"m 629 703 l 606 593 q 475 631 557 631 q 273 533 350 631 q 196 290 196 434 q 246 150 196 202 q 359 97 296 97 q 548 157 458 97 l 534 26 q 339 -14 445 -14 q 133 63 205 -14 q 61 268 61 140 q 175 608 61 475 q 465 740 289 740 q 629 703 570 740 z "},"d":{"ha":774,"x_min":56,"x_max":810,"o":"m 506 0 l 522 83 q 307 -13 443 -13 q 122 59 189 -13 q 56 256 56 132 q 170 603 56 468 q 461 739 283 739 q 619 653 564 739 l 688 1024 l 810 1024 l 633 0 l 506 0 m 595 525 q 577 563 597 531 q 531 612 558 594 q 473 630 503 630 q 274 533 353 630 q 195 283 195 435 q 353 92 195 92 q 486 162 424 92 q 566 343 547 232 l 595 525 z "},"e":{"ha":746,"x_min":71,"x_max":722,"o":"m 211 343 q 205 281 205 311 q 255 143 205 191 q 395 95 305 95 q 557 154 475 95 l 543 22 q 351 -14 435 -14 q 71 301 71 -14 q 189 613 71 486 q 486 740 307 740 q 658 694 593 740 q 722 562 722 648 q 622 375 722 444 q 376 307 522 307 q 211 343 278 307 m 233 437 q 355 414 285 414 q 528 448 460 414 q 595 548 595 482 q 479 631 595 631 q 233 437 304 631 z "},"f":{"ha":557,"x_min":-28,"x_max":634,"o":"m 610 903 q 530 922 558 922 q 373 726 407 922 l 541 726 l 530 637 l 360 637 l 245 -47 q 157 -204 229 -144 q -17 -277 85 -264 l -28 -197 q 55 -142 12 -189 q 106 -47 98 -96 l 227 637 l 124 637 l 139 726 l 239 726 q 538 1024 298 1024 q 634 1004 595 1024 l 610 903 z "},"g":{"ha":697,"x_min":-9,"x_max":699,"o":"m -9 -203 l 52 -109 q 258 -171 176 -171 q 407 -138 347 -171 q 467 -45 467 -104 q 447 4 467 -15 q 378 32 427 24 l 259 52 q 186 126 186 71 q 302 216 186 171 l 279 216 q 140 275 200 216 q 80 418 80 334 q 172 650 80 560 q 406 740 263 740 q 567 691 508 740 l 628 760 l 699 687 l 632 617 q 652 530 652 589 q 593 330 652 413 q 438 213 534 246 q 343 150 343 179 q 369 126 343 126 q 397 129 378 126 q 425 132 416 132 q 595 -21 595 132 q 488 -213 595 -141 q 234 -285 381 -285 q -9 -203 85 -285 m 396 636 q 265 575 318 636 q 212 433 212 515 q 323 285 212 285 q 458 359 399 285 q 516 517 516 433 q 484 604 516 572 q 396 636 451 636 z "},"h":{"ha":774,"x_min":53,"x_max":720,"o":"m 499 0 l 580 456 q 585 506 585 484 q 463 631 585 631 q 364 604 416 631 q 280 540 312 576 l 184 0 l 53 0 l 230 1024 l 358 1024 l 298 646 q 394 713 332 686 q 517 740 456 740 q 666 685 613 740 q 720 530 720 630 q 713 456 720 496 l 632 0 l 499 0 z "},"i":{"ha":426,"x_min":94,"x_max":392,"o":"m 302 1011 q 366 985 339 1011 q 392 921 392 959 q 366 858 392 884 q 302 831 339 831 q 238 858 264 831 q 212 921 212 884 q 238 985 212 959 q 302 1011 264 1011 m 94 0 l 203 618 l 107 618 l 131 724 l 353 724 l 224 0 l 94 0 z "},"j":{"ha":509,"x_min":-94,"x_max":484,"o":"m 394 1011 q 458 985 431 1011 q 484 921 484 958 q 458 858 484 884 q 394 831 431 831 q 330 858 357 831 q 304 921 304 884 q 330 985 304 958 q 394 1011 357 1011 m -94 -281 l -89 -168 q 178 3 145 -168 l 294 618 l 199 618 l 222 726 l 445 726 l 314 11 q 188 -213 286 -144 q -94 -281 90 -281 z "},"k":{"ha":701,"x_min":72,"x_max":677,"o":"m 299 321 l 248 277 l 201 0 l 72 0 l 243 1024 l 369 1024 l 276 429 q 590 750 531 667 l 677 672 q 399 391 568 551 l 673 0 l 522 0 l 299 321 z "},"l":{"ha":445,"x_min":99,"x_max":397,"o":"m 332 81 l 317 -14 q 99 148 99 -14 q 133 366 99 197 l 263 1024 l 397 1024 l 273 406 q 235 164 235 213 q 332 81 235 81 z "},"m":{"ha":1153,"x_min":43,"x_max":1105,"o":"m 881 0 l 962 460 q 967 512 967 487 q 847 631 967 631 q 758 604 803 631 q 690 537 713 576 l 595 0 l 463 0 l 554 516 q 556 537 556 528 q 428 631 556 631 q 342 602 389 631 q 270 536 294 572 l 175 0 l 43 0 l 137 530 q 141 593 141 553 q 127 715 141 669 l 253 739 q 267 644 265 687 q 357 714 294 688 q 488 740 420 740 q 688 643 643 740 q 782 712 718 685 q 908 740 846 740 q 1105 551 1105 740 q 1099 486 1105 520 l 1013 0 l 881 0 z "},"n":{"ha":759,"x_min":53,"x_max":718,"o":"m 494 0 l 570 422 q 580 516 580 479 q 460 631 580 631 q 361 604 414 631 q 277 540 309 577 l 183 0 l 53 0 l 151 551 q 154 595 154 570 q 140 715 154 665 l 264 740 q 282 632 283 641 q 521 740 365 740 q 718 539 718 740 q 709 450 718 499 l 631 0 l 494 0 z "},"o":{"ha":745,"x_min":50,"x_max":725,"o":"m 50 267 q 163 601 50 462 q 453 740 277 740 q 655 668 585 740 q 725 465 725 597 q 683 248 725 361 q 547 61 642 136 q 320 -14 452 -14 q 119 60 189 -14 q 50 267 50 134 m 185 275 q 339 92 185 92 q 521 203 454 92 q 589 460 589 314 q 435 635 589 635 q 297 579 357 635 q 212 437 238 524 q 185 275 185 350 z "},"p":{"ha":774,"x_min":-10,"x_max":747,"o":"m 176 37 l 119 -288 l -10 -288 l 132 509 q 142 612 142 562 q 132 712 142 663 l 261 736 q 273 644 264 728 q 365 710 305 683 q 476 736 425 736 q 679 669 612 736 q 747 467 747 602 q 632 122 747 261 q 332 -17 518 -17 q 240 -1 292 -17 q 176 37 189 14 m 195 143 q 244 106 207 121 q 314 92 281 92 q 533 188 456 92 q 610 450 610 283 q 565 584 610 539 q 429 628 519 628 q 338 601 390 628 q 264 543 286 573 l 195 143 z "},"q":{"ha":774,"x_min":54,"x_max":781,"o":"m 455 -285 l 513 43 q 314 -14 447 -14 q 127 67 201 -14 q 54 258 54 148 q 172 600 54 460 q 475 740 290 740 q 640 671 571 740 l 674 726 l 781 726 q 726 511 740 591 l 584 -285 l 455 -285 m 607 576 q 477 631 562 631 q 271 531 351 631 q 192 290 192 431 q 240 146 192 197 q 378 95 289 95 q 530 142 470 95 l 607 576 z "},"r":{"ha":578,"x_min":60,"x_max":603,"o":"m 566 599 q 471 631 526 631 q 340 568 403 631 q 262 416 278 505 l 189 0 l 60 0 l 188 726 l 317 726 l 296 610 q 529 740 390 740 q 603 730 553 740 l 566 599 z "},"s":{"ha":562,"x_min":6,"x_max":560,"o":"m 6 43 l 73 165 q 149 117 100 139 q 234 95 199 95 q 334 127 294 95 q 373 216 373 160 q 352 267 373 244 q 281 318 332 289 l 185 371 q 119 434 141 396 q 97 516 97 473 q 176 679 97 617 q 369 740 254 740 q 560 690 448 740 l 503 570 q 359 631 436 631 q 272 605 309 631 q 235 536 235 579 q 256 483 235 505 q 328 433 277 460 l 423 381 q 489 320 467 357 q 511 239 511 283 q 426 54 511 122 q 212 -14 342 -14 q 6 43 97 -14 z "},"t":{"ha":583,"x_min":125,"x_max":568,"o":"m 218 625 l 134 625 l 155 726 l 239 726 l 269 878 l 416 934 l 368 726 l 568 726 l 546 625 l 347 625 l 271 264 q 262 199 262 222 q 365 95 262 95 q 473 120 415 95 l 468 7 q 288 -14 412 -14 q 168 34 211 -14 q 125 165 125 82 q 131 212 125 184 l 218 625 z "},"u":{"ha":773,"x_min":66,"x_max":758,"o":"m 292 726 l 208 263 q 202 208 202 233 q 320 95 202 95 q 459 149 393 95 q 540 279 526 203 l 623 726 l 758 726 l 625 0 l 490 0 l 509 102 q 245 -14 433 -14 q 113 37 161 -14 q 66 179 66 87 q 73 250 66 212 l 157 726 l 292 726 z "},"v":{"ha":680,"x_min":67,"x_max":756,"o":"m 312 -14 l 278 -14 l 67 728 l 201 728 l 332 229 l 608 728 l 756 728 l 312 -14 z "},"w":{"ha":1034,"x_min":78,"x_max":1084,"o":"m 707 -14 l 673 -14 l 538 459 l 248 -14 l 214 -14 l 78 728 l 209 728 l 288 267 l 559 728 l 593 728 l 723 263 l 951 728 l 1084 728 q 707 -14 857 283 z "},"x":{"ha":696,"x_min":-9,"x_max":732,"o":"m 475 0 l 348 255 l 148 0 l -9 0 l 290 378 l 106 726 l 258 726 l 378 474 l 563 726 l 732 726 l 443 367 l 643 0 l 475 0 z "},"y":{"ha":685,"x_min":21,"x_max":743,"o":"m 21 -285 l 21 -155 q 200 -117 147 -155 q 276 -3 253 -79 q 149 185 180 -3 l 58 726 l 199 726 l 279 199 q 334 121 290 121 l 596 726 l 743 726 l 378 -87 q 256 -237 332 -190 q 21 -285 179 -285 z "},"z":{"ha":659,"x_min":5,"x_max":666,"o":"m 228 115 l 589 115 l 569 0 l 5 0 l 5 34 l 451 611 l 79 611 l 99 726 l 666 726 l 666 690 l 228 115 z "},"{":{"ha":510,"x_min":24,"x_max":594,"o":"m 271 -285 q 103 -240 170 -285 q 35 -116 35 -195 q 89 64 35 -54 q 143 243 143 181 q 24 355 143 347 l 34 412 q 160 473 114 417 q 207 618 207 530 q 201 699 207 645 q 195 779 195 752 q 282 953 195 888 q 494 1019 369 1019 l 594 1019 l 578 928 l 460 928 q 358 882 394 928 q 323 756 323 836 q 328 690 323 734 q 334 624 334 646 q 292 496 334 553 q 143 385 250 440 q 267 233 267 330 q 221 87 267 190 q 175 -74 175 -16 q 196 -144 175 -117 q 256 -180 216 -170 q 381 -190 295 -190 l 365 -285 l 271 -285 z "},"|":{"ha":728,"x_min":313,"x_max":412,"o":"m 313 -187 l 313 953 l 412 953 l 412 -187 l 313 -187 z "},"}":{"ha":510,"x_min":-89,"x_max":488,"o":"m -89 -285 l -73 -190 q 137 -138 83 -190 q 190 25 190 -85 q 186 93 190 47 q 182 161 182 138 q 369 385 182 313 q 248 551 248 463 q 292 692 248 600 q 336 840 336 785 q 243 928 336 928 l 125 928 l 140 1019 l 241 1019 q 404 975 336 1019 q 471 854 471 931 q 420 696 471 804 q 370 532 370 589 q 488 412 370 421 l 477 355 q 304 144 304 343 q 309 62 304 116 q 314 -20 314 7 q 229 -214 314 -143 q 5 -285 144 -285 l -89 -285 z "},"~":{"ha":728,"x_min":87,"x_max":642,"o":"m 87 377 q 147 486 98 441 q 254 530 195 530 q 398 485 331 530 q 488 440 466 440 q 552 452 527 440 q 609 510 578 464 l 642 498 q 580 384 625 431 q 477 337 534 337 q 348 377 413 337 q 245 418 283 418 q 114 363 153 418 l 87 377 z "},"Ä":{"ha":848,"x_min":-22,"x_max":817,"o":"m 635 0 l 604 210 l 248 210 l 130 0 l -22 0 l 559 1007 l 595 1007 l 792 0 l 635 0 m 528 734 l 301 309 l 589 309 l 528 734 m 420 1230 q 474 1207 452 1230 q 496 1154 496 1185 q 474 1099 496 1122 q 420 1077 452 1077 q 366 1099 389 1077 q 344 1154 344 1122 q 366 1207 344 1185 q 420 1230 389 1230 m 741 1230 q 795 1207 772 1230 q 817 1154 817 1185 q 795 1099 817 1122 q 741 1077 772 1077 q 687 1099 709 1077 q 665 1154 665 1122 q 687 1207 665 1185 q 741 1230 709 1230 z "},"Å":{"ha":848,"x_min":-22,"x_max":792,"o":"m 635 0 l 604 210 l 248 210 l 130 0 l -22 0 l 559 1007 l 595 1007 l 792 0 l 635 0 m 528 734 l 301 309 l 589 309 l 528 734 m 578 1063 q 469 1095 511 1063 q 428 1184 428 1127 q 474 1268 428 1232 q 578 1304 520 1304 q 685 1271 641 1304 q 729 1184 729 1237 q 687 1096 729 1129 q 578 1063 646 1063 m 578 1244 q 515 1227 543 1244 q 488 1184 488 1210 q 578 1123 488 1123 q 643 1139 616 1123 q 670 1184 670 1156 q 643 1228 670 1211 q 578 1244 615 1244 z "},"Ç":{"ha":831,"x_min":96,"x_max":817,"o":"m 817 979 l 779 846 q 618 890 722 890 q 349 730 458 890 q 239 385 239 570 q 472 105 239 105 q 705 203 592 105 l 694 60 q 436 -17 611 -17 q 184 83 273 -17 q 96 360 96 184 q 244 822 96 633 q 627 1010 392 1010 q 817 979 745 1010 m 348 -309 l 342 -241 q 442 -220 402 -241 q 482 -159 482 -198 q 429 -119 482 -119 l 443 -38 q 533 -68 502 -38 q 565 -147 565 -98 q 503 -266 565 -223 q 348 -309 441 -309 z "},"É":{"ha":744,"x_min":32,"x_max":808,"o":"m 328 871 l 279 595 l 608 595 l 587 480 l 259 480 l 196 122 l 646 122 l 625 0 l 32 0 l 208 994 l 808 994 l 785 871 l 328 871 m 661 1301 l 508 1075 l 413 1075 l 528 1301 l 661 1301 z "},"Ñ":{"ha":886,"x_min":40,"x_max":899,"o":"m 680 -14 l 292 692 l 176 0 l 40 0 l 216 994 l 270 994 l 650 317 l 764 994 l 899 994 l 721 -14 l 680 -14 m 761 1215 q 606 1075 700 1075 q 517 1101 565 1075 q 449 1127 470 1127 q 366 1075 401 1127 l 304 1075 q 367 1174 325 1132 q 454 1215 408 1215 q 551 1189 506 1215 q 618 1163 597 1163 q 701 1215 674 1163 l 761 1215 z "},"Ö":{"ha":936,"x_min":86,"x_max":940,"o":"m 86 365 q 226 819 86 627 q 589 1011 366 1011 q 850 918 760 1011 q 940 648 940 824 q 799 171 940 359 q 407 -17 657 -17 q 172 89 257 -17 q 86 365 86 195 m 231 384 q 282 180 231 255 q 429 105 333 105 q 697 262 597 105 q 796 634 796 418 q 576 890 796 890 q 328 724 425 890 q 231 384 231 558 m 441 1230 q 495 1207 473 1230 q 517 1154 517 1185 q 495 1099 517 1122 q 441 1077 473 1077 q 387 1099 410 1077 q 365 1154 365 1122 q 387 1207 365 1185 q 441 1230 410 1230 m 762 1230 q 816 1207 793 1230 q 838 1154 838 1185 q 816 1099 838 1122 q 762 1077 793 1077 q 708 1099 730 1077 q 686 1154 686 1122 q 708 1207 686 1185 q 762 1230 730 1230 z "},"Ü":{"ha":901,"x_min":91,"x_max":917,"o":"m 220 994 l 362 994 l 240 313 q 236 271 236 291 q 282 150 236 194 q 409 105 329 105 q 573 161 508 105 q 656 317 638 218 l 777 994 l 917 994 l 795 302 q 660 67 768 152 q 389 -17 551 -17 q 171 50 251 -17 q 91 227 91 117 q 98 303 91 263 l 220 994 m 400 1230 q 454 1207 432 1230 q 476 1154 476 1185 q 454 1099 476 1122 q 400 1077 431 1077 q 346 1099 368 1077 q 323 1154 323 1122 q 346 1207 323 1185 q 400 1230 368 1230 m 720 1230 q 774 1207 752 1230 q 797 1154 797 1185 q 774 1099 797 1122 q 720 1077 752 1077 q 666 1099 688 1077 q 644 1154 644 1122 q 666 1207 644 1185 q 720 1230 688 1230 z "},"á":{"ha":730,"x_min":42,"x_max":713,"o":"m 713 681 l 625 258 q 619 196 619 233 q 652 0 619 90 l 521 0 q 498 73 510 22 q 403 11 466 35 q 269 -14 340 -14 q 102 50 162 -14 q 42 232 42 113 q 160 586 42 431 q 463 740 277 740 q 713 681 637 740 m 571 606 q 448 635 553 635 q 259 521 340 635 q 178 236 178 407 q 307 92 178 92 q 433 161 374 92 q 515 339 492 231 l 571 606 m 684 1057 l 530 831 l 435 831 l 550 1057 l 684 1057 z "},"à":{"ha":730,"x_min":42,"x_max":713,"o":"m 713 681 l 625 258 q 619 196 619 233 q 652 0 619 90 l 521 0 q 498 73 510 22 q 403 11 466 35 q 269 -14 340 -14 q 102 50 162 -14 q 42 232 42 113 q 160 586 42 431 q 463 740 277 740 q 713 681 637 740 m 571 606 q 448 635 553 635 q 259 521 340 635 q 178 236 178 407 q 307 92 178 92 q 433 161 374 92 q 515 339 492 231 l 571 606 m 446 831 l 340 1057 l 473 1057 l 513 831 l 446 831 z "},"â":{"ha":730,"x_min":42,"x_max":722,"o":"m 713 681 l 625 258 q 619 196 619 233 q 652 0 619 90 l 521 0 q 498 73 510 22 q 403 11 466 35 q 269 -14 340 -14 q 102 50 162 -14 q 42 232 42 113 q 160 586 42 431 q 463 740 277 740 q 713 681 637 740 m 571 606 q 448 635 553 635 q 259 521 340 635 q 178 236 178 407 q 307 92 178 92 q 433 161 374 92 q 515 339 492 231 l 571 606 m 589 829 l 500 959 l 357 829 l 241 829 l 486 1060 l 558 1060 l 722 829 l 589 829 z "},"ä":{"ha":730,"x_min":42,"x_max":732,"o":"m 713 681 l 625 258 q 619 196 619 233 q 652 0 619 90 l 521 0 q 498 73 510 22 q 403 11 466 35 q 269 -14 340 -14 q 102 50 162 -14 q 42 232 42 113 q 160 586 42 431 q 463 740 277 740 q 713 681 637 740 m 571 606 q 448 635 553 635 q 259 521 340 635 q 178 236 178 407 q 307 92 178 92 q 433 161 374 92 q 515 339 492 231 l 571 606 m 336 985 q 390 963 368 985 q 412 909 412 941 q 389 855 412 878 q 336 833 367 833 q 281 855 304 833 q 259 909 259 878 q 281 963 259 941 q 336 985 304 985 m 656 985 q 710 963 688 985 q 732 909 732 941 q 710 855 732 878 q 656 833 688 833 q 602 855 624 833 q 580 909 580 878 q 602 963 580 941 q 656 985 624 985 z "},"ã":{"ha":730,"x_min":42,"x_max":736,"o":"m 713 681 l 625 258 q 619 196 619 233 q 652 0 619 90 l 521 0 q 498 73 510 22 q 403 11 466 35 q 269 -14 340 -14 q 102 50 162 -14 q 42 232 42 113 q 160 586 42 431 q 463 740 277 740 q 713 681 637 740 m 571 606 q 448 635 553 635 q 259 521 340 635 q 178 236 178 407 q 307 92 178 92 q 433 161 374 92 q 515 339 492 231 l 571 606 m 736 971 q 581 831 675 831 q 492 857 540 831 q 424 883 445 883 q 341 831 376 883 l 279 831 q 341 929 300 888 q 429 971 383 971 q 526 945 481 971 q 593 919 572 919 q 676 971 649 919 l 736 971 z "},"å":{"ha":730,"x_min":42,"x_max":713,"o":"m 713 681 l 625 258 q 619 196 619 233 q 652 0 619 90 l 521 0 q 498 73 510 22 q 403 11 466 35 q 269 -14 340 -14 q 102 50 162 -14 q 42 232 42 113 q 160 586 42 431 q 463 740 277 740 q 713 681 637 740 m 571 606 q 448 635 553 635 q 259 521 340 635 q 178 236 178 407 q 307 92 178 92 q 433 161 374 92 q 515 339 492 231 l 571 606 m 522 829 q 412 861 454 829 q 371 949 371 892 q 417 1034 371 998 q 522 1069 463 1069 q 628 1036 584 1069 q 672 949 672 1002 q 630 862 672 895 q 522 829 589 829 m 522 1010 q 458 992 486 1010 q 431 949 431 975 q 522 888 431 888 q 586 905 559 888 q 613 949 613 921 q 586 993 613 977 q 522 1010 558 1010 z "},"ç":{"ha":639,"x_min":61,"x_max":629,"o":"m 629 703 l 606 593 q 475 631 557 631 q 273 533 350 631 q 196 290 196 434 q 246 150 196 202 q 359 97 296 97 q 548 157 458 97 l 534 26 q 339 -14 445 -14 q 133 63 205 -14 q 61 268 61 140 q 175 608 61 475 q 465 740 289 740 q 629 703 570 740 m 241 -309 l 236 -241 q 336 -220 296 -241 q 376 -159 376 -198 q 322 -119 376 -119 l 336 -38 q 427 -68 395 -38 q 458 -147 458 -98 q 396 -266 458 -223 q 241 -309 334 -309 z "},"é":{"ha":746,"x_min":71,"x_max":722,"o":"m 211 343 q 205 281 205 311 q 255 143 205 191 q 395 95 305 95 q 557 154 475 95 l 543 22 q 351 -14 435 -14 q 71 301 71 -14 q 189 613 71 486 q 486 740 307 740 q 658 694 593 740 q 722 562 722 648 q 622 375 722 444 q 376 307 522 307 q 211 343 278 307 m 233 437 q 355 414 285 414 q 528 448 460 414 q 595 548 595 482 q 479 631 595 631 q 233 437 304 631 m 669 1057 l 516 831 l 421 831 l 536 1057 l 669 1057 z "},"è":{"ha":746,"x_min":71,"x_max":722,"o":"m 211 343 q 205 281 205 311 q 255 143 205 191 q 395 95 305 95 q 557 154 475 95 l 543 22 q 351 -14 435 -14 q 71 301 71 -14 q 189 613 71 486 q 486 740 307 740 q 658 694 593 740 q 722 562 722 648 q 622 375 722 444 q 376 307 522 307 q 211 343 278 307 m 233 437 q 355 414 285 414 q 528 448 460 414 q 595 548 595 482 q 479 631 595 631 q 233 437 304 631 m 475 831 l 370 1057 l 503 1057 l 543 831 l 475 831 z "},"ê":{"ha":746,"x_min":71,"x_max":722,"o":"m 211 343 q 205 281 205 311 q 255 143 205 191 q 395 95 305 95 q 557 154 475 95 l 543 22 q 351 -14 435 -14 q 71 301 71 -14 q 189 613 71 486 q 486 740 307 740 q 658 694 593 740 q 722 562 722 648 q 622 375 722 444 q 376 307 522 307 q 211 343 278 307 m 233 437 q 355 414 285 414 q 528 448 460 414 q 595 548 595 482 q 479 631 595 631 q 233 437 304 631 m 583 829 l 495 959 l 352 829 l 235 829 l 480 1060 l 553 1060 l 717 829 l 583 829 z "},"ë":{"ha":746,"x_min":71,"x_max":729,"o":"m 211 343 q 205 281 205 311 q 255 143 205 191 q 395 95 305 95 q 557 154 475 95 l 543 22 q 351 -14 435 -14 q 71 301 71 -14 q 189 613 71 486 q 486 740 307 740 q 658 694 593 740 q 722 562 722 648 q 622 375 722 444 q 376 307 522 307 q 211 343 278 307 m 233 437 q 355 414 285 414 q 528 448 460 414 q 595 548 595 482 q 479 631 595 631 q 233 437 304 631 m 332 985 q 386 963 364 985 q 408 909 408 941 q 386 855 408 878 q 332 833 363 833 q 278 855 300 833 q 256 909 256 878 q 278 963 256 941 q 332 985 300 985 m 652 985 q 707 963 684 985 q 729 909 729 941 q 707 855 729 878 q 652 833 684 833 q 598 855 621 833 q 576 909 576 878 q 598 963 576 941 q 652 985 621 985 z "},"í":{"ha":426,"x_min":94,"x_max":416,"o":"m 94 0 l 203 618 l 107 618 l 131 724 l 353 724 l 224 0 l 94 0 m 416 1057 l 262 831 l 168 831 l 282 1057 l 416 1057 z "},"ì":{"ha":426,"x_min":94,"x_max":353,"o":"m 94 0 l 203 618 l 107 618 l 131 724 l 353 724 l 224 0 l 94 0 m 244 831 l 138 1057 l 272 1057 l 312 831 l 244 831 z "},"î":{"ha":426,"x_min":94,"x_max":575,"o":"m 161 0 l 271 618 l 175 618 l 199 724 l 420 724 l 292 0 l 161 0 m 441 829 l 353 959 l 210 829 l 94 829 l 338 1060 l 411 1060 l 575 829 l 441 829 z "},"ï":{"ha":426,"x_min":94,"x_max":567,"o":"m 94 0 l 203 618 l 107 618 l 131 724 l 353 724 l 224 0 l 94 0 m 170 985 q 224 963 202 985 q 246 909 246 941 q 224 855 246 878 q 170 833 201 833 q 116 855 138 833 q 94 909 94 878 q 116 963 94 941 q 170 985 138 985 m 490 985 q 545 963 522 985 q 567 909 567 941 q 545 855 567 878 q 490 833 522 833 q 436 855 458 833 q 414 909 414 878 q 436 963 414 941 q 490 985 458 985 z "},"ñ":{"ha":759,"x_min":53,"x_max":718,"o":"m 494 0 l 570 422 q 580 516 580 479 q 460 631 580 631 q 361 604 414 631 q 277 540 309 577 l 183 0 l 53 0 l 151 551 q 154 595 154 570 q 140 715 154 665 l 264 740 q 282 632 283 641 q 521 740 365 740 q 718 539 718 740 q 709 450 718 499 l 631 0 l 494 0 m 707 971 q 551 831 646 831 q 463 857 511 831 q 395 883 416 883 q 312 831 347 883 l 250 831 q 312 929 271 888 q 400 971 354 971 q 497 945 452 971 q 564 919 543 919 q 647 971 620 919 l 707 971 z "},"ó":{"ha":745,"x_min":50,"x_max":725,"o":"m 50 267 q 163 601 50 462 q 453 740 277 740 q 655 668 585 740 q 725 465 725 597 q 683 248 725 361 q 547 61 642 136 q 320 -14 452 -14 q 119 60 189 -14 q 50 267 50 134 m 185 275 q 339 92 185 92 q 521 203 454 92 q 589 460 589 314 q 435 635 589 635 q 297 579 357 635 q 212 437 238 524 q 185 275 185 350 m 622 1057 l 469 831 l 374 831 l 488 1057 l 622 1057 z "},"ò":{"ha":745,"x_min":50,"x_max":725,"o":"m 50 267 q 163 601 50 462 q 453 740 277 740 q 655 668 585 740 q 725 465 725 597 q 683 248 725 361 q 547 61 642 136 q 320 -14 452 -14 q 119 60 189 -14 q 50 267 50 134 m 185 275 q 339 92 185 92 q 521 203 454 92 q 589 460 589 314 q 435 635 589 635 q 297 579 357 635 q 212 437 238 524 q 185 275 185 350 m 448 831 l 342 1057 l 476 1057 l 516 831 l 448 831 z "},"ô":{"ha":745,"x_min":50,"x_max":725,"o":"m 50 267 q 163 601 50 462 q 453 740 277 740 q 655 668 585 740 q 725 465 725 597 q 683 248 725 361 q 547 61 642 136 q 320 -14 452 -14 q 119 60 189 -14 q 50 267 50 134 m 185 275 q 339 92 185 92 q 521 203 454 92 q 589 460 589 314 q 435 635 589 635 q 297 579 357 635 q 212 437 238 524 q 185 275 185 350 m 549 829 l 461 959 l 318 829 l 201 829 l 446 1060 l 519 1060 l 683 829 l 549 829 z "},"ö":{"ha":745,"x_min":50,"x_max":725,"o":"m 50 267 q 163 601 50 462 q 453 740 277 740 q 655 668 585 740 q 725 465 725 597 q 683 248 725 361 q 547 61 642 136 q 320 -14 452 -14 q 119 60 189 -14 q 50 267 50 134 m 185 275 q 339 92 185 92 q 521 203 454 92 q 589 460 589 314 q 435 635 589 635 q 297 579 357 635 q 212 437 238 524 q 185 275 185 350 m 319 985 q 373 963 351 985 q 395 909 395 941 q 372 855 395 878 q 319 833 350 833 q 264 855 287 833 q 242 909 242 878 q 264 963 242 941 q 319 985 287 985 m 639 985 q 693 963 671 985 q 715 909 715 941 q 693 855 715 878 q 639 833 671 833 q 585 855 607 833 q 563 909 563 878 q 585 963 563 941 q 639 985 607 985 z "},"õ":{"ha":745,"x_min":50,"x_max":725,"o":"m 50 267 q 163 601 50 462 q 453 740 277 740 q 655 668 585 740 q 725 465 725 597 q 683 248 725 361 q 547 61 642 136 q 320 -14 452 -14 q 119 60 189 -14 q 50 267 50 134 m 185 275 q 339 92 185 92 q 521 203 454 92 q 589 460 589 314 q 435 635 589 635 q 297 579 357 635 q 212 437 238 524 q 185 275 185 350 m 693 971 q 538 831 632 831 q 450 857 497 831 q 381 883 402 883 q 298 831 333 883 l 237 831 q 299 929 257 888 q 387 971 340 971 q 484 945 438 971 q 551 919 529 919 q 633 971 606 919 l 693 971 z "},"ú":{"ha":773,"x_min":66,"x_max":758,"o":"m 292 726 l 208 263 q 202 208 202 233 q 320 95 202 95 q 459 149 393 95 q 540 279 526 203 l 623 726 l 758 726 l 625 0 l 490 0 l 509 102 q 245 -14 433 -14 q 113 37 161 -14 q 66 179 66 87 q 73 250 66 212 l 157 726 l 292 726 m 635 1057 l 482 831 l 387 831 l 502 1057 l 635 1057 z "},"ù":{"ha":773,"x_min":66,"x_max":758,"o":"m 292 726 l 208 263 q 202 208 202 233 q 320 95 202 95 q 459 149 393 95 q 540 279 526 203 l 623 726 l 758 726 l 625 0 l 490 0 l 509 102 q 245 -14 433 -14 q 113 37 161 -14 q 66 179 66 87 q 73 250 66 212 l 157 726 l 292 726 m 462 831 l 356 1057 l 490 1057 l 530 831 l 462 831 z "},"û":{"ha":773,"x_min":66,"x_max":758,"o":"m 292 726 l 208 263 q 202 208 202 233 q 320 95 202 95 q 459 149 393 95 q 540 279 526 203 l 623 726 l 758 726 l 625 0 l 490 0 l 509 102 q 245 -14 433 -14 q 113 37 161 -14 q 66 179 66 87 q 73 250 66 212 l 157 726 l 292 726 m 583 829 l 495 959 l 352 829 l 235 829 l 480 1060 l 553 1060 l 717 829 l 583 829 z "},"ü":{"ha":773,"x_min":66,"x_max":758,"o":"m 292 726 l 208 263 q 202 208 202 233 q 320 95 202 95 q 459 149 393 95 q 540 279 526 203 l 623 726 l 758 726 l 625 0 l 490 0 l 509 102 q 245 -14 433 -14 q 113 37 161 -14 q 66 179 66 87 q 73 250 66 212 l 157 726 l 292 726 m 332 985 q 386 963 364 985 q 408 909 408 941 q 386 855 408 878 q 332 833 363 833 q 278 855 300 833 q 256 909 256 878 q 278 963 256 941 q 332 985 300 985 m 652 985 q 707 963 684 985 q 729 909 729 941 q 707 855 729 878 q 652 833 684 833 q 598 855 621 833 q 576 909 576 878 q 598 963 576 941 q 652 985 621 985 z "},"†":{"ha":637,"x_min":75,"x_max":696,"o":"m 326 631 l 75 631 l 92 726 l 343 726 l 380 939 l 482 939 l 445 726 l 696 726 l 679 631 l 428 631 l 287 -170 l 227 -229 l 185 -170 l 326 631 z "},"°":{"ha":728,"x_min":299,"x_max":586,"o":"m 443 727 q 341 769 383 727 q 299 869 299 810 q 341 970 299 928 q 443 1011 383 1011 q 544 970 502 1011 q 586 869 586 928 q 544 769 586 810 q 443 727 502 727 m 443 964 q 376 936 404 964 q 349 869 349 908 q 376 803 349 831 q 443 775 404 775 q 509 803 481 775 q 537 869 537 831 q 509 936 537 908 q 443 964 481 964 z "},"¢":{"ha":728,"x_min":120,"x_max":624,"o":"m 624 590 l 600 494 q 492 554 552 536 l 378 157 q 391 156 384 156 q 562 203 480 156 l 549 101 q 372 71 468 71 q 353 71 363 71 l 303 -103 l 225 -103 l 281 86 q 174 160 227 95 q 120 288 120 224 q 212 551 120 452 q 448 651 304 651 l 500 825 l 569 825 l 517 643 q 624 590 580 624 m 420 555 q 293 478 343 550 q 243 305 243 406 q 263 226 243 264 q 309 178 284 188 l 420 555 z "},"£":{"ha":735,"x_min":54,"x_max":734,"o":"m 227 471 l 107 471 l 125 572 l 227 572 q 309 906 224 808 q 574 1004 393 1004 q 670 988 624 1004 q 734 951 716 972 l 670 848 q 538 890 610 890 q 363 615 363 890 q 364 572 363 594 l 507 572 l 490 471 l 364 471 q 338 268 366 389 q 265 111 309 146 q 454 65 338 65 q 555 93 502 65 q 631 157 608 121 l 709 71 q 605 -17 686 24 q 452 -57 525 -57 q 310 -35 374 -57 q 190 -12 245 -12 q 73 -22 142 -12 l 54 80 q 112 123 62 83 q 195 260 161 163 q 229 441 229 357 q 227 471 229 456 z "},"§":{"ha":630,"x_min":28,"x_max":637,"o":"m 202 635 q 146 758 146 671 q 230 945 146 879 q 453 1010 314 1010 q 553 990 498 1010 q 637 943 609 970 l 577 840 q 435 888 536 888 q 292 785 292 888 q 301 754 292 768 q 327 728 310 739 q 395 699 345 716 l 513 659 q 590 532 590 617 q 509 368 590 438 q 570 256 570 323 q 480 59 570 134 q 254 -16 389 -16 q 28 47 104 -16 l 90 166 q 172 123 119 141 q 268 105 224 105 q 381 137 339 105 q 424 227 424 168 q 288 328 424 297 q 162 388 213 345 q 111 487 111 431 q 138 577 111 531 q 202 635 165 623 m 298 597 q 242 525 242 568 q 273 465 242 487 q 429 415 304 443 q 454 493 454 451 q 435 544 454 524 q 388 572 417 564 q 298 597 359 580 z "},"•":{"ha":728,"x_min":172,"x_max":564,"o":"m 368 585 q 506 528 449 585 q 564 389 564 471 q 506 251 564 308 q 368 193 449 193 q 229 251 286 193 q 172 389 172 308 q 229 528 172 471 q 368 585 286 585 z "},"¶":{"ha":831,"x_min":113,"x_max":838,"o":"m 838 939 l 838 848 l 734 848 l 612 206 q 720 230 652 206 l 736 139 q 593 109 659 109 q 486 -174 550 -93 q 328 -256 422 -256 q 131 -207 178 -256 l 168 -105 q 300 -140 222 -140 q 468 113 419 -140 q 224 201 336 107 q 113 452 113 294 q 256 772 113 644 q 624 924 399 900 l 633 994 l 751 994 l 744 935 q 838 939 806 939 m 610 826 q 431 687 505 789 q 357 470 357 585 q 494 219 357 279 l 610 826 z "},"ß":{"ha":759,"x_min":-85,"x_max":732,"o":"m 176 -75 q 89 -214 161 -159 q -76 -279 18 -269 l -85 -197 q 61 -3 34 -165 l 199 786 q 260 919 218 864 q 354 999 302 973 q 469 1024 407 1024 q 631 984 572 1024 q 690 870 690 945 q 671 780 690 825 q 609 690 652 736 q 566 634 566 644 q 619 589 566 620 q 732 374 732 524 q 643 100 732 214 q 414 -14 555 -14 q 322 2 363 -14 l 364 104 q 401 98 395 98 q 541 168 489 98 q 593 341 593 237 q 579 412 593 380 q 547 462 566 444 q 470 533 528 480 q 427 615 427 574 q 463 672 427 644 q 519 720 498 701 q 553 768 541 739 q 566 833 566 798 q 467 909 566 909 q 373 866 412 909 q 311 689 334 824 l 176 -75 z "},"®":{"ha":990,"x_min":71,"x_max":986,"o":"m 71 448 q 205 771 71 637 q 529 905 340 905 q 852 771 718 905 q 986 448 986 637 q 852 125 986 259 q 529 -9 718 -9 q 205 125 340 -9 q 71 448 71 259 m 911 448 q 800 719 911 607 q 529 831 688 831 q 258 719 370 831 q 146 448 146 607 q 258 177 146 290 q 529 65 370 65 q 800 177 688 65 q 911 448 911 290 m 671 172 l 528 414 l 447 414 l 447 172 l 366 172 l 366 736 l 511 736 q 714 580 714 736 q 605 427 714 471 l 759 172 l 671 172 m 447 667 l 447 479 q 500 478 457 478 q 606 498 578 478 q 633 574 633 518 q 511 667 633 667 l 479 667 l 447 667 z "},"©":{"ha":990,"x_min":71,"x_max":986,"o":"m 71 448 q 205 771 71 637 q 529 905 340 905 q 852 771 718 905 q 986 448 986 637 q 852 125 986 259 q 529 -9 718 -9 q 205 125 340 -9 q 71 448 71 259 m 911 448 q 800 719 911 607 q 529 831 688 831 q 258 719 370 831 q 146 448 146 607 q 258 177 146 290 q 529 65 370 65 q 800 177 688 65 q 911 448 911 290 m 704 227 q 532 160 636 160 q 358 239 422 160 q 294 450 294 318 q 362 660 294 576 q 537 743 430 743 q 681 713 630 743 l 655 647 q 538 673 618 673 q 419 610 464 673 q 375 446 375 546 q 421 290 375 349 q 540 230 467 230 q 661 286 619 230 l 704 227 z "},"™":{"ha":882,"x_min":130,"x_max":915,"o":"m 338 937 l 338 500 l 271 500 l 271 937 l 130 937 l 130 998 l 487 998 l 487 937 l 338 937 m 850 501 l 794 839 l 694 498 l 654 498 l 549 844 l 497 501 l 433 501 l 509 998 l 559 998 l 674 613 l 787 998 l 838 998 l 915 501 l 850 501 z "},"´":{"ha":728,"x_min":374,"x_max":622,"o":"m 622 1057 l 469 831 l 374 831 l 488 1057 l 622 1057 z "},"¨":{"ha":728,"x_min":256,"x_max":729,"o":"m 332 985 q 386 963 364 985 q 408 909 408 941 q 386 855 408 878 q 332 833 363 833 q 278 855 300 833 q 256 909 256 878 q 278 963 256 941 q 332 985 300 985 m 652 985 q 707 963 684 985 q 729 909 729 941 q 707 855 729 878 q 652 833 684 833 q 598 855 621 833 q 576 909 576 878 q 598 963 576 941 q 652 985 621 985 z "},"≠":{"ha":728,"x_min":92,"x_max":661,"o":"m 567 713 l 661 713 l 564 594 l 661 594 l 661 498 l 486 498 l 376 363 l 661 363 l 661 268 l 298 268 l 186 131 l 93 131 l 205 268 l 92 268 l 92 363 l 282 363 l 393 498 l 92 498 l 92 594 l 470 594 l 567 713 z "},"Æ":{"ha":1204,"x_min":-56,"x_max":1262,"o":"m 530 208 l 233 208 l 102 0 l -56 0 l 597 994 l 1262 994 l 1240 871 l 788 871 l 741 595 l 1063 595 l 1042 480 l 721 480 l 657 122 l 1101 122 l 1080 0 l 494 0 l 530 208 m 643 849 l 294 309 l 548 309 l 643 849 z "},"Ø":{"ha":936,"x_min":-1,"x_max":1042,"o":"m 1042 1011 l 899 848 q 940 648 940 766 q 798 171 940 358 q 407 -17 656 -17 q 203 56 285 -17 l 143 -14 l -1 -14 l 136 142 q 86 365 86 237 q 226 819 86 627 q 589 1011 366 1011 q 836 931 747 1011 l 907 1011 l 1042 1011 m 245 264 l 743 825 q 576 890 688 890 q 328 724 425 890 q 231 384 231 558 q 245 264 231 318 m 789 722 l 296 161 q 429 105 347 105 q 697 262 597 105 q 796 634 796 418 q 789 722 796 683 z "},"∞":{"ha":728,"x_min":75,"x_max":734,"o":"m 404 404 q 242 307 326 307 q 119 346 163 307 q 75 455 75 385 q 120 560 75 519 q 233 601 165 601 q 403 513 332 601 q 576 601 474 601 q 688 560 643 601 q 734 455 734 519 q 689 346 734 385 q 567 307 644 307 q 404 404 481 307 m 445 457 q 574 376 503 376 q 662 455 662 376 q 567 534 662 534 q 445 457 515 534 m 364 457 q 242 534 294 534 q 147 455 147 534 q 235 376 147 376 q 364 457 307 376 z "},"±":{"ha":728,"x_min":102,"x_max":671,"o":"m 434 479 l 671 479 l 671 383 l 434 383 l 434 149 l 338 149 l 338 383 l 102 383 l 102 479 l 338 479 l 338 711 l 434 711 l 434 479 m 671 82 l 671 -14 l 102 -14 l 102 82 l 671 82 z "},"≤":{"ha":728,"x_min":83,"x_max":651,"o":"m 102 403 l 102 486 l 603 726 l 603 617 l 216 444 l 603 269 l 603 160 l 102 403 m 651 82 l 651 -14 l 83 -14 l 83 82 l 651 82 z "},"≥":{"ha":728,"x_min":102,"x_max":671,"o":"m 652 403 l 151 160 l 151 269 l 538 444 l 151 617 l 151 726 l 652 486 l 652 403 m 102 82 l 671 82 l 671 -14 l 102 -14 l 102 82 z "},"¥":{"ha":773,"x_min":123,"x_max":900,"o":"m 484 445 l 471 370 l 642 370 l 625 281 l 455 281 l 406 0 l 270 0 l 319 281 l 153 281 l 169 370 l 336 370 l 349 445 l 123 994 l 265 994 l 434 570 l 747 994 l 900 994 l 484 445 z "},"μ":{"ha":773,"x_min":-25,"x_max":729,"o":"m 156 12 l 104 -285 l -25 -285 l 153 726 l 281 726 l 208 304 q 200 231 200 261 q 330 99 200 99 q 457 142 409 99 q 508 200 505 186 l 600 726 l 729 726 l 602 0 l 473 0 l 490 100 q 398 17 457 47 q 275 -14 340 -14 q 156 12 202 -14 z "},"∂":{"ha":763,"x_min":52,"x_max":739,"o":"m 511 720 q 488 772 511 741 q 419 840 464 802 q 346 895 374 877 q 220 946 317 912 l 273 1052 q 607 855 475 1017 q 739 490 739 693 q 623 127 739 268 q 308 -14 507 -14 q 120 51 187 -14 q 52 225 52 115 q 183 579 52 439 q 511 720 315 720 m 565 624 q 300 522 416 632 q 184 256 184 412 q 224 146 184 190 q 321 102 264 102 q 526 217 448 102 q 604 481 604 332 q 565 624 604 577 z "},"∑":{"ha":729,"x_min":14,"x_max":769,"o":"m 339 871 l 544 501 l 185 5 l 621 5 l 621 -117 l 14 -117 l 14 5 l 381 501 l 178 885 l 178 994 l 769 994 l 769 871 l 339 871 z "},"∏":{"ha":768,"x_min":53,"x_max":906,"o":"m 363 871 l 189 -115 l 53 -115 l 227 871 l 84 871 l 106 994 l 906 994 l 884 871 l 762 871 l 589 -115 l 453 -115 l 627 871 l 363 871 z "},"π":{"ha":836,"x_min":116,"x_max":846,"o":"m 780 110 l 766 1 q 676 -14 718 -14 q 517 132 517 -14 q 522 202 517 176 l 589 618 l 360 618 l 252 0 l 121 0 l 229 618 l 116 618 l 135 726 l 846 726 l 827 618 l 720 618 l 651 208 q 646 155 646 176 q 718 88 646 88 q 780 110 747 88 z "},"∫":{"ha":728,"x_min":-119,"x_max":826,"o":"m -119 -212 l -41 -104 q 73 -170 0 -170 q 159 -119 121 -170 q 208 -6 197 -69 l 337 722 q 447 941 361 859 q 648 1024 532 1024 q 826 955 758 1024 l 754 855 q 621 909 708 909 q 481 701 518 909 l 361 16 q 261 -205 336 -126 q 74 -285 186 -285 q -119 -212 -46 -285 z "},"ª":{"ha":629,"x_min":149,"x_max":630,"o":"m 630 970 l 568 674 q 564 613 564 655 q 606 488 564 543 l 515 488 q 479 545 486 517 q 319 484 429 484 q 195 529 241 484 q 149 656 149 575 q 236 902 149 793 q 454 1011 323 1011 q 630 970 576 1011 m 532 910 q 446 930 519 930 q 318 854 379 930 q 258 665 258 777 q 348 564 258 564 q 488 729 448 564 l 532 910 z "},"º":{"ha":637,"x_min":172,"x_max":658,"o":"m 172 681 q 249 922 172 831 q 461 1012 327 1012 q 606 961 554 1012 q 658 819 658 911 q 584 575 658 666 q 375 484 509 484 q 227 537 281 484 q 172 681 172 590 m 273 687 q 305 595 273 633 q 388 558 337 558 q 511 635 467 558 q 556 816 556 711 q 448 938 556 938 q 319 868 365 938 q 273 687 273 798 z "},"Ω":{"ha":929,"x_min":11,"x_max":941,"o":"m 838 1 l 492 0 l 511 103 q 732 348 666 224 q 798 630 798 472 q 571 889 798 889 q 329 756 421 889 q 237 444 237 623 q 273 244 237 344 q 368 102 309 145 l 350 0 l 11 1 l 28 102 l 210 102 q 122 247 155 152 q 90 441 90 341 q 229 847 90 683 q 593 1011 367 1011 q 941 644 941 1011 q 867 327 941 470 q 660 102 794 184 l 856 102 l 838 1 z "},"æ":{"ha":1173,"x_min":42,"x_max":1162,"o":"m 650 343 q 645 281 645 311 q 695 143 645 191 q 836 95 745 95 q 997 154 916 95 l 983 22 q 791 -14 874 -14 q 610 68 680 -14 q 604 0 608 28 l 477 -1 q 491 104 478 26 q 401 19 462 52 q 269 -14 340 -14 q 102 50 162 -14 q 42 232 42 113 q 160 586 42 431 q 463 740 277 740 q 693 712 604 740 l 686 664 q 926 740 790 740 q 1098 693 1034 740 q 1162 562 1162 647 q 1062 375 1162 444 q 815 307 962 307 q 650 343 718 307 m 562 613 q 448 635 503 635 q 255 518 332 635 q 178 236 178 401 q 300 92 178 92 q 515 338 447 90 l 562 613 m 673 437 q 794 414 725 414 q 964 451 895 414 q 1034 555 1034 488 q 892 631 1034 631 q 763 575 823 631 q 673 437 703 518 z "},"ø":{"ha":745,"x_min":-38,"x_max":808,"o":"m 694 740 l 808 740 l 691 618 q 725 465 725 555 q 683 248 725 361 q 547 61 642 136 q 320 -14 452 -14 q 139 42 208 -14 l 85 -14 l -38 -14 l 83 111 q 50 267 50 176 q 163 601 50 462 q 453 740 277 740 q 639 683 570 740 l 694 740 m 190 221 l 549 591 q 435 635 511 635 q 297 579 357 635 q 212 437 238 524 q 185 276 185 351 q 190 221 185 246 m 585 508 l 229 136 q 339 92 268 92 q 477 149 419 92 q 562 294 536 205 q 589 458 589 382 q 585 508 589 486 z "},"¿":{"ha":510,"x_min":-23,"x_max":446,"o":"m 350 548 q 282 576 311 548 q 254 644 254 605 q 282 712 254 684 q 350 740 311 740 q 418 712 390 740 q 446 644 446 684 q 418 576 446 605 q 350 548 390 548 m 394 -229 q 180 -285 331 -285 q 32 -234 87 -285 q -23 -93 -23 -183 q 3 31 -23 -27 q 87 140 28 89 l 229 264 q 313 435 316 345 l 379 435 q 384 404 380 427 q 389 368 389 381 q 367 271 389 318 q 305 185 345 224 l 179 64 q 106 -87 106 -13 q 218 -181 106 -181 q 351 -140 300 -181 l 394 -229 z "},"¡":{"ha":510,"x_min":90,"x_max":423,"o":"m 327 548 q 259 576 287 548 q 231 644 231 604 q 259 712 231 684 q 327 740 287 740 q 395 712 367 740 q 423 644 423 684 q 395 576 423 604 q 327 548 367 548 m 323 467 q 311 140 319 226 q 292 -7 303 54 l 243 -285 l 90 -285 l 138 -7 q 275 467 160 123 l 323 467 z "},"¬":{"ha":728,"x_min":83,"x_max":651,"o":"m 651 601 l 651 271 l 555 271 l 555 505 l 83 505 l 83 601 l 651 601 z "},"√":{"ha":728,"x_min":11,"x_max":738,"o":"m 509 915 l 249 0 l 153 0 l 11 182 l 77 238 l 179 106 l 433 998 l 738 998 l 738 915 l 509 915 z "},"ƒ":{"ha":557,"x_min":-28,"x_max":634,"o":"m 610 903 q 530 922 558 922 q 373 726 407 922 l 541 726 l 530 637 l 360 637 l 245 -47 q 157 -204 229 -144 q -17 -277 85 -264 l -28 -197 q 55 -142 12 -189 q 106 -47 98 -96 l 227 637 l 124 637 l 139 726 l 239 726 q 538 1024 298 1024 q 634 1004 595 1024 l 610 903 z "},"≈":{"ha":728,"x_min":80,"x_max":724,"o":"m 168 445 q 228 553 180 509 q 336 598 277 598 q 480 553 412 598 q 570 508 547 508 q 634 520 608 508 q 690 578 659 532 l 724 566 q 661 452 707 498 q 559 405 616 405 q 429 445 494 405 q 327 486 364 486 q 195 431 235 486 l 168 445 m 80 194 q 140 302 92 258 q 248 347 189 347 q 392 302 324 347 q 481 257 459 257 q 546 269 520 257 q 602 327 571 281 l 635 315 q 573 201 618 248 q 471 154 528 154 q 341 194 406 154 q 239 235 276 235 q 107 180 146 235 l 80 194 z "},"Δ":{"ha":812,"x_min":17,"x_max":812,"o":"m 17 0 l 32 84 l 549 994 l 646 994 l 812 84 l 797 0 l 17 0 m 556 762 l 199 115 l 656 115 l 556 762 z "},"«":{"ha":728,"x_min":83,"x_max":640,"o":"m 83 363 l 91 406 l 361 572 l 346 487 l 183 380 l 311 287 l 296 202 l 83 363 m 363 363 l 370 406 l 640 572 l 625 487 l 463 380 l 590 287 l 575 202 l 363 363 z "},"»":{"ha":728,"x_min":116,"x_max":665,"o":"m 385 363 l 116 202 l 131 287 l 291 380 l 166 487 l 181 572 l 393 406 l 385 363 m 658 363 l 389 202 l 404 287 l 564 380 l 439 487 l 454 572 l 665 406 l 658 363 z "},"…":{"ha":1020,"x_min":68,"x_max":952,"o":"m 271 89 q 241 17 271 47 q 170 -14 212 -14 q 98 17 127 -14 q 68 89 68 47 q 98 161 68 131 q 170 191 127 191 q 241 161 212 191 q 271 89 271 131 m 612 89 q 582 17 612 47 q 510 -14 552 -14 q 438 17 468 -14 q 408 89 408 47 q 438 161 408 131 q 510 191 468 191 q 582 161 552 191 q 612 89 612 131 m 952 89 q 922 17 952 47 q 850 -14 892 -14 q 779 17 808 -14 q 749 89 749 47 q 779 161 749 131 q 850 191 808 191 q 922 161 892 191 q 952 89 952 131 z "}," ":{"ha":418,"x_min":0,"x_max":0,"o":""},"À":{"ha":848,"x_min":-22,"x_max":792,"o":"m 635 0 l 604 210 l 248 210 l 130 0 l -22 0 l 559 1007 l 595 1007 l 792 0 l 635 0 m 528 734 l 301 309 l 589 309 l 528 734 m 550 1075 l 444 1301 l 578 1301 l 618 1075 l 550 1075 z "},"Ã":{"ha":848,"x_min":-22,"x_max":808,"o":"m 635 0 l 604 210 l 248 210 l 130 0 l -22 0 l 559 1007 l 595 1007 l 792 0 l 635 0 m 528 734 l 301 309 l 589 309 l 528 734 m 808 1215 q 653 1075 747 1075 q 565 1101 612 1075 q 496 1127 517 1127 q 414 1075 448 1127 l 352 1075 q 414 1174 372 1132 q 502 1215 456 1215 q 599 1189 553 1215 q 666 1163 644 1163 q 749 1215 722 1163 l 808 1215 z "},"Õ":{"ha":936,"x_min":77,"x_max":931,"o":"m 77 365 q 217 819 77 627 q 580 1011 357 1011 q 841 918 751 1011 q 931 648 931 824 q 790 171 931 359 q 398 -17 648 -17 q 163 89 248 -17 q 77 365 77 195 m 222 384 q 273 180 222 255 q 420 105 324 105 q 688 262 589 105 q 787 634 787 418 q 568 890 787 890 q 319 724 416 890 q 222 384 222 558 m 863 1215 q 707 1075 802 1075 q 619 1101 667 1075 q 551 1127 572 1127 q 468 1075 503 1127 l 406 1075 q 468 1174 427 1132 q 556 1215 510 1215 q 653 1189 608 1215 q 720 1163 699 1163 q 803 1215 776 1163 l 863 1215 z "},"Œ":{"ha":1379,"x_min":34,"x_max":1418,"o":"m 939 871 l 890 595 l 1219 595 l 1198 480 l 870 480 l 806 122 l 1257 122 l 1236 0 l 650 0 l 666 94 q 355 -17 564 -17 q 119 89 203 -17 q 34 365 34 194 q 178 833 34 654 q 536 1011 322 1011 q 809 905 720 1011 l 825 994 l 1418 994 l 1396 871 l 939 871 m 178 384 q 231 185 178 266 q 376 105 284 105 q 644 251 545 105 q 744 634 744 396 q 515 889 744 889 q 276 741 374 889 q 178 384 178 592 z "},"œ":{"ha":1238,"x_min":38,"x_max":1214,"o":"m 597 120 q 309 -14 486 -14 q 109 60 179 -14 q 38 267 38 133 q 152 600 38 460 q 441 740 265 740 q 682 615 618 740 q 977 740 800 740 q 1149 693 1085 740 q 1214 562 1214 647 q 1114 375 1214 444 q 867 307 1013 307 q 703 343 770 307 q 696 281 696 311 q 747 143 696 191 q 887 95 798 95 q 1048 154 967 95 l 1035 22 q 843 -14 927 -14 q 597 120 662 -14 m 423 635 q 242 526 310 635 q 174 275 174 416 q 328 92 174 92 q 509 202 441 92 q 577 460 577 313 q 423 635 577 635 m 725 437 q 846 414 777 414 q 1017 451 947 414 q 1086 555 1086 488 q 944 631 1086 631 q 816 576 876 631 q 725 437 755 521 z "},"–":{"ha":510,"x_min":58,"x_max":427,"o":"m 58 361 l 73 450 l 427 450 l 411 361 l 58 361 z "},"—":{"ha":1020,"x_min":58,"x_max":959,"o":"m 58 361 l 72 450 l 959 450 l 945 361 l 58 361 z "},"“":{"ha":728,"x_min":177,"x_max":734,"o":"m 734 964 l 680 920 q 636 842 640 888 q 664 778 633 814 q 691 711 694 741 q 584 611 682 611 q 488 710 488 611 q 489 731 488 720 q 694 1024 505 911 l 734 964 m 423 964 l 369 920 q 325 842 329 888 q 352 778 322 814 q 380 711 382 741 q 273 611 371 611 q 177 711 177 611 q 178 731 177 720 q 383 1024 194 911 l 423 964 z "},"”":{"ha":728,"x_min":173,"x_max":730,"o":"m 730 904 q 524 611 714 724 l 484 671 l 539 715 q 583 793 579 747 q 555 857 585 821 q 528 924 526 894 q 635 1024 536 1024 q 730 925 730 1024 q 730 904 730 915 m 418 904 q 213 611 403 724 l 173 671 l 228 715 q 272 793 268 747 q 244 857 274 821 q 217 924 214 894 q 323 1024 225 1024 q 419 925 419 1024 q 418 904 419 915 z "},"‘":{"ha":510,"x_min":216,"x_max":462,"o":"m 462 964 l 408 920 q 363 842 368 888 q 391 778 361 814 q 418 711 421 741 q 311 611 410 611 q 216 710 216 611 q 216 731 216 720 q 422 1024 233 911 l 462 964 z "},"’":{"ha":510,"x_min":205,"x_max":452,"o":"m 451 904 q 245 611 435 724 l 205 671 l 260 715 q 304 793 300 747 q 277 857 307 821 q 250 924 247 894 q 356 1024 258 1024 q 452 925 452 1024 q 451 904 452 915 z "},"÷":{"ha":728,"x_min":109,"x_max":677,"o":"m 496 678 q 467 606 496 636 q 395 576 437 576 q 323 606 353 576 q 293 678 293 636 q 323 750 293 720 q 395 780 353 780 q 467 750 437 780 q 496 678 496 720 m 677 478 l 677 382 l 109 382 l 109 478 l 677 478 m 496 170 q 467 97 496 127 q 395 67 437 67 q 323 97 353 67 q 293 170 293 127 q 323 241 293 212 q 395 271 353 271 q 467 241 437 271 q 496 170 496 212 z "},"◊":{"ha":686,"x_min":32,"x_max":656,"o":"m 372 964 l 656 481 l 372 0 l 297 0 l 32 481 l 297 964 l 372 964 m 336 899 l 105 481 l 336 64 l 579 481 l 336 899 z "},"ÿ":{"ha":685,"x_min":21,"x_max":743,"o":"m 21 -285 l 21 -155 q 200 -117 147 -155 q 276 -3 253 -79 q 149 185 180 -3 l 58 726 l 199 726 l 279 199 q 334 121 290 121 l 596 726 l 743 726 l 378 -87 q 256 -237 332 -190 q 21 -285 179 -285 m 307 985 q 360 963 338 985 q 382 909 382 941 q 360 855 382 878 q 307 833 338 833 q 252 855 275 833 q 230 909 230 878 q 252 963 230 941 q 307 985 275 985 m 627 985 q 681 963 659 985 q 703 909 703 941 q 681 855 703 878 q 627 833 659 833 q 573 855 595 833 q 551 909 551 878 q 573 963 551 941 q 627 985 595 985 z "},"Ÿ":{"ha":792,"x_min":123,"x_max":900,"o":"m 484 445 l 406 0 l 270 0 l 349 445 l 123 994 l 265 994 l 434 570 l 747 994 l 900 994 l 484 445 m 368 1230 q 421 1207 399 1230 q 444 1154 444 1185 q 421 1099 444 1122 q 368 1077 399 1077 q 313 1099 336 1077 q 291 1154 291 1122 q 313 1207 291 1185 q 368 1230 336 1230 m 688 1230 q 742 1207 720 1230 q 764 1154 764 1185 q 742 1099 764 1122 q 688 1077 720 1077 q 634 1099 656 1077 q 612 1154 612 1122 q 634 1207 612 1185 q 688 1230 656 1230 z "},"⁄":{"ha":734,"x_min":3,"x_max":748,"o":"m 89 -24 l 3 -24 l 663 1011 l 748 1011 l 89 -24 z "},"€":{"ha":728,"x_min":63,"x_max":805,"o":"m 633 635 l 605 534 l 313 534 q 298 452 303 493 l 579 452 l 552 350 l 294 350 q 486 106 294 106 q 680 205 582 106 l 680 60 q 455 -17 607 -17 q 220 93 301 -17 q 148 350 148 191 l 63 350 l 63 452 l 153 452 q 164 534 157 495 l 63 534 l 63 635 l 190 635 q 336 890 233 793 q 608 997 450 997 q 805 949 710 997 l 741 831 q 600 876 683 876 q 433 791 509 876 q 344 635 370 722 l 633 635 z "},"‹":{"ha":510,"x_min":112,"x_max":389,"o":"m 112 363 l 119 406 l 389 572 l 374 487 l 212 380 l 339 287 l 324 202 l 112 363 z "},"›":{"ha":510,"x_min":111,"x_max":387,"o":"m 380 363 l 111 202 l 125 287 l 286 380 l 161 487 l 176 572 l 387 406 l 380 363 z "},"ﬁ":{"ha":884,"x_min":-28,"x_max":865,"o":"m 566 0 l 677 637 l 360 637 l 245 -47 q 157 -204 229 -144 q -17 -277 85 -264 l -28 -197 q 55 -142 12 -189 q 106 -47 98 -96 l 227 637 l 124 637 l 139 726 l 239 726 q 538 1024 298 1024 q 634 1004 595 1024 l 610 903 q 530 922 558 922 q 373 726 408 922 l 822 726 l 697 0 l 566 0 m 774 1011 q 838 985 812 1011 q 865 921 865 959 q 838 858 865 884 q 774 831 812 831 q 711 858 737 831 q 684 921 684 884 q 711 985 684 959 q 774 1011 737 1011 z "},"ﬂ":{"ha":934,"x_min":-28,"x_max":879,"o":"m 810 81 l 795 -14 q 578 148 578 -14 q 612 366 578 196 l 707 845 q 641 901 686 879 q 543 922 595 922 q 434 869 479 922 q 373 726 389 817 l 541 726 l 530 637 l 360 637 l 245 -47 q 157 -204 229 -144 q -17 -277 85 -264 l -28 -197 q 55 -142 12 -189 q 106 -47 98 -96 l 227 637 l 124 637 l 139 726 l 239 726 q 348 948 267 871 q 551 1024 429 1024 q 657 1003 604 1024 q 732 955 709 983 l 743 1024 l 879 1024 l 752 406 q 714 198 714 220 q 736 106 714 132 q 810 81 758 81 z "},"‡":{"ha":637,"x_min":-16,"x_max":686,"o":"m 604 258 l 587 163 l 336 163 l 277 -170 l 214 -233 l 176 -170 l 235 163 l -16 163 l 0 258 l 251 258 l 317 631 l 66 631 l 83 726 l 334 726 l 371 939 l 473 939 l 435 726 l 686 726 l 669 631 l 418 631 l 353 258 l 604 258 z "},"∙":{"ha":510,"x_min":139,"x_max":342,"o":"m 241 543 q 313 513 283 543 q 342 441 342 484 q 313 369 342 399 q 241 339 283 339 q 169 369 199 339 q 139 441 139 399 q 169 513 139 484 q 241 543 199 543 z "},"‚":{"ha":510,"x_min":81,"x_max":328,"o":"m 327 68 q 121 -225 311 -112 l 81 -165 l 136 -121 q 180 -43 176 -90 q 153 21 182 -16 q 125 88 123 58 q 232 188 134 188 q 328 90 328 188 q 327 68 328 79 z "},"„":{"ha":728,"x_min":47,"x_max":606,"o":"m 605 68 q 399 -225 589 -112 l 359 -165 l 414 -121 q 458 -43 454 -90 q 431 21 460 -16 q 404 88 401 58 q 511 188 412 188 q 606 88 606 188 q 605 68 606 79 m 293 68 q 87 -225 277 -112 l 47 -165 l 102 -121 q 146 -43 142 -90 q 119 21 149 -16 q 92 88 89 58 q 199 188 100 188 q 294 88 294 188 q 293 68 294 79 z "},"‰":{"ha":1267,"x_min":18,"x_max":1230,"o":"m 104 -14 l 18 -14 l 798 1011 l 883 1011 l 104 -14 m 285 545 q 132 710 132 545 q 192 914 132 828 q 373 1011 260 1011 q 485 964 446 1011 q 521 845 521 921 q 462 644 521 730 q 285 545 395 545 m 359 942 q 250 863 290 942 q 218 722 218 798 q 291 614 218 614 q 407 694 368 614 q 436 845 436 756 q 359 942 436 942 m 552 -14 q 399 151 399 -14 q 459 355 399 269 q 641 452 527 452 q 753 406 714 452 q 789 286 789 362 q 730 85 789 172 q 552 -14 663 -14 m 627 383 q 517 304 557 383 q 485 163 485 239 q 558 56 485 56 q 675 136 636 56 q 704 286 704 197 q 627 383 704 383 m 993 -14 q 840 151 840 -14 q 900 355 840 269 q 1082 452 968 452 q 1194 406 1155 452 q 1230 286 1230 362 q 1171 85 1230 172 q 993 -14 1103 -14 m 1067 383 q 958 304 998 383 q 926 163 926 239 q 999 56 926 56 q 1116 136 1077 56 q 1145 286 1145 197 q 1067 383 1145 383 z "},"Â":{"ha":848,"x_min":-22,"x_max":812,"o":"m 635 0 l 604 210 l 248 210 l 130 0 l -22 0 l 559 1007 l 595 1007 l 792 0 l 635 0 m 528 734 l 301 309 l 589 309 l 528 734 m 678 1073 l 590 1203 l 447 1073 l 330 1073 l 575 1304 l 648 1304 l 812 1073 l 678 1073 z "},"Ê":{"ha":744,"x_min":32,"x_max":808,"o":"m 328 871 l 279 595 l 608 595 l 587 480 l 259 480 l 196 122 l 646 122 l 625 0 l 32 0 l 208 994 l 808 994 l 785 871 l 328 871 m 621 1073 l 533 1203 l 390 1073 l 273 1073 l 518 1304 l 591 1304 l 755 1073 l 621 1073 z "},"Á":{"ha":848,"x_min":-22,"x_max":792,"o":"m 635 0 l 604 210 l 248 210 l 130 0 l -22 0 l 559 1007 l 595 1007 l 792 0 l 635 0 m 528 734 l 301 309 l 589 309 l 528 734 m 717 1301 l 564 1075 l 469 1075 l 583 1301 l 717 1301 z "},"Ë":{"ha":744,"x_min":32,"x_max":808,"o":"m 328 871 l 279 595 l 608 595 l 587 480 l 259 480 l 196 122 l 646 122 l 625 0 l 32 0 l 208 994 l 808 994 l 785 871 l 328 871 m 380 1230 q 434 1207 412 1230 q 456 1154 456 1185 q 434 1099 456 1122 q 380 1077 412 1077 q 326 1099 349 1077 q 304 1154 304 1122 q 326 1207 304 1185 q 380 1230 349 1230 m 701 1230 q 755 1207 732 1230 q 777 1154 777 1185 q 755 1099 777 1122 q 701 1077 732 1077 q 647 1099 669 1077 q 625 1154 625 1122 q 647 1207 625 1185 q 701 1230 669 1230 z "},"È":{"ha":744,"x_min":32,"x_max":808,"o":"m 328 871 l 279 595 l 608 595 l 587 480 l 259 480 l 196 122 l 646 122 l 625 0 l 32 0 l 208 994 l 808 994 l 785 871 l 328 871 m 525 1075 l 419 1301 l 553 1301 l 593 1075 l 525 1075 z "},"Í":{"ha":387,"x_min":51,"x_max":509,"o":"m 51 0 l 227 994 l 365 994 l 189 0 l 51 0 m 509 1301 l 355 1075 l 260 1075 l 375 1301 l 509 1301 z "},"Î":{"ha":387,"x_min":51,"x_max":551,"o":"m 51 0 l 227 994 l 365 994 l 189 0 l 51 0 m 418 1073 l 330 1203 l 186 1073 l 70 1073 l 315 1304 l 387 1304 l 551 1073 l 418 1073 z "},"Ï":{"ha":387,"x_min":51,"x_max":550,"o":"m 51 0 l 227 994 l 365 994 l 189 0 l 51 0 m 153 1230 q 207 1207 185 1230 q 229 1154 229 1185 q 207 1099 229 1122 q 153 1077 184 1077 q 99 1099 121 1077 q 77 1154 77 1122 q 99 1207 77 1185 q 153 1230 121 1230 m 473 1230 q 528 1207 505 1230 q 550 1154 550 1185 q 528 1099 550 1122 q 473 1077 505 1077 q 419 1099 441 1077 q 397 1154 397 1122 q 419 1207 397 1185 q 473 1230 441 1230 z "},"Ì":{"ha":387,"x_min":51,"x_max":365,"o":"m 51 0 l 227 994 l 365 994 l 189 0 l 51 0 m 292 1075 l 186 1301 l 320 1301 l 360 1075 l 292 1075 z "},"Ó":{"ha":936,"x_min":77,"x_max":931,"o":"m 77 365 q 217 819 77 627 q 580 1011 357 1011 q 841 918 751 1011 q 931 648 931 824 q 790 171 931 359 q 398 -17 648 -17 q 163 89 248 -17 q 77 365 77 195 m 222 384 q 273 180 222 255 q 420 105 324 105 q 688 262 589 105 q 787 634 787 418 q 568 890 787 890 q 319 724 416 890 q 222 384 222 558 m 774 1301 l 621 1075 l 526 1075 l 641 1301 l 774 1301 z "},"Ô":{"ha":936,"x_min":77,"x_max":931,"o":"m 77 365 q 217 819 77 627 q 580 1011 357 1011 q 841 918 751 1011 q 931 648 931 824 q 790 171 931 359 q 398 -17 648 -17 q 163 89 248 -17 q 77 365 77 195 m 222 384 q 273 180 222 255 q 420 105 324 105 q 688 262 589 105 q 787 634 787 418 q 568 890 787 890 q 319 724 416 890 q 222 384 222 558 m 723 1073 l 635 1203 l 492 1073 l 375 1073 l 620 1304 l 692 1304 l 857 1073 l 723 1073 z "},"Ò":{"ha":936,"x_min":77,"x_max":931,"o":"m 77 365 q 217 819 77 627 q 580 1011 357 1011 q 841 918 751 1011 q 931 648 931 824 q 790 171 931 359 q 398 -17 648 -17 q 163 89 248 -17 q 77 365 77 195 m 222 384 q 273 180 222 255 q 420 105 324 105 q 688 262 589 105 q 787 634 787 418 q 568 890 787 890 q 319 724 416 890 q 222 384 222 558 m 626 1075 l 520 1301 l 654 1301 l 694 1075 l 626 1075 z "},"Ú":{"ha":901,"x_min":91,"x_max":917,"o":"m 220 994 l 362 994 l 240 313 q 236 271 236 291 q 282 150 236 194 q 409 105 329 105 q 573 161 508 105 q 656 317 638 218 l 777 994 l 917 994 l 795 302 q 660 67 768 152 q 389 -17 551 -17 q 171 50 251 -17 q 91 227 91 117 q 98 303 91 263 l 220 994 m 758 1301 l 604 1075 l 509 1075 l 624 1301 l 758 1301 z "},"Û":{"ha":901,"x_min":91,"x_max":917,"o":"m 220 994 l 362 994 l 240 313 q 236 271 236 291 q 282 150 236 194 q 409 105 329 105 q 573 161 508 105 q 656 317 638 218 l 777 994 l 917 994 l 795 302 q 660 67 768 152 q 389 -17 551 -17 q 171 50 251 -17 q 91 227 91 117 q 98 303 91 263 l 220 994 m 692 1073 l 604 1203 l 460 1073 l 344 1073 l 589 1304 l 661 1304 l 825 1073 l 692 1073 z "},"Ù":{"ha":901,"x_min":91,"x_max":917,"o":"m 220 994 l 362 994 l 240 313 q 236 271 236 291 q 282 150 236 194 q 409 105 329 105 q 573 161 508 105 q 656 317 638 218 l 777 994 l 917 994 l 795 302 q 660 67 768 152 q 389 -17 551 -17 q 171 50 251 -17 q 91 227 91 117 q 98 303 91 263 l 220 994 m 577 1075 l 471 1301 l 605 1301 l 645 1075 l 577 1075 z "},"ı":{"ha":426,"x_min":94,"x_max":353,"o":"m 94 0 l 203 618 l 107 618 l 131 724 l 353 724 l 224 0 l 94 0 z "},"ˆ":{"ha":728,"x_min":201,"x_max":683,"o":"m 549 829 l 461 959 l 318 829 l 201 829 l 446 1060 l 519 1060 l 683 829 l 549 829 z "},"˜":{"ha":728,"x_min":243,"x_max":700,"o":"m 700 971 q 545 831 639 831 q 456 857 504 831 q 388 883 409 883 q 305 831 340 883 l 243 831 q 306 929 264 888 q 393 971 347 971 q 490 945 445 971 q 557 919 536 919 q 640 971 613 919 l 700 971 z "},"ˉ":{"ha":728,"x_min":189,"x_max":706,"o":"m 706 926 l 689 831 l 189 831 l 205 926 l 706 926 z "},"˘":{"ha":728,"x_min":283,"x_max":737,"o":"m 737 1051 q 471 831 699 831 q 283 1002 283 831 q 288 1051 283 1025 l 383 1051 q 378 1015 378 1031 q 490 935 378 935 q 640 1051 620 935 l 737 1051 z "},"˙":{"ha":728,"x_min":421,"x_max":581,"o":"m 500 990 q 557 967 533 990 q 581 911 581 943 q 557 854 581 878 q 500 831 533 831 q 444 854 467 831 q 421 911 421 878 q 444 967 421 944 q 500 990 467 990 z "},"˚":{"ha":728,"x_min":306,"x_max":607,"o":"m 456 829 q 347 861 389 829 q 306 949 306 892 q 352 1034 306 998 q 456 1069 398 1069 q 563 1036 519 1069 q 607 949 607 1002 q 565 862 607 895 q 456 829 524 829 m 456 1010 q 393 992 420 1010 q 366 949 366 975 q 456 888 366 888 q 521 905 494 888 q 548 949 548 921 q 520 993 548 977 q 456 1010 493 1010 z "},"¸":{"ha":728,"x_min":199,"x_max":421,"o":"m 204 -309 l 199 -241 q 298 -220 258 -241 q 338 -159 338 -198 q 285 -119 338 -119 l 299 -38 q 390 -68 358 -38 q 421 -147 421 -98 q 359 -266 421 -223 q 204 -309 297 -309 z "},"˝":{"ha":728,"x_min":264,"x_max":745,"o":"m 494 1023 l 359 831 l 264 831 l 360 1023 l 494 1023 m 745 1023 l 610 831 l 515 831 l 611 1023 l 745 1023 z "},"˛":{"ha":728,"x_min":239,"x_max":511,"o":"m 511 -128 l 511 -229 q 397 -253 441 -253 q 283 -215 328 -253 q 239 -116 239 -178 q 415 109 239 21 l 435 0 q 352 -102 352 -38 q 417 -154 352 -154 q 511 -128 462 -154 z "},"ˇ":{"ha":728,"x_min":244,"x_max":725,"o":"m 725 1059 l 476 831 l 404 831 l 244 1059 l 361 1059 l 458 932 l 591 1059 l 725 1059 z "},"Ł":{"ha":703,"x_min":35,"x_max":666,"o":"m 35 526 l 158 571 l 233 994 l 371 994 l 306 626 l 408 664 l 408 574 l 289 531 l 217 122 l 666 122 l 644 0 l 57 0 l 142 477 l 35 439 l 35 526 z "},"ł":{"ha":410,"x_min":45,"x_max":408,"o":"m 390 1024 l 315 659 l 408 705 l 408 626 l 298 574 l 263 406 q 225 198 225 220 q 247 106 225 132 q 321 81 269 81 l 307 -14 q 90 148 90 -14 q 123 366 90 195 l 151 509 l 45 462 l 45 540 l 168 593 l 254 1024 l 390 1024 z "},"Š":{"ha":668,"x_min":59,"x_max":707,"o":"m 59 32 l 100 162 q 187 123 129 139 q 298 106 245 106 q 428 146 379 106 q 477 254 477 185 q 440 356 477 312 q 314 465 403 400 q 184 585 224 529 q 143 724 143 640 q 228 934 143 858 q 448 1010 313 1010 q 651 984 601 1010 l 612 852 q 549 882 593 868 q 465 895 504 895 q 328 856 378 895 q 278 743 278 817 q 294 682 278 711 q 337 630 310 653 q 449 543 364 606 q 573 415 533 480 q 612 262 612 349 q 522 55 612 127 q 283 -17 431 -17 q 163 -2 230 -17 q 59 32 97 13 m 707 1263 l 458 1034 l 385 1034 l 226 1263 l 342 1263 l 440 1135 l 573 1263 l 707 1263 z "},"š":{"ha":562,"x_min":6,"x_max":675,"o":"m 6 43 l 73 165 q 149 117 100 139 q 234 95 199 95 q 334 127 294 95 q 373 216 373 160 q 352 267 373 244 q 281 318 332 289 l 185 371 q 119 434 141 396 q 97 516 97 473 q 176 679 97 617 q 369 740 254 740 q 560 690 448 740 l 503 570 q 359 631 436 631 q 272 605 309 631 q 235 536 235 579 q 256 483 235 505 q 328 433 277 460 l 423 381 q 489 320 467 357 q 511 239 511 283 q 426 54 511 122 q 212 -14 342 -14 q 6 43 97 -14 m 675 1059 l 426 831 l 353 831 l 194 1059 l 311 1059 l 408 932 l 541 1059 l 675 1059 z "},"Ž":{"ha":764,"x_min":54,"x_max":803,"o":"m 54 0 l 54 34 l 608 871 l 188 871 l 209 994 l 803 994 l 803 960 l 268 122 l 684 122 l 663 0 l 54 0 m 772 1263 l 523 1034 l 450 1034 l 291 1263 l 408 1263 l 505 1135 l 638 1263 l 772 1263 z "},"ž":{"ha":659,"x_min":5,"x_max":712,"o":"m 228 115 l 589 115 l 569 0 l 5 0 l 5 34 l 451 611 l 79 611 l 99 726 l 666 726 l 666 690 l 228 115 m 712 1059 l 463 831 l 391 831 l 231 1059 l 348 1059 l 446 932 l 578 1059 l 712 1059 z "},"¦":{"ha":728,"x_min":340,"x_max":439,"o":"m 340 471 l 340 961 l 439 961 l 439 471 l 340 471 m 340 -187 l 340 303 l 439 303 l 439 -187 l 340 -187 z "},"Ð":{"ha":852,"x_min":22,"x_max":846,"o":"m 149 588 l 220 994 q 389 1009 304 1009 q 726 908 606 1009 q 846 609 846 807 q 680 160 846 320 q 262 0 515 0 l 45 0 l 130 477 l 22 477 l 41 588 l 149 588 m 441 588 l 422 477 l 267 477 l 208 128 q 284 123 247 123 q 586 262 472 123 q 700 616 700 401 q 618 814 700 740 q 416 888 536 888 q 334 877 373 888 l 285 588 l 441 588 z "},"ð":{"ha":763,"x_min":41,"x_max":722,"o":"m 336 849 l 454 906 q 361 1025 435 935 l 500 1051 q 570 962 525 1022 l 688 1021 l 722 973 l 601 908 q 687 704 652 822 q 721 481 721 587 q 612 123 721 260 q 313 -14 504 -14 q 111 61 181 -14 q 41 268 41 136 q 155 608 41 476 q 452 740 268 740 q 549 720 475 740 q 486 852 526 779 l 366 791 l 336 849 m 171 275 q 333 102 171 102 q 515 203 448 102 q 582 452 582 305 q 432 625 582 625 q 243 520 315 625 q 171 275 171 416 z "},"Ý":{"ha":792,"x_min":123,"x_max":900,"o":"m 484 445 l 406 0 l 270 0 l 349 445 l 123 994 l 265 994 l 434 570 l 747 994 l 900 994 l 484 445 m 686 1260 l 533 1034 l 438 1034 l 553 1260 l 686 1260 z "},"Þ":{"ha":755,"x_min":34,"x_max":758,"o":"m 208 213 l 170 0 l 34 0 l 209 994 l 345 994 l 323 865 q 428 874 375 874 q 669 801 580 874 q 758 593 758 727 q 354 197 758 197 q 208 213 282 197 m 301 743 l 229 335 q 357 314 292 314 q 547 383 479 314 q 614 575 614 452 q 415 757 614 757 q 301 743 361 757 z "},"þ":{"ha":774,"x_min":-10,"x_max":747,"o":"m 176 37 l 119 -288 l -10 -288 l 214 1024 l 349 1024 l 279 644 q 368 710 311 684 q 476 736 425 736 q 747 467 747 736 q 632 122 747 261 q 332 -17 518 -17 q 240 -1 292 -17 q 176 37 189 14 m 195 143 q 244 106 207 121 q 314 92 281 92 q 533 188 456 92 q 610 450 610 283 q 429 628 610 628 q 338 601 390 628 q 264 543 286 573 l 195 143 z "},"−":{"ha":728,"x_min":83,"x_max":651,"o":"m 651 479 l 651 383 l 83 383 l 83 479 l 651 479 z "},"¹":{"ha":627,"x_min":224,"x_max":478,"o":"m 282 404 l 365 861 l 224 785 l 237 861 q 454 1002 382 928 l 478 1002 l 372 404 l 282 404 z "},"²":{"ha":627,"x_min":159,"x_max":570,"o":"m 159 404 l 162 420 l 392 701 q 479 870 479 806 q 405 935 479 935 q 276 850 333 935 l 231 893 q 309 977 257 943 q 414 1010 360 1010 q 570 892 570 1010 q 472 678 570 798 l 313 484 l 540 484 l 526 404 l 159 404 z "},"³":{"ha":627,"x_min":139,"x_max":533,"o":"m 139 446 l 191 515 q 285 478 218 478 q 378 510 342 478 q 414 597 414 541 q 314 685 414 685 l 307 685 l 319 754 l 323 754 q 410 785 377 754 q 442 867 442 815 q 360 929 442 929 q 271 899 302 929 l 245 961 q 381 1010 292 1010 q 492 976 451 1010 q 533 887 533 942 q 498 786 533 832 q 415 722 464 740 q 503 601 503 692 q 447 458 503 519 q 269 397 391 397 q 139 446 182 397 z "},"½":{"ha":1131,"x_min":142,"x_max":1050,"o":"m 201 404 l 283 861 l 142 785 l 156 861 q 372 1002 301 928 l 397 1002 l 291 404 l 201 404 m 267 -24 l 180 -24 l 840 1011 l 926 1011 l 267 -24 m 640 0 l 642 16 l 872 297 q 959 467 959 403 q 885 531 959 531 q 756 447 813 531 l 711 490 q 789 573 737 540 q 895 607 840 607 q 1050 488 1050 607 q 952 275 1050 395 l 793 80 l 1020 80 l 1006 0 l 640 0 z "},"¼":{"ha":1131,"x_min":133,"x_max":1038,"o":"m 191 404 l 274 861 l 133 785 l 146 861 q 363 1002 292 928 l 387 1002 l 281 404 l 191 404 m 256 -24 l 170 -24 l 830 1011 l 916 1011 l 256 -24 m 958 142 l 932 0 l 844 0 l 869 142 l 595 142 l 604 189 l 1010 599 l 1038 599 l 970 212 l 1031 212 l 1018 142 l 958 142 m 921 422 l 711 212 l 882 212 l 921 422 z "},"¾":{"ha":1131,"x_min":92,"x_max":1082,"o":"m 92 446 l 144 515 q 237 478 170 478 q 331 510 295 478 q 367 597 367 541 q 267 685 367 685 l 260 685 l 272 754 l 276 754 q 362 785 330 754 q 395 867 395 815 q 313 929 395 929 q 224 899 255 929 l 198 961 q 334 1010 244 1010 q 445 976 404 1010 q 486 887 486 942 q 451 786 486 832 q 368 722 416 740 q 455 601 455 692 q 399 458 455 519 q 222 397 344 397 q 92 446 134 397 m 349 -24 l 263 -24 l 923 1011 l 1008 1011 l 349 -24 m 1001 142 l 976 0 l 888 0 l 913 142 l 639 142 l 647 189 l 1053 599 l 1082 599 l 1013 212 l 1074 212 l 1061 142 l 1001 142 m 964 422 l 754 212 l 925 212 l 964 422 z "},"µ":{"ha":773,"x_min":-25,"x_max":729,"o":"m 156 12 l 104 -285 l -25 -285 l 153 726 l 281 726 l 208 304 q 200 231 200 261 q 330 99 200 99 q 457 142 409 99 q 508 200 505 186 l 600 726 l 729 726 l 602 0 l 473 0 l 490 100 q 398 17 457 47 q 275 -14 340 -14 q 156 12 202 -14 z "},"Ω":{"ha":929,"x_min":11,"x_max":941,"o":"m 838 1 l 492 0 l 511 103 q 732 348 666 224 q 798 630 798 472 q 571 889 798 889 q 329 756 421 889 q 237 444 237 623 q 273 244 237 344 q 368 102 309 145 l 350 0 l 11 1 l 28 102 l 210 102 q 122 247 155 152 q 90 441 90 341 q 229 847 90 683 q 593 1011 367 1011 q 941 644 941 1011 q 867 327 941 470 q 660 102 794 184 l 856 102 l 838 1 z "},"∆":{"ha":812,"x_min":-18,"x_max":777,"o":"m -18 0 l -3 84 l 513 994 l 611 994 l 777 84 l 762 0 l -18 0 m 521 762 l 163 115 l 621 115 l 521 762 z "},"ý":{"ha":685,"x_min":21,"x_max":743,"o":"m 21 -285 l 21 -155 q 200 -117 147 -155 q 276 -3 253 -79 q 149 185 180 -3 l 58 726 l 199 726 l 279 199 q 334 121 290 121 l 596 726 l 743 726 l 378 -87 q 256 -237 332 -190 q 21 -285 179 -285 m 608 1057 l 455 831 l 360 831 l 475 1057 l 608 1057 z "},"×":{"ha":728,"x_min":83,"x_max":652,"o":"m 369 494 l 584 709 l 652 642 l 437 427 l 650 213 l 582 145 l 369 359 l 154 144 l 86 211 l 301 426 l 83 644 l 151 711 l 369 494 z "},"­":{"ha":510,"x_min":98,"x_max":408,"o":"m 98 343 l 118 462 l 408 462 l 388 343 l 98 343 z "},"₣":{"ha":1308,"x_min":37,"x_max":1332,"o":"m 334 871 l 285 595 l 634 595 l 614 480 l 264 480 l 180 0 l 37 0 l 215 994 l 833 994 l 812 871 l 334 871 m 1295 599 q 1200 631 1255 631 q 1069 568 1132 631 q 991 416 1007 505 l 918 0 l 789 0 l 917 726 l 1046 726 l 1025 610 q 1258 740 1119 740 q 1332 730 1282 740 l 1295 599 z "},"Ğ":{"ha":939,"x_min":76,"x_max":880,"o":"m 865 954 l 825 824 q 636 888 738 888 q 337 747 454 888 q 220 392 220 606 q 491 105 220 105 q 678 170 600 105 l 720 403 l 582 403 l 602 518 l 876 518 l 799 85 q 441 -17 659 -17 q 76 366 76 -17 q 238 831 76 651 q 662 1010 400 1010 q 865 954 808 1010 m 880 1295 q 614 1075 841 1075 q 425 1246 425 1075 q 430 1295 425 1270 l 526 1295 q 521 1259 521 1276 q 633 1179 521 1179 q 783 1295 762 1179 l 880 1295 z "},"ğ":{"ha":697,"x_min":-9,"x_max":760,"o":"m -9 -203 l 52 -109 q 258 -171 176 -171 q 407 -138 347 -171 q 467 -45 467 -104 q 447 4 467 -15 q 378 32 427 24 l 259 52 q 186 126 186 71 q 302 216 186 171 l 279 216 q 140 275 200 216 q 80 418 80 334 q 172 650 80 560 q 406 740 263 740 q 567 691 508 740 l 628 760 l 699 687 l 632 617 q 652 530 652 589 q 593 330 652 413 q 438 213 534 246 q 343 150 343 179 q 369 126 343 126 q 397 129 378 126 q 425 132 416 132 q 595 -21 595 132 q 488 -213 595 -141 q 234 -285 381 -285 q -9 -203 85 -285 m 396 636 q 265 575 318 636 q 212 433 212 515 q 323 285 212 285 q 458 359 399 285 q 516 517 516 433 q 484 604 516 572 q 396 636 451 636 m 760 1051 q 494 831 721 831 q 305 1002 305 831 q 310 1051 305 1025 l 406 1051 q 401 1015 401 1031 q 513 935 401 935 q 663 1051 642 935 l 760 1051 z "},"İ":{"ha":387,"x_min":51,"x_max":380,"o":"m 51 0 l 227 994 l 365 994 l 189 0 l 51 0 m 300 1194 q 357 1170 333 1194 q 380 1114 380 1147 q 357 1058 380 1081 q 300 1034 333 1034 q 244 1058 267 1034 q 221 1114 221 1081 q 244 1171 221 1147 q 300 1194 267 1194 z "},"Ş":{"ha":668,"x_min":59,"x_max":651,"o":"m 59 32 l 100 162 q 187 123 129 139 q 298 106 245 106 q 428 146 379 106 q 477 254 477 185 q 440 356 477 312 q 314 465 403 400 q 184 585 224 529 q 143 724 143 640 q 228 934 143 858 q 448 1010 313 1010 q 651 984 601 1010 l 612 852 q 549 882 593 868 q 465 895 504 895 q 328 856 378 895 q 278 743 278 817 q 294 682 278 711 q 337 630 310 653 q 449 543 364 606 q 573 415 533 480 q 612 262 612 349 q 522 55 612 127 q 283 -17 431 -17 q 163 -2 230 -17 q 59 32 97 13 m 64 -309 l 59 -241 q 159 -220 119 -241 q 199 -159 199 -198 q 145 -119 199 -119 l 159 -38 q 250 -68 218 -38 q 281 -147 281 -98 q 219 -266 281 -223 q 64 -309 157 -309 z "},"ş":{"ha":562,"x_min":6,"x_max":560,"o":"m 6 43 l 73 165 q 149 117 100 139 q 234 95 199 95 q 334 127 294 95 q 373 216 373 160 q 352 267 373 244 q 281 318 332 289 l 185 371 q 119 434 141 396 q 97 516 97 473 q 176 679 97 617 q 369 740 254 740 q 560 690 448 740 l 503 570 q 359 631 436 631 q 272 605 309 631 q 235 536 235 579 q 256 483 235 505 q 328 433 277 460 l 423 381 q 489 320 467 357 q 511 239 511 283 q 426 54 511 122 q 212 -14 342 -14 q 6 43 97 -14 m 66 -309 l 61 -241 q 161 -220 121 -241 q 201 -159 201 -198 q 147 -119 201 -119 l 161 -38 q 252 -68 220 -38 q 283 -147 283 -98 q 221 -266 283 -223 q 66 -309 159 -309 z "},"Ć":{"ha":831,"x_min":96,"x_max":817,"o":"m 817 979 l 779 846 q 618 890 722 890 q 349 730 458 890 q 239 385 239 570 q 472 105 239 105 q 705 203 592 105 l 694 60 q 436 -17 611 -17 q 184 83 273 -17 q 96 360 96 184 q 244 822 96 633 q 627 1010 392 1010 q 817 979 745 1010 m 764 1301 l 611 1075 l 516 1075 l 631 1301 l 764 1301 z "},"ć":{"ha":639,"x_min":61,"x_max":629,"o":"m 629 703 l 606 593 q 475 631 557 631 q 273 533 350 631 q 196 290 196 434 q 246 150 196 202 q 359 97 296 97 q 548 157 458 97 l 534 26 q 339 -14 445 -14 q 133 63 205 -14 q 61 268 61 140 q 175 608 61 475 q 465 740 289 740 q 629 703 570 740 m 616 1057 l 463 831 l 368 831 l 483 1057 l 616 1057 z "},"Č":{"ha":831,"x_min":96,"x_max":867,"o":"m 817 979 l 779 846 q 618 890 722 890 q 349 730 458 890 q 239 385 239 570 q 472 105 239 105 q 705 203 592 105 l 694 60 q 436 -17 611 -17 q 184 83 273 -17 q 96 360 96 184 q 244 822 96 633 q 627 1010 392 1010 q 817 979 745 1010 m 867 1303 l 618 1075 l 546 1075 l 387 1303 l 503 1303 l 601 1176 l 734 1303 l 867 1303 z "},"č":{"ha":639,"x_min":61,"x_max":692,"o":"m 629 703 l 606 593 q 475 631 557 631 q 273 533 350 631 q 196 290 196 434 q 246 150 196 202 q 359 97 296 97 q 548 157 458 97 l 534 26 q 339 -14 445 -14 q 133 63 205 -14 q 61 268 61 140 q 175 608 61 475 q 465 740 289 740 q 629 703 570 740 m 692 1059 l 444 831 l 371 831 l 212 1059 l 328 1059 l 426 932 l 559 1059 l 692 1059 z "},"đ":{"ha":774,"x_min":56,"x_max":865,"o":"m 810 1024 l 789 903 l 865 903 l 848 814 l 773 814 l 633 0 l 505 0 l 521 83 q 307 -13 443 -13 q 122 59 189 -13 q 56 256 56 130 q 170 604 56 470 q 460 739 284 739 q 618 653 564 739 l 648 814 l 441 814 l 456 903 l 665 903 l 687 1024 l 810 1024 m 595 525 q 577 563 596 532 q 530 612 558 594 q 472 630 503 630 q 273 533 352 630 q 195 283 195 435 q 352 92 195 92 q 486 162 424 92 q 565 343 547 232 l 595 525 z "},"¯":{"ha":728,"x_min":-5,"x_max":730,"o":"m -5 1048 l -5 1136 l 730 1136 l 730 1048 l -5 1048 z "},"·":{"ha":510,"x_min":139,"x_max":342,"o":"m 241 543 q 313 513 283 543 q 342 441 342 484 q 313 369 342 399 q 241 339 283 339 q 169 369 199 339 q 139 441 139 399 q 169 513 139 484 q 241 543 199 543 z "},"Ă":{"ha":848,"x_min":-22,"x_max":825,"o":"m 635 0 l 604 210 l 248 210 l 130 0 l -22 0 l 559 1007 l 595 1007 l 792 0 l 635 0 m 528 734 l 301 309 l 589 309 l 528 734 m 825 1295 q 559 1075 787 1075 q 371 1246 371 1075 q 376 1295 371 1270 l 471 1295 q 467 1259 467 1276 q 578 1179 467 1179 q 728 1295 708 1179 l 825 1295 z "},"ă":{"ha":730,"x_min":42,"x_max":766,"o":"m 713 681 l 625 258 q 619 196 619 233 q 652 0 619 90 l 521 0 q 498 73 510 22 q 403 11 466 35 q 269 -14 340 -14 q 102 50 162 -14 q 42 232 42 113 q 160 586 42 431 q 463 740 277 740 q 713 681 637 740 m 571 606 q 448 635 553 635 q 259 521 340 635 q 178 236 178 407 q 307 92 178 92 q 433 161 374 92 q 515 339 492 231 l 571 606 m 766 1051 q 500 831 727 831 q 311 1002 311 831 q 316 1051 311 1025 l 412 1051 q 407 1015 407 1031 q 519 935 407 935 q 669 1051 648 935 l 766 1051 z "},"Ą":{"ha":848,"x_min":-22,"x_max":792,"o":"m 787 -229 q 672 -253 718 -253 q 559 -216 603 -253 q 515 -116 515 -178 q 625 69 515 -11 l 604 210 l 248 210 l 130 0 l -22 0 l 559 1007 l 595 1007 l 792 0 l 711 0 q 664 -30 701 0 q 627 -102 627 -59 q 692 -154 627 -154 q 787 -128 738 -154 l 787 -229 m 589 309 l 528 734 l 301 309 l 589 309 z "},"ą":{"ha":730,"x_min":57,"x_max":742,"o":"m 742 -128 l 742 -229 q 627 -253 672 -253 q 514 -215 558 -253 q 469 -116 469 -178 q 530 33 469 -32 q 512 73 517 51 q 417 11 480 35 q 284 -14 354 -14 q 117 50 176 -14 q 57 232 57 113 q 175 586 57 431 q 477 740 292 740 q 728 681 652 740 l 639 258 q 633 196 633 233 q 680 0 633 109 l 666 0 q 619 -30 656 0 q 583 -102 583 -59 q 648 -154 583 -154 q 742 -128 692 -154 m 585 606 q 463 635 567 635 q 274 520 355 635 q 193 236 193 406 q 321 92 193 92 q 447 161 389 92 q 529 339 506 231 l 585 606 z "},"Ď":{"ha":852,"x_min":45,"x_max":846,"o":"m 262 0 l 45 0 l 220 994 q 389 1009 304 1009 q 726 908 606 1009 q 846 609 846 807 q 680 160 846 320 q 262 0 515 0 m 334 877 l 208 128 q 284 123 247 123 q 586 262 472 123 q 700 616 700 401 q 618 814 700 740 q 416 888 536 888 q 334 877 373 888 m 746 1303 l 497 1075 l 425 1075 l 265 1303 l 382 1303 l 479 1176 l 612 1303 l 746 1303 z "},"ď":{"ha":960,"x_min":43,"x_max":1007,"o":"m 494 0 l 509 83 q 294 -13 431 -13 q 110 59 176 -13 q 43 256 43 132 q 157 603 43 468 q 449 739 271 739 q 607 653 552 739 l 675 1024 l 798 1024 l 621 0 l 494 0 m 583 525 q 565 563 585 531 q 518 612 546 594 q 460 630 491 630 q 261 533 340 630 q 182 283 182 435 q 340 92 182 92 q 473 162 412 92 q 553 343 535 232 l 583 525 m 860 741 l 833 787 q 896 839 888 823 q 903 871 903 855 q 885 912 903 888 q 866 954 866 935 q 932 1024 866 1024 q 1007 946 1007 1024 q 966 828 1007 884 q 860 741 924 771 z "},"Đ":{"ha":852,"x_min":22,"x_max":846,"o":"m 149 588 l 220 994 q 389 1009 304 1009 q 726 908 606 1009 q 846 609 846 807 q 680 160 846 320 q 262 0 515 0 l 45 0 l 130 477 l 22 477 l 41 588 l 149 588 m 441 588 l 422 477 l 267 477 l 208 128 q 284 123 247 123 q 586 262 472 123 q 700 616 700 401 q 618 814 700 740 q 416 888 536 888 q 334 877 373 888 l 285 588 l 441 588 z "},"Ę":{"ha":744,"x_min":32,"x_max":808,"o":"m 579 -128 l 579 -229 q 465 -253 509 -253 q 351 -215 395 -253 q 307 -116 307 -178 q 346 0 307 -54 l 32 0 l 208 994 l 808 994 l 786 871 l 328 871 l 279 595 l 608 595 l 587 480 l 259 480 l 196 122 l 646 122 l 625 0 l 503 0 q 456 -30 493 0 q 420 -102 420 -59 q 485 -154 420 -154 q 579 -128 530 -154 z "},"ę":{"ha":746,"x_min":71,"x_max":722,"o":"m 511 -229 q 397 -253 441 -253 q 283 -215 328 -253 q 239 -116 239 -178 q 271 -5 239 -52 q 71 301 71 37 q 189 613 71 486 q 486 740 307 740 q 658 694 593 740 q 722 562 722 648 q 622 375 722 444 q 375 307 522 307 q 211 343 278 307 q 205 281 205 311 q 255 143 205 191 q 395 95 305 95 q 557 154 475 95 l 543 22 q 414 -10 463 -4 q 352 -102 352 -43 q 417 -154 352 -154 q 511 -128 462 -154 l 511 -229 m 233 437 q 355 414 285 414 q 528 448 460 414 q 595 548 595 482 q 479 631 595 631 q 233 437 304 631 z "},"Ě":{"ha":744,"x_min":32,"x_max":808,"o":"m 328 871 l 279 595 l 608 595 l 587 480 l 259 480 l 196 122 l 646 122 l 625 0 l 32 0 l 208 994 l 808 994 l 785 871 l 328 871 m 786 1303 l 537 1075 l 465 1075 l 305 1303 l 422 1303 l 519 1176 l 652 1303 l 786 1303 z "},"ě":{"ha":746,"x_min":71,"x_max":759,"o":"m 211 343 q 205 281 205 311 q 255 143 205 191 q 395 95 305 95 q 557 154 475 95 l 543 22 q 351 -14 435 -14 q 71 301 71 -14 q 189 613 71 486 q 486 740 307 740 q 658 694 593 740 q 722 562 722 648 q 622 375 722 444 q 376 307 522 307 q 211 343 278 307 m 233 437 q 355 414 285 414 q 528 448 460 414 q 595 548 595 482 q 479 631 595 631 q 233 437 304 631 m 759 1059 l 510 831 l 437 831 l 278 1059 l 395 1059 l 492 932 l 625 1059 l 759 1059 z "},"Ĺ":{"ha":703,"x_min":57,"x_max":666,"o":"m 57 0 l 233 994 l 371 994 l 217 122 l 666 122 l 644 0 l 57 0 m 527 1301 l 374 1075 l 279 1075 l 393 1301 l 527 1301 z "},"ĺ":{"ha":445,"x_min":99,"x_max":534,"o":"m 332 81 l 317 -14 q 99 148 99 -14 q 133 366 99 197 l 263 1024 l 397 1024 l 273 406 q 235 164 235 213 q 332 81 235 81 m 534 1301 l 380 1075 l 286 1075 l 400 1301 l 534 1301 z "},"Ľ":{"ha":703,"x_min":57,"x_max":694,"o":"m 57 0 l 233 994 l 371 994 l 217 122 l 666 122 l 644 0 l 57 0 m 547 728 l 519 774 q 583 826 575 810 q 590 858 590 842 q 571 899 590 876 q 553 941 553 922 q 618 1011 553 1011 q 694 933 694 1011 q 652 815 694 871 q 547 728 611 758 z "},"ľ":{"ha":445,"x_min":90,"x_max":603,"o":"m 322 81 l 307 -14 q 90 148 90 -14 q 123 366 90 197 l 254 1024 l 388 1024 l 264 406 q 225 164 225 213 q 322 81 225 81 m 456 741 l 429 787 q 492 839 484 823 q 499 871 499 855 q 480 912 499 888 q 462 954 462 935 q 528 1024 462 1024 q 603 946 603 1024 q 562 828 603 884 q 456 741 520 771 z "},"Ŀ":{"ha":703,"x_min":57,"x_max":666,"o":"m 57 0 l 233 994 l 371 994 l 217 122 l 666 122 l 644 0 l 57 0 m 586 536 q 642 512 618 536 q 666 456 666 489 q 642 400 666 423 q 586 376 618 376 q 530 400 553 376 q 507 456 507 423 q 530 513 507 490 q 586 536 553 536 z "},"ŀ":{"ha":703,"x_min":99,"x_max":651,"o":"m 332 81 l 317 -14 q 99 148 99 -14 q 133 366 99 197 l 263 1024 l 397 1024 l 273 406 q 235 164 235 213 q 332 81 235 81 m 571 563 q 627 539 604 563 q 651 484 651 516 q 627 427 651 450 q 571 404 604 404 q 515 427 538 404 q 492 484 492 450 q 515 540 492 517 q 571 563 538 563 z "},"Ń":{"ha":886,"x_min":40,"x_max":899,"o":"m 680 -14 l 292 692 l 176 0 l 40 0 l 216 994 l 270 994 l 650 317 l 764 994 l 899 994 l 721 -14 l 680 -14 m 703 1301 l 550 1075 l 455 1075 l 570 1301 l 703 1301 z "},"ń":{"ha":759,"x_min":53,"x_max":718,"o":"m 494 0 l 570 422 q 580 516 580 479 q 460 631 580 631 q 361 604 414 631 q 277 540 309 577 l 183 0 l 53 0 l 151 551 q 154 595 154 570 q 140 715 154 665 l 264 740 q 282 632 283 641 q 521 740 365 740 q 718 539 718 740 q 709 450 718 499 l 631 0 l 494 0 m 694 1057 l 541 831 l 446 831 l 561 1057 l 694 1057 z "},"Ň":{"ha":886,"x_min":40,"x_max":899,"o":"m 680 -14 l 292 692 l 176 0 l 40 0 l 216 994 l 270 994 l 650 317 l 764 994 l 899 994 l 721 -14 l 680 -14 m 833 1303 l 585 1075 l 512 1075 l 353 1303 l 469 1303 l 567 1176 l 700 1303 l 833 1303 z "},"ň":{"ha":759,"x_min":53,"x_max":764,"o":"m 494 0 l 570 422 q 580 516 580 479 q 460 631 580 631 q 361 604 414 631 q 277 540 309 577 l 183 0 l 53 0 l 151 551 q 154 595 154 570 q 140 715 154 665 l 264 740 q 282 632 283 641 q 521 740 365 740 q 718 539 718 740 q 709 450 718 499 l 631 0 l 494 0 m 764 1059 l 515 831 l 442 831 l 283 1059 l 399 1059 l 497 932 l 630 1059 l 764 1059 z "},"Ő":{"ha":936,"x_min":77,"x_max":931,"o":"m 77 365 q 217 819 77 627 q 580 1011 357 1011 q 841 918 751 1011 q 931 648 931 824 q 790 171 931 359 q 398 -17 648 -17 q 163 89 248 -17 q 77 365 77 195 m 222 384 q 273 180 222 255 q 420 105 324 105 q 688 262 589 105 q 787 634 787 418 q 568 890 787 890 q 319 724 416 890 q 222 384 222 558 m 659 1267 l 524 1075 l 429 1075 l 525 1267 l 659 1267 m 909 1267 l 774 1075 l 680 1075 l 776 1267 l 909 1267 z "},"ő":{"ha":745,"x_min":50,"x_max":779,"o":"m 50 267 q 163 601 50 462 q 453 740 277 740 q 655 668 585 740 q 725 465 725 597 q 683 248 725 361 q 547 61 642 136 q 320 -14 452 -14 q 119 60 189 -14 q 50 267 50 134 m 185 275 q 339 92 185 92 q 521 203 454 92 q 589 460 589 314 q 435 635 589 635 q 297 579 357 635 q 212 437 238 524 q 185 275 185 350 m 528 1023 l 393 831 l 298 831 l 394 1023 l 528 1023 m 779 1023 l 644 831 l 549 831 l 645 1023 l 779 1023 z "},"Ŕ":{"ha":808,"x_min":48,"x_max":794,"o":"m 566 0 l 410 427 q 267 433 357 427 l 191 0 l 48 0 l 223 994 q 333 999 251 994 q 467 1004 414 1004 q 709 947 624 1004 q 794 786 794 891 q 721 569 794 662 q 536 450 647 475 l 721 0 l 566 0 m 344 871 l 287 549 q 381 542 337 542 q 575 592 502 542 q 649 730 649 642 q 597 844 649 810 q 425 878 546 878 q 344 871 399 878 m 652 1301 l 498 1075 l 404 1075 l 518 1301 l 652 1301 z "},"ŕ":{"ha":578,"x_min":60,"x_max":630,"o":"m 566 599 q 471 631 526 631 q 340 568 403 631 q 262 416 278 505 l 189 0 l 60 0 l 188 726 l 317 726 l 296 610 q 529 740 390 740 q 603 730 553 740 l 566 599 m 630 1057 l 477 831 l 382 831 l 496 1057 l 630 1057 z "},"Ř":{"ha":808,"x_min":48,"x_max":794,"o":"m 566 0 l 410 427 q 267 433 357 427 l 191 0 l 48 0 l 223 994 q 333 999 251 994 q 467 1004 414 1004 q 709 947 624 1004 q 794 786 794 891 q 721 569 794 662 q 536 450 647 475 l 721 0 l 566 0 m 344 871 l 287 549 q 381 542 337 542 q 575 592 502 542 q 649 730 649 642 q 597 844 649 810 q 425 878 546 878 q 344 871 399 878 m 762 1303 l 513 1075 l 441 1075 l 281 1303 l 398 1303 l 496 1176 l 629 1303 l 762 1303 z "},"ř":{"ha":578,"x_min":60,"x_max":685,"o":"m 566 599 q 471 631 526 631 q 340 568 403 631 q 262 416 278 505 l 189 0 l 60 0 l 188 726 l 317 726 l 296 610 q 529 740 390 740 q 603 730 553 740 l 566 599 m 685 1059 l 436 831 l 363 831 l 204 1059 l 321 1059 l 418 932 l 551 1059 l 685 1059 z "},"Ś":{"ha":668,"x_min":59,"x_max":651,"o":"m 59 32 l 100 162 q 187 123 129 139 q 298 106 245 106 q 428 146 379 106 q 477 254 477 185 q 440 356 477 312 q 314 465 403 400 q 184 585 224 529 q 143 724 143 640 q 228 934 143 858 q 448 1010 313 1010 q 651 984 601 1010 l 612 852 q 549 882 593 868 q 465 895 504 895 q 328 856 378 895 q 278 743 278 817 q 294 682 278 711 q 337 630 310 653 q 449 543 364 606 q 573 415 533 480 q 612 262 612 349 q 522 55 612 127 q 283 -17 431 -17 q 163 -2 230 -17 q 59 32 97 13 m 633 1301 l 479 1075 l 385 1075 l 499 1301 l 633 1301 z "},"ś":{"ha":562,"x_min":6,"x_max":599,"o":"m 6 43 l 73 165 q 149 117 100 139 q 234 95 199 95 q 334 127 294 95 q 373 216 373 160 q 352 267 373 244 q 281 318 332 289 l 185 371 q 119 434 141 396 q 97 516 97 473 q 176 679 97 617 q 369 740 254 740 q 560 690 448 740 l 503 570 q 359 631 436 631 q 272 605 309 631 q 235 536 235 579 q 256 483 235 505 q 328 433 277 460 l 423 381 q 489 320 467 357 q 511 239 511 283 q 426 54 511 122 q 212 -14 342 -14 q 6 43 97 -14 m 599 1057 l 446 831 l 351 831 l 465 1057 l 599 1057 z "},"Ț":{"ha":806,"x_min":106,"x_max":910,"o":"m 562 871 l 408 0 l 269 0 l 422 871 l 106 871 l 128 994 l 910 994 l 888 871 l 562 871 m 245 -358 l 218 -312 q 281 -259 273 -275 q 288 -228 288 -243 q 270 -187 288 -210 q 251 -144 251 -163 q 317 -75 251 -75 q 392 -153 392 -75 q 351 -271 392 -214 q 245 -358 309 -328 z "},"ț":{"ha":583,"x_min":118,"x_max":568,"o":"m 218 625 l 134 625 l 155 726 l 239 726 l 269 878 l 416 934 l 368 726 l 568 726 l 546 625 l 347 625 l 271 264 q 262 199 262 222 q 365 95 262 95 q 473 120 415 95 l 468 7 q 288 -14 412 -14 q 168 34 211 -14 q 125 165 125 82 q 131 212 125 184 l 218 625 m 145 -358 l 118 -312 q 181 -259 174 -275 q 189 -228 189 -243 q 170 -187 189 -210 q 151 -144 151 -163 q 217 -75 151 -75 q 292 -153 292 -75 q 251 -271 292 -214 q 145 -358 210 -328 z "},"Ť":{"ha":806,"x_min":106,"x_max":910,"o":"m 562 871 l 408 0 l 269 0 l 422 871 l 106 871 l 128 994 l 910 994 l 888 871 l 562 871 m 784 1263 l 535 1034 l 463 1034 l 303 1263 l 420 1263 l 517 1135 l 650 1263 l 784 1263 z "},"ť":{"ha":689,"x_min":125,"x_max":789,"o":"m 218 625 l 134 625 l 155 726 l 239 726 l 269 878 l 416 934 l 368 726 l 568 726 l 546 625 l 347 625 l 271 264 q 262 199 262 222 q 365 95 262 95 q 473 120 415 95 l 468 7 q 288 -14 412 -14 q 168 34 211 -14 q 125 165 125 82 q 131 212 125 184 l 218 625 m 642 652 l 615 698 q 678 750 671 734 q 686 782 686 766 q 667 823 686 800 q 648 865 648 846 q 714 935 648 935 q 789 857 789 935 q 748 739 789 795 q 642 652 707 682 z "},"Ů":{"ha":901,"x_min":91,"x_max":917,"o":"m 220 994 l 362 994 l 240 313 q 236 271 236 291 q 282 150 236 194 q 409 105 329 105 q 573 161 508 105 q 656 317 638 218 l 777 994 l 917 994 l 795 302 q 660 67 768 152 q 389 -17 551 -17 q 171 50 251 -17 q 91 227 91 117 q 98 303 91 263 l 220 994 m 578 1073 q 469 1105 511 1073 q 428 1194 428 1137 q 474 1278 428 1242 q 578 1314 520 1314 q 685 1280 641 1314 q 729 1194 729 1246 q 687 1106 729 1139 q 578 1073 646 1073 m 578 1254 q 515 1237 543 1254 q 488 1194 488 1219 q 578 1133 488 1133 q 643 1149 616 1133 q 670 1194 670 1165 q 643 1237 670 1221 q 578 1254 615 1254 z "},"ů":{"ha":773,"x_min":66,"x_max":758,"o":"m 292 726 l 208 263 q 202 208 202 233 q 320 95 202 95 q 459 149 393 95 q 540 279 526 203 l 623 726 l 758 726 l 625 0 l 490 0 l 509 102 q 245 -14 433 -14 q 113 37 161 -14 q 66 179 66 87 q 73 250 66 212 l 157 726 l 292 726 m 484 829 q 374 861 416 829 q 333 949 333 892 q 379 1034 333 998 q 484 1069 425 1069 q 590 1036 546 1069 q 634 949 634 1002 q 592 862 634 895 q 484 829 551 829 m 484 1010 q 420 992 448 1010 q 393 949 393 975 q 484 888 393 888 q 548 905 522 888 q 575 949 575 921 q 548 993 575 977 q 484 1010 520 1010 z "},"Ű":{"ha":901,"x_min":91,"x_max":917,"o":"m 220 994 l 362 994 l 240 313 q 236 271 236 291 q 282 150 236 194 q 409 105 329 105 q 573 161 508 105 q 656 317 638 218 l 777 994 l 917 994 l 795 302 q 660 67 768 152 q 389 -17 551 -17 q 171 50 251 -17 q 91 227 91 117 q 98 303 91 263 l 220 994 m 616 1267 l 481 1075 l 386 1075 l 482 1267 l 616 1267 m 867 1267 l 732 1075 l 637 1075 l 733 1267 l 867 1267 z "},"ű":{"ha":773,"x_min":66,"x_max":785,"o":"m 292 726 l 208 263 q 202 208 202 233 q 320 95 202 95 q 459 149 393 95 q 540 279 526 203 l 623 726 l 758 726 l 625 0 l 490 0 l 509 102 q 245 -14 433 -14 q 113 37 161 -14 q 66 179 66 87 q 73 250 66 212 l 157 726 l 292 726 m 534 1023 l 399 831 l 304 831 l 401 1023 l 534 1023 m 785 1023 l 650 831 l 555 831 l 652 1023 l 785 1023 z "},"Ź":{"ha":764,"x_min":54,"x_max":803,"o":"m 54 0 l 54 34 l 608 871 l 188 871 l 209 994 l 803 994 l 803 960 l 268 122 l 684 122 l 663 0 l 54 0 m 703 1301 l 549 1075 l 454 1075 l 569 1301 l 703 1301 z "},"ź":{"ha":659,"x_min":5,"x_max":666,"o":"m 228 115 l 589 115 l 569 0 l 5 0 l 5 34 l 451 611 l 79 611 l 99 726 l 666 726 l 666 690 l 228 115 m 595 1057 l 442 831 l 347 831 l 462 1057 l 595 1057 z "},"Ż":{"ha":764,"x_min":54,"x_max":803,"o":"m 54 0 l 54 34 l 608 871 l 188 871 l 209 994 l 803 994 l 803 960 l 268 122 l 684 122 l 663 0 l 54 0 m 528 1234 q 585 1211 561 1234 q 608 1155 608 1187 q 585 1098 608 1122 q 528 1075 561 1075 q 472 1098 495 1075 q 449 1155 449 1122 q 472 1211 449 1188 q 528 1234 495 1234 z "},"ż":{"ha":659,"x_min":5,"x_max":666,"o":"m 228 115 l 589 115 l 569 0 l 5 0 l 5 34 l 451 611 l 79 611 l 99 726 l 666 726 l 666 690 l 228 115 m 433 990 q 489 967 465 990 q 513 911 513 943 q 489 854 513 878 q 433 831 465 831 q 376 854 399 831 q 353 911 353 878 q 376 967 353 944 q 433 990 399 990 z "},"¤":{"ha":728,"x_min":73,"x_max":724,"o":"m 667 167 l 570 264 q 398 208 488 208 q 227 264 309 208 l 130 167 l 73 227 l 170 321 q 114 492 114 408 q 170 663 114 576 l 73 758 l 130 817 l 227 720 q 398 777 309 777 q 570 720 488 777 l 667 817 l 724 758 l 627 663 q 683 492 683 576 q 627 321 683 408 l 724 227 l 667 167 m 195 492 q 254 348 195 408 q 397 289 313 289 q 541 349 482 289 q 600 492 600 408 q 541 636 600 577 q 397 695 482 695 q 254 636 313 695 q 195 492 195 577 z "},";":{"ha":510,"x_min":93,"x_max":401,"o":"m 300 726 q 371 697 341 726 q 401 625 401 667 q 372 553 401 583 q 300 522 342 522 q 228 552 257 522 q 199 625 199 583 q 227 695 199 664 q 300 726 256 726 m 93 -175 q 225 -14 225 -85 q 208 37 225 10 q 157 115 157 70 q 186 175 157 153 q 252 197 216 197 q 320 165 292 197 q 349 89 349 132 q 300 -74 349 -1 q 123 -228 252 -147 l 93 -175 z "},"΄":{"ha":728,"x_min":396,"x_max":639,"o":"m 639 1097 l 505 871 l 396 871 l 490 1097 l 639 1097 z "},"΅":{"ha":728,"x_min":229,"x_max":781,"o":"m 610 1097 l 510 857 l 435 857 l 492 1097 l 610 1097 m 703 1029 q 758 1008 735 1029 q 781 954 781 986 q 758 899 781 922 q 703 876 735 876 q 649 899 671 876 q 628 954 628 922 q 649 1008 628 987 q 703 1029 671 1029 m 306 1029 q 360 1008 338 1029 q 382 954 382 986 q 360 899 382 922 q 306 876 338 876 q 251 899 273 876 q 229 954 229 922 q 251 1008 229 986 q 306 1029 273 1029 z "},"Ά":{"ha":848,"x_min":-22,"x_max":791,"o":"m 635 0 l 604 210 l 248 210 l 131 0 l -22 0 l 559 1007 l 596 1007 l 791 0 l 635 0 m 528 733 l 301 310 l 589 310 l 528 733 m 335 993 l 196 755 l 90 755 l 186 993 l 335 993 z "},"·":{"ha":510,"x_min":139,"x_max":343,"o":"m 240 543 q 313 513 283 543 q 343 441 343 484 q 313 369 343 399 q 240 339 283 339 q 169 369 199 339 q 139 441 139 399 q 169 513 139 483 q 240 543 199 543 z "},"Έ":{"ha":897,"x_min":8,"x_max":961,"o":"m 481 871 l 432 596 l 761 596 l 741 481 l 412 481 l 349 122 l 799 122 l 778 0 l 184 0 l 359 993 l 961 993 l 937 871 l 481 871 m 253 993 l 114 755 l 8 755 l 104 993 l 253 993 z "},"Ή":{"ha":1047,"x_min":8,"x_max":1072,"o":"m 758 0 l 843 481 l 408 481 l 323 0 l 184 0 l 359 993 l 500 993 l 429 596 l 863 596 l 933 993 l 1072 993 l 896 0 l 758 0 m 253 993 l 114 755 l 8 755 l 104 993 l 253 993 z "},"Ί":{"ha":521,"x_min":8,"x_max":500,"o":"m 186 0 l 361 993 l 500 993 l 323 0 l 186 0 m 253 993 l 114 755 l 8 755 l 104 993 l 253 993 z "},"Ό":{"ha":1019,"x_min":8,"x_max":1014,"o":"m 161 366 q 299 818 161 625 q 663 1011 437 1011 q 924 918 833 1011 q 1014 648 1014 825 q 872 170 1014 357 q 482 -17 731 -17 q 247 89 332 -17 q 161 366 161 195 m 306 383 q 356 181 306 256 q 503 106 407 106 q 772 263 673 106 q 871 635 871 420 q 652 890 871 890 q 475 818 554 890 q 351 620 397 745 q 306 383 306 496 m 253 993 l 114 755 l 8 755 l 104 993 l 253 993 z "},"Ύ":{"ha":991,"x_min":8,"x_max":1100,"o":"m 685 444 l 606 0 l 469 0 l 549 444 l 323 993 l 465 993 l 633 570 l 947 993 l 1100 993 l 685 444 m 253 993 l 114 755 l 8 755 l 104 993 l 253 993 z "},"Ώ":{"ha":1054,"x_min":8,"x_max":1038,"o":"m 946 0 l 574 0 l 574 35 q 829 366 766 228 q 893 640 893 503 q 836 829 893 763 q 673 895 779 895 q 431 770 531 895 q 332 449 332 646 q 365 232 332 330 q 465 35 399 134 l 465 0 l 83 0 l 106 117 q 294 110 229 117 q 187 447 187 276 q 330 851 187 686 q 682 1017 473 1017 q 944 917 850 1017 q 1038 643 1038 817 q 963 345 1038 487 q 783 110 888 203 q 968 117 848 117 l 946 0 m 253 993 l 114 755 l 8 755 l 104 993 l 253 993 z "},"ΐ":{"ha":374,"x_min":25,"x_max":576,"o":"m 334 726 q 245 268 254 313 q 237 191 237 222 q 289 0 237 83 l 144 0 q 100 167 100 74 q 119 315 100 219 l 199 726 l 334 726 m 406 1097 l 306 857 l 231 857 l 288 1097 l 406 1097 m 498 1029 q 554 1008 531 1029 q 576 954 576 986 q 554 899 576 922 q 498 876 531 876 q 445 899 467 876 q 424 954 424 922 q 445 1008 424 986 q 498 1029 467 1029 m 102 1029 q 156 1008 134 1029 q 178 954 178 986 q 156 899 178 922 q 102 876 134 876 q 47 899 68 876 q 25 954 25 922 q 47 1008 25 986 q 102 1029 69 1029 z "},"Α":{"ha":848,"x_min":-22,"x_max":791,"o":"m 635 0 l 604 210 l 248 210 l 131 0 l -22 0 l 559 1007 l 596 1007 l 791 0 l 635 0 m 528 733 l 301 310 l 589 310 l 528 733 z "},"Β":{"ha":786,"x_min":58,"x_max":772,"o":"m 58 0 l 235 993 q 421 1008 339 1008 q 772 775 772 1008 q 717 632 772 699 q 586 557 661 566 q 751 329 751 526 q 635 77 751 161 q 260 -8 518 -8 q 58 0 187 -8 m 355 885 l 311 610 q 406 606 370 606 q 633 779 633 606 q 457 892 633 892 q 355 885 431 892 m 288 496 l 220 115 q 301 109 261 109 q 524 163 437 109 q 611 314 611 217 q 374 501 611 501 q 288 496 328 501 z "},"Γ":{"ha":715,"x_min":46,"x_max":800,"o":"m 800 993 l 779 871 l 340 871 l 186 0 l 46 0 l 221 993 l 800 993 z "},"Ε":{"ha":745,"x_min":32,"x_max":808,"o":"m 328 871 l 279 596 l 608 596 l 587 481 l 260 481 l 196 122 l 646 122 l 625 0 l 32 0 l 207 993 l 808 993 l 785 871 l 328 871 z "},"Ζ":{"ha":764,"x_min":54,"x_max":803,"o":"m 54 0 l 54 33 l 608 871 l 187 871 l 208 993 l 803 993 l 803 960 l 268 122 l 685 122 l 663 0 l 54 0 z "},"Η":{"ha":908,"x_min":46,"x_max":933,"o":"m 619 0 l 704 481 l 269 481 l 184 0 l 46 0 l 221 993 l 361 993 l 290 596 l 724 596 l 794 993 l 933 993 l 757 0 l 619 0 z "},"Θ":{"ha":960,"x_min":78,"x_max":954,"o":"m 78 366 q 144 682 78 528 q 327 924 210 836 q 590 1011 444 1011 q 859 916 764 1011 q 954 647 954 821 q 807 174 954 365 q 410 -17 661 -17 q 165 87 252 -17 q 78 366 78 192 m 221 383 q 274 177 221 250 q 428 104 326 104 q 707 264 602 104 q 812 635 812 424 q 754 826 812 760 q 582 892 695 892 q 325 731 428 892 q 221 383 221 570 m 721 570 l 697 450 l 313 450 l 336 570 l 721 570 z "},"Ι":{"ha":386,"x_min":52,"x_max":366,"o":"m 52 0 l 227 993 l 366 993 l 189 0 l 52 0 z "},"Κ":{"ha":800,"x_min":47,"x_max":879,"o":"m 589 0 l 397 457 l 232 269 l 183 0 l 47 0 l 222 993 l 358 993 l 269 479 l 721 993 l 879 993 l 505 562 l 746 0 l 589 0 z "},"Λ":{"ha":817,"x_min":-50,"x_max":758,"o":"m 758 0 l 602 0 l 492 721 l 109 0 l -50 0 l 524 1007 l 559 1007 l 758 0 z "},"Μ":{"ha":1057,"x_min":3,"x_max":982,"o":"m 846 0 l 832 614 l 501 -14 l 468 -14 l 361 619 l 132 0 l 3 0 l 357 993 l 425 993 l 533 296 l 884 993 l 954 993 l 982 0 l 846 0 z "},"Ν":{"ha":886,"x_min":40,"x_max":899,"o":"m 681 -14 l 292 692 l 175 0 l 40 0 l 215 993 l 269 993 l 650 317 l 764 993 l 899 993 l 721 -14 l 681 -14 z "},"Ξ":{"ha":836,"x_min":14,"x_max":882,"o":"m 882 993 l 861 879 l 585 879 l 534 590 l 743 590 l 724 482 l 515 482 l 452 115 l 734 115 l 714 0 l 14 0 l 35 115 l 318 115 l 382 482 l 174 482 l 193 590 l 401 590 l 452 879 l 175 879 l 196 993 l 882 993 z "},"Ο":{"ha":936,"x_min":78,"x_max":930,"o":"m 78 366 q 216 818 78 625 q 579 1011 354 1011 q 840 918 750 1011 q 930 648 930 825 q 789 170 930 357 q 399 -17 648 -17 q 163 89 248 -17 q 78 366 78 195 m 222 383 q 273 181 222 256 q 419 106 323 106 q 689 263 590 106 q 787 635 787 420 q 568 890 787 890 q 392 818 471 890 q 268 620 313 745 q 222 383 222 496 z "},"Π":{"ha":884,"x_min":46,"x_max":908,"o":"m 908 993 l 733 0 l 595 0 l 749 871 l 339 871 l 184 0 l 46 0 l 221 993 l 908 993 z "},"Ρ":{"ha":754,"x_min":36,"x_max":791,"o":"m 245 382 l 178 0 l 36 0 l 218 993 q 416 1007 337 1007 q 791 718 791 1007 q 679 460 791 554 q 380 367 566 367 q 245 382 313 367 m 332 871 l 267 504 q 376 486 302 486 q 574 543 500 486 q 647 704 647 600 q 450 888 647 888 q 332 871 395 888 z "},"Σ":{"ha":753,"x_min":-25,"x_max":819,"o":"m 819 993 l 799 871 l 376 871 l 578 528 l 215 122 l 669 122 l 647 0 l -25 0 l -25 33 l 422 529 l 171 961 l 171 993 l 819 993 z "},"Τ":{"ha":807,"x_min":107,"x_max":909,"o":"m 561 871 l 408 0 l 269 0 l 422 871 l 107 871 l 127 993 l 909 993 l 889 871 l 561 871 z "},"Υ":{"ha":791,"x_min":123,"x_max":900,"o":"m 485 444 l 406 0 l 269 0 l 349 444 l 123 993 l 265 993 l 433 570 l 747 993 l 900 993 l 485 444 z "},"Φ":{"ha":1064,"x_min":74,"x_max":1054,"o":"m 708 932 q 963 829 872 921 q 1054 587 1054 736 q 921 243 1054 397 q 555 77 789 89 l 538 -25 l 403 -25 l 421 77 q 166 182 258 87 q 74 428 74 278 q 137 670 74 554 q 313 856 199 785 q 574 932 427 926 l 591 1034 l 726 1034 l 708 932 m 555 828 q 300 699 390 819 q 211 428 211 578 q 271 254 211 319 q 441 182 330 188 l 555 828 m 574 180 q 826 313 735 189 q 917 586 917 437 q 688 827 917 811 l 574 180 z "},"Χ":{"ha":774,"x_min":-50,"x_max":865,"o":"m 554 0 l 389 383 l 107 0 l -50 0 l 334 522 l 149 994 l 289 993 l 425 631 l 708 993 l 865 993 l 481 505 l 707 0 l 554 0 z "},"Ψ":{"ha":1054,"x_min":113,"x_max":1105,"o":"m 1105 993 l 1040 618 q 961 422 1020 502 q 806 295 902 342 q 583 239 710 249 l 541 -3 l 403 -3 l 446 237 q 200 332 287 254 q 113 538 113 411 q 121 616 113 571 l 187 993 l 325 993 l 275 715 q 253 585 254 600 q 252 551 252 570 q 467 349 252 365 l 581 993 l 715 993 l 602 349 q 802 430 721 357 q 903 621 882 503 l 968 993 l 1105 993 z "},"Ϊ":{"ha":386,"x_min":52,"x_max":547,"o":"m 52 0 l 227 993 l 366 993 l 189 0 l 52 0 m 469 1229 q 525 1207 502 1229 q 547 1153 547 1185 q 525 1098 547 1120 q 469 1076 502 1076 q 416 1098 437 1076 q 395 1153 395 1120 q 416 1207 395 1185 q 469 1229 437 1229 m 149 1229 q 203 1207 181 1229 q 225 1153 225 1185 q 203 1098 225 1120 q 149 1076 181 1076 q 94 1098 117 1076 q 72 1153 72 1120 q 94 1207 72 1185 q 149 1229 117 1229 z "},"Ϋ":{"ha":791,"x_min":123,"x_max":900,"o":"m 485 444 l 406 0 l 269 0 l 349 444 l 123 993 l 265 993 l 433 570 l 747 993 l 900 993 l 485 444 m 681 1229 q 735 1207 713 1229 q 758 1153 758 1185 q 736 1098 758 1120 q 681 1076 713 1076 q 627 1098 648 1076 q 606 1153 606 1120 q 627 1207 606 1185 q 681 1229 648 1229 m 359 1229 q 414 1207 392 1229 q 436 1153 436 1185 q 414 1098 436 1120 q 359 1076 392 1076 q 306 1098 328 1076 q 283 1153 283 1120 q 306 1207 283 1185 q 359 1229 328 1229 z "},"ά":{"ha":760,"x_min":66,"x_max":739,"o":"m 739 681 l 650 260 q 642 182 642 219 q 684 0 642 94 l 551 0 q 517 96 526 42 q 293 -14 426 -14 q 130 48 193 -14 q 66 232 66 110 q 187 589 66 435 q 489 742 308 742 q 739 681 656 742 m 596 606 q 473 636 575 636 q 285 522 367 636 q 203 236 203 408 q 326 94 203 94 q 430 124 382 94 q 496 184 479 153 q 530 296 513 214 l 596 606 m 684 1097 l 550 871 l 440 871 l 534 1097 l 684 1097 z "},"έ":{"ha":646,"x_min":50,"x_max":648,"o":"m 648 685 l 597 581 q 414 636 511 636 q 304 603 343 636 q 265 517 265 570 q 390 429 265 429 q 488 432 445 429 l 469 328 q 372 332 434 332 q 238 288 289 332 q 187 180 187 244 q 314 90 187 90 q 529 172 420 90 l 585 68 q 296 -14 454 -14 q 116 34 182 -14 q 50 168 50 81 q 109 305 50 250 q 243 382 168 360 q 157 429 187 393 q 127 517 127 465 q 209 671 127 602 q 425 741 291 741 q 648 685 559 741 m 627 1097 l 493 871 l 383 871 l 478 1097 l 627 1097 z "},"ή":{"ha":768,"x_min":58,"x_max":721,"o":"m 457 -222 l 574 422 q 583 517 583 478 q 464 632 583 632 q 386 614 427 632 q 315 571 345 595 q 283 541 285 547 l 189 0 l 58 0 l 155 550 q 160 599 160 571 q 146 715 160 659 l 269 741 q 288 632 288 644 q 525 741 370 741 q 721 543 721 741 q 711 450 721 505 l 597 -187 l 457 -222 m 690 1097 l 557 871 l 447 871 l 542 1097 l 690 1097 z "},"ί":{"ha":374,"x_min":100,"x_max":457,"o":"m 334 726 q 245 268 254 313 q 237 191 237 222 q 289 0 237 83 l 144 0 q 100 167 100 74 q 119 315 100 219 l 199 726 l 334 726 m 457 1097 l 323 871 l 214 871 l 309 1097 l 457 1097 z "},"ΰ":{"ha":764,"x_min":86,"x_max":757,"o":"m 741 726 q 743 639 743 704 q 705 347 743 505 q 568 89 666 190 q 329 -12 470 -12 q 150 49 213 -12 q 86 224 86 110 q 106 363 86 273 l 183 726 l 318 726 l 252 421 q 223 273 226 298 q 221 227 221 248 q 347 93 221 93 q 494 175 431 93 q 583 406 557 257 q 608 646 608 555 q 607 726 608 707 l 741 726 m 586 1097 l 486 857 l 411 857 l 468 1097 l 586 1097 m 679 1029 q 734 1008 711 1029 q 757 954 757 986 q 734 899 757 922 q 679 876 711 876 q 626 899 648 876 q 604 954 604 922 q 626 1008 604 986 q 679 1029 647 1029 m 282 1029 q 336 1008 314 1029 q 358 954 358 986 q 336 899 358 922 q 282 876 314 876 q 228 899 250 876 q 205 954 205 922 q 228 1008 205 986 q 282 1029 250 1029 z "},"α":{"ha":760,"x_min":66,"x_max":739,"o":"m 739 681 l 650 260 q 642 182 642 219 q 684 0 642 94 l 551 0 q 517 96 526 42 q 415 14 471 41 q 293 -14 359 -14 q 130 48 193 -14 q 66 232 66 110 q 187 589 66 435 q 489 742 308 742 q 739 681 656 742 m 596 606 q 473 636 575 636 q 285 522 367 636 q 203 236 203 408 q 326 94 203 94 q 430 124 382 94 q 496 184 479 153 q 530 296 513 214 l 596 606 z "},"β":{"ha":783,"x_min":66,"x_max":754,"o":"m 545 578 q 694 494 640 558 q 747 345 747 431 q 701 169 747 251 q 561 36 654 86 q 340 -14 467 -14 q 198 5 275 -14 q 93 40 120 24 q 66 72 66 56 q 68 87 66 80 l 179 707 q 295 942 206 856 q 518 1028 385 1028 q 688 972 622 1028 q 754 828 754 916 q 692 672 754 739 q 545 578 631 605 m 293 621 l 385 621 q 553 679 488 621 q 619 814 619 737 q 590 895 619 865 q 509 925 561 925 q 426 904 464 925 q 360 843 388 883 q 322 766 332 803 q 293 621 312 729 m 208 143 q 261 105 219 121 q 353 90 304 90 q 542 168 474 90 q 610 340 610 245 q 553 473 610 425 q 389 521 496 521 l 275 521 l 208 143 z "},"γ":{"ha":730,"x_min":64,"x_max":791,"o":"m 791 726 q 385 18 620 317 q 365 -113 375 -73 q 328 -192 354 -153 q 260 -255 302 -230 q 155 -289 217 -281 l 131 -182 q 236 -109 210 -172 q 262 81 262 -45 q 251 257 262 160 q 212 449 239 354 q 157 583 185 543 q 64 624 129 623 l 89 730 q 192 721 159 730 q 255 681 224 711 q 309 586 285 650 q 355 407 332 522 q 380 187 378 292 q 647 726 572 509 l 791 726 z "},"δ":{"ha":760,"x_min":60,"x_max":806,"o":"m 806 1023 l 787 920 l 519 920 q 649 739 562 876 q 736 463 736 602 q 626 129 736 271 q 334 -14 516 -14 q 131 62 201 -14 q 60 272 60 138 q 111 503 60 392 q 248 673 161 613 q 433 733 335 733 q 507 726 482 733 l 342 987 l 342 1023 l 806 1023 m 602 463 q 557 629 602 567 q 471 642 519 642 q 269 533 343 642 q 195 267 195 424 q 347 92 195 92 q 535 214 468 92 q 602 463 602 336 z "},"ε":{"ha":646,"x_min":50,"x_max":648,"o":"m 648 685 l 597 581 q 414 636 511 636 q 304 603 343 636 q 265 517 265 570 q 390 429 265 429 q 488 432 445 429 l 469 328 q 372 332 434 332 q 238 288 289 332 q 187 180 187 244 q 314 90 187 90 q 529 172 420 90 l 585 68 q 296 -14 454 -14 q 116 34 182 -14 q 50 168 50 81 q 243 382 50 316 q 157 429 187 393 q 127 517 127 465 q 209 671 127 602 q 425 741 291 741 q 648 685 559 741 z "},"ζ":{"ha":612,"x_min":54,"x_max":734,"o":"m 734 987 q 325 530 450 707 q 200 229 200 353 q 229 140 200 169 q 336 107 257 112 q 524 52 475 98 q 572 -57 572 7 q 503 -217 572 -149 q 318 -285 434 -285 q 228 -275 266 -285 l 256 -168 q 335 -183 298 -183 q 415 -155 386 -183 q 444 -83 444 -127 q 402 -20 444 -37 q 279 -3 360 -3 q 114 52 173 -3 q 54 208 54 107 q 209 585 54 391 q 522 918 363 779 l 264 918 l 285 1023 l 734 1023 l 734 987 z "},"η":{"ha":768,"x_min":58,"x_max":721,"o":"m 457 -222 l 574 422 q 583 517 583 478 q 464 632 583 632 q 386 614 427 632 q 315 571 345 595 q 283 541 285 547 l 189 0 l 58 0 l 155 550 q 160 599 160 571 q 146 715 160 659 l 269 741 q 288 632 288 644 q 525 741 370 741 q 721 543 721 741 q 711 450 721 505 l 597 -187 l 457 -222 z "},"θ":{"ha":786,"x_min":100,"x_max":779,"o":"m 532 1026 q 715 941 652 1026 q 779 693 779 857 q 726 365 779 548 q 576 84 672 182 q 350 -14 479 -14 q 163 71 227 -14 q 100 319 100 155 q 154 648 100 465 q 307 928 209 831 q 532 1026 405 1026 m 640 579 q 652 714 652 661 q 618 874 652 825 q 518 924 585 924 q 265 579 348 924 l 640 579 m 624 476 l 245 476 q 229 298 229 370 q 363 90 229 90 q 624 476 544 90 z "},"ι":{"ha":374,"x_min":100,"x_max":334,"o":"m 334 726 q 245 268 254 313 q 237 191 237 222 q 289 0 237 83 l 144 0 q 100 167 100 74 q 119 315 100 219 l 199 726 l 334 726 z "},"κ":{"ha":746,"x_min":54,"x_max":734,"o":"m 355 323 l 221 211 l 183 0 l 54 0 l 182 726 l 311 726 l 249 370 q 650 745 589 663 l 734 661 q 454 399 633 544 l 686 0 l 530 0 l 355 323 z "},"λ":{"ha":733,"x_min":-31,"x_max":673,"o":"m 673 0 l 533 0 l 457 582 l 122 0 l -31 0 l 422 743 q 382 889 408 859 q 307 918 357 918 q 216 895 275 918 l 184 1003 q 335 1028 262 1028 q 476 979 426 1028 q 546 808 527 929 l 673 0 z "},"ν":{"ha":696,"x_min":72,"x_max":754,"o":"m 754 726 q 314 -14 611 364 l 279 -14 l 72 726 l 215 726 l 342 201 q 608 726 519 471 l 754 726 z "},"ξ":{"ha":631,"x_min":49,"x_max":726,"o":"m 726 987 l 677 879 q 517 922 608 922 q 378 872 433 922 q 323 749 323 823 q 373 649 323 684 q 517 615 423 615 l 615 615 l 595 509 l 492 509 q 284 419 374 509 q 195 231 195 330 q 224 142 195 170 q 336 107 253 113 q 524 52 475 98 q 572 -57 572 7 q 503 -217 572 -149 q 318 -285 434 -285 q 228 -275 266 -285 l 256 -168 q 335 -183 298 -183 q 415 -155 386 -183 q 444 -83 444 -127 q 402 -20 444 -37 q 279 -3 360 -3 q 109 54 170 -3 q 49 214 49 111 q 124 417 49 325 q 335 561 200 509 q 223 622 263 574 q 183 739 183 670 q 277 941 183 854 q 528 1028 372 1028 q 726 987 633 1028 z "},"ο":{"ha":755,"x_min":60,"x_max":734,"o":"m 60 267 q 174 602 60 463 q 463 741 289 741 q 664 669 593 741 q 734 465 734 598 q 624 130 734 273 q 329 -14 514 -14 q 130 59 199 -14 q 60 267 60 132 m 195 275 q 349 92 195 92 q 531 205 463 92 q 599 460 599 319 q 444 635 599 635 q 263 524 331 635 q 195 275 195 413 z "},"ρ":{"ha":802,"x_min":1,"x_max":774,"o":"m 1 -285 l 104 301 q 256 648 151 556 q 496 741 361 741 q 701 661 627 741 q 774 444 774 581 q 663 119 774 252 q 378 -14 553 -14 q 192 46 258 -14 l 134 -285 l 1 -285 m 211 147 q 363 93 272 93 q 568 200 498 93 q 639 453 639 307 q 599 587 639 540 q 488 635 559 635 q 401 613 441 635 q 329 549 361 591 q 276 449 296 507 q 241 312 255 392 l 211 147 z "},"ς":{"ha":656,"x_min":66,"x_max":697,"o":"m 697 681 l 644 574 q 485 632 572 632 q 286 530 365 632 q 207 301 207 429 q 393 115 207 142 q 585 -58 585 86 q 555 -168 585 -116 q 468 -253 525 -220 q 332 -285 410 -285 q 248 -275 285 -285 l 273 -168 q 351 -183 316 -183 q 430 -154 402 -183 q 458 -81 458 -125 q 340 7 458 -3 q 144 86 222 17 q 66 285 66 156 q 182 597 66 454 q 494 741 297 741 q 697 681 616 741 z "},"σ":{"ha":799,"x_min":64,"x_max":850,"o":"m 850 726 l 831 619 l 619 619 q 733 379 733 516 q 623 104 733 222 q 339 -14 512 -14 q 138 64 212 -14 q 64 271 64 142 q 126 507 64 394 q 290 673 189 620 q 530 726 391 726 l 850 726 m 599 378 q 489 619 599 535 q 272 513 347 614 q 197 282 197 412 q 238 143 197 195 q 353 92 279 92 q 529 179 459 92 q 599 378 599 267 z "},"τ":{"ha":600,"x_min":85,"x_max":652,"o":"m 652 726 l 632 618 l 415 618 q 326 172 326 208 q 400 92 326 92 q 500 115 448 92 l 496 3 q 385 -14 449 -14 q 189 155 189 -14 q 202 253 189 191 l 281 618 l 85 618 l 104 726 l 652 726 z "},"υ":{"ha":764,"x_min":86,"x_max":743,"o":"m 741 726 q 743 639 743 704 q 705 347 743 505 q 568 89 666 190 q 329 -12 470 -12 q 150 49 213 -12 q 86 224 86 110 q 106 363 86 273 l 183 726 l 318 726 l 252 421 q 223 273 226 298 q 221 227 221 248 q 347 93 221 93 q 494 175 431 93 q 583 406 557 257 q 608 646 608 555 q 607 726 608 707 l 741 726 z "},"φ":{"ha":974,"x_min":65,"x_max":950,"o":"m 392 90 l 448 404 q 487 573 471 527 q 536 660 503 619 q 615 721 568 700 q 718 742 663 742 q 886 666 822 742 q 950 453 950 591 q 830 130 950 260 q 503 -12 710 1 l 456 -285 l 325 -285 l 372 -12 q 143 70 222 -7 q 65 277 65 146 q 139 531 65 409 q 345 741 212 654 l 407 653 q 255 486 313 588 q 196 279 196 383 q 392 90 196 106 m 519 89 q 741 200 662 102 q 819 458 819 298 q 791 591 819 543 q 708 639 763 639 q 632 600 661 639 q 589 481 603 560 l 519 89 z "},"χ":{"ha":714,"x_min":-12,"x_max":753,"o":"m 496 0 l 366 281 l 153 0 l -12 0 l 307 378 l 127 726 l 278 726 l 397 471 l 595 726 l 753 726 l 453 372 l 648 0 l 496 0 z "},"ψ":{"ha":1028,"x_min":106,"x_max":1015,"o":"m 1015 726 l 945 338 q 890 174 928 239 q 797 69 852 109 q 669 9 741 29 q 534 -12 597 -11 l 488 -285 l 357 -285 l 404 -12 q 183 73 260 2 q 106 257 106 143 q 113 338 106 294 l 184 726 l 315 726 l 262 434 q 239 295 240 310 q 237 262 237 279 q 424 90 237 109 l 536 726 l 664 726 l 551 89 q 727 158 658 100 q 814 328 795 217 l 884 726 l 1015 726 z "},"ω":{"ha":1059,"x_min":68,"x_max":1026,"o":"m 885 747 q 1026 408 1026 624 q 984 198 1026 298 q 866 42 943 98 q 693 -14 790 -14 q 515 121 554 -14 q 294 -14 436 -14 q 127 54 186 -14 q 68 237 68 121 q 144 523 68 389 q 350 747 220 656 l 431 661 q 259 470 319 580 q 199 239 199 360 q 309 92 199 92 q 367 106 339 92 q 420 152 395 121 q 470 234 464 203 l 492 342 q 519 521 513 442 l 653 521 q 634 443 643 483 q 614 344 625 404 l 590 216 q 616 141 590 191 q 705 92 642 92 q 840 182 785 92 q 896 406 896 273 q 790 671 896 568 l 885 747 z "},"ϊ":{"ha":374,"x_min":56,"x_max":529,"o":"m 334 726 q 245 268 254 313 q 237 191 237 222 q 289 0 237 83 l 144 0 q 100 167 100 74 q 119 315 100 219 l 199 726 l 334 726 m 453 1029 q 507 1008 485 1029 q 529 954 529 986 q 507 899 529 922 q 453 876 486 876 q 399 899 421 876 q 376 954 376 922 q 398 1008 376 986 q 453 1029 420 1029 m 132 1029 q 186 1008 164 1029 q 208 954 208 986 q 186 899 208 922 q 132 876 164 876 q 77 899 99 876 q 56 954 56 922 q 78 1008 56 986 q 132 1029 100 1029 z "},"ϋ":{"ha":764,"x_min":86,"x_max":743,"o":"m 741 726 q 743 639 743 704 q 705 347 743 505 q 568 89 666 190 q 329 -12 470 -12 q 150 49 213 -12 q 86 224 86 110 q 106 363 86 273 l 183 726 l 318 726 l 252 421 q 223 273 226 298 q 221 227 221 248 q 347 93 221 93 q 494 175 431 93 q 583 406 557 257 q 608 646 608 555 q 607 726 608 707 l 741 726 m 637 1029 q 692 1008 670 1029 q 714 954 714 986 q 692 899 714 922 q 637 876 670 876 q 583 899 606 876 q 561 954 561 922 q 583 1008 561 986 q 637 1029 605 1029 m 317 1029 q 371 1008 349 1029 q 393 954 393 986 q 371 899 393 922 q 317 876 349 876 q 262 899 284 876 q 240 954 240 922 q 262 1008 240 986 q 317 1029 284 1029 z "},"ό":{"ha":755,"x_min":60,"x_max":734,"o":"m 60 267 q 174 602 60 463 q 463 741 289 741 q 664 669 593 741 q 734 465 734 598 q 624 130 734 273 q 329 -14 514 -14 q 130 59 199 -14 q 60 267 60 132 m 195 275 q 349 92 195 92 q 531 205 463 92 q 599 460 599 319 q 444 635 599 635 q 263 524 331 635 q 195 275 195 413 m 669 1097 l 536 871 l 427 871 l 521 1097 l 669 1097 z "},"ύ":{"ha":764,"x_min":86,"x_max":743,"o":"m 741 726 q 743 639 743 704 q 705 347 743 505 q 568 89 666 190 q 329 -12 470 -12 q 150 49 213 -12 q 86 224 86 110 q 106 363 86 273 l 183 726 l 318 726 l 252 421 q 223 273 226 298 q 221 227 221 248 q 347 93 221 93 q 494 175 431 93 q 583 406 557 257 q 608 646 608 555 q 607 726 608 707 l 741 726 m 650 1097 l 517 871 l 407 871 l 501 1097 l 650 1097 z "},"ώ":{"ha":1059,"x_min":68,"x_max":1026,"o":"m 885 747 q 1026 408 1026 624 q 984 198 1026 298 q 866 42 943 98 q 693 -14 790 -14 q 515 121 554 -14 q 294 -14 435 -14 q 127 54 186 -14 q 68 237 68 121 q 144 523 68 389 q 350 747 220 656 l 431 661 q 259 470 319 580 q 199 239 199 360 q 309 92 199 92 q 367 106 339 92 q 420 152 395 121 q 470 234 464 203 l 492 342 q 519 521 513 442 l 653 521 q 634 443 643 483 q 614 344 625 404 l 590 216 q 616 141 590 191 q 705 92 642 92 q 840 182 785 92 q 896 406 896 273 q 790 671 896 568 l 885 747 m 808 1097 l 675 871 l 564 871 l 659 1097 l 808 1097 z "},"Ё":{"ha":760,"x_min":46,"x_max":822,"o":"m 342 871 l 293 596 l 623 596 l 602 481 l 273 481 l 210 122 l 660 122 l 639 0 l 46 0 l 221 993 l 822 993 l 799 871 l 342 871 m 688 1229 q 743 1206 721 1229 q 765 1154 765 1183 q 742 1100 765 1123 q 688 1076 719 1076 q 636 1098 659 1076 q 612 1154 612 1120 q 634 1206 612 1183 q 688 1229 655 1229 m 418 1229 q 472 1206 450 1229 q 494 1154 494 1184 q 471 1099 494 1122 q 418 1076 448 1076 q 366 1098 390 1076 q 342 1154 342 1120 q 365 1207 342 1186 q 418 1229 387 1229 z "},"Ђ":{"ha":1002,"x_min":138,"x_max":951,"o":"m 501 593 q 656 610 582 610 q 873 545 794 610 q 951 366 951 480 q 920 200 951 292 q 805 51 888 108 q 612 -7 722 -7 q 525 -1 563 -7 l 546 111 q 619 106 578 106 q 732 145 686 106 q 795 248 779 184 q 811 353 811 313 q 767 461 811 423 q 639 498 722 498 q 481 479 564 498 l 396 0 l 258 0 l 412 873 l 138 873 l 158 993 l 889 993 l 868 873 l 550 873 l 501 593 z "},"Ѓ":{"ha":721,"x_min":46,"x_max":800,"o":"m 800 993 l 779 871 l 340 871 l 186 0 l 46 0 l 221 993 l 800 993 m 715 1301 l 562 1075 l 467 1075 l 582 1301 l 715 1301 z "},"Є":{"ha":786,"x_min":81,"x_max":802,"o":"m 802 979 l 764 847 q 603 892 707 892 q 393 805 483 892 q 256 583 302 718 l 607 583 l 587 469 l 228 469 q 222 385 222 433 q 454 104 222 104 q 690 203 576 104 l 679 60 q 421 -17 597 -17 q 169 83 257 -17 q 81 359 81 183 q 225 818 81 625 q 611 1011 370 1011 q 802 979 727 1011 z "},"Ѕ":{"ha":663,"x_min":47,"x_max":640,"o":"m 47 32 l 89 163 q 178 122 122 137 q 288 107 235 107 q 417 146 369 107 q 465 254 465 186 q 426 360 465 315 q 310 460 386 405 q 171 588 210 532 q 132 724 132 644 q 217 934 132 857 q 437 1011 301 1011 q 640 983 589 1011 l 602 852 q 534 883 579 869 q 454 896 490 896 q 318 856 370 896 q 267 743 267 817 q 295 662 267 696 q 419 555 323 627 q 559 418 517 484 q 602 262 602 353 q 563 113 602 174 q 450 18 525 52 q 272 -17 374 -17 q 148 -1 213 -17 q 47 32 82 14 z "},"І":{"ha":386,"x_min":65,"x_max":379,"o":"m 65 0 l 240 993 l 379 993 l 203 0 l 65 0 z "},"Ї":{"ha":386,"x_min":52,"x_max":525,"o":"m 52 0 l 227 993 l 366 993 l 189 0 l 52 0 m 449 1229 q 502 1207 479 1229 q 525 1154 525 1186 q 501 1098 525 1120 q 449 1076 477 1076 q 396 1098 420 1076 q 372 1154 372 1120 q 393 1206 372 1183 q 449 1229 414 1229 m 178 1229 q 232 1207 210 1229 q 254 1154 254 1185 q 230 1098 254 1120 q 178 1076 206 1076 q 125 1099 148 1076 q 102 1154 102 1122 q 123 1206 102 1184 q 178 1229 145 1229 z "},"Ј":{"ha":648,"x_min":5,"x_max":675,"o":"m 8 199 l 126 199 q 218 109 126 109 q 365 160 329 109 q 428 366 401 212 l 539 993 l 675 993 l 566 371 q 452 71 527 155 q 197 -14 376 -14 q 57 35 109 -14 q 5 167 5 83 q 8 199 5 177 z "},"Љ":{"ha":1362,"x_min":-26,"x_max":1312,"o":"m 882 615 q 996 624 947 624 q 1229 557 1145 624 q 1312 372 1312 491 q 1264 189 1312 277 q 1115 50 1216 100 q 880 0 1013 0 l 637 0 l 799 875 l 585 875 q 484 547 545 718 q 355 256 422 377 q 229 81 287 135 q 114 8 172 26 q -26 -9 57 -9 l -3 119 q 82 136 43 119 q 167 201 121 153 q 276 375 214 250 q 394 659 339 500 q 500 993 450 817 l 951 993 l 882 615 m 791 111 q 882 106 849 106 q 1091 174 1011 106 q 1171 358 1171 243 q 968 515 1171 515 q 861 505 909 515 l 791 111 z "},"Њ":{"ha":1271,"x_min":46,"x_max":1221,"o":"m 790 615 q 904 624 854 624 q 1137 557 1053 624 q 1221 372 1221 491 q 1173 189 1221 277 q 1023 50 1124 100 q 789 0 921 0 l 546 0 l 631 481 l 267 481 l 182 0 l 46 0 l 221 993 l 357 993 l 288 596 l 652 596 l 722 993 l 859 993 l 790 615 m 700 111 q 790 106 758 106 q 999 174 920 106 q 1079 358 1079 243 q 876 515 1079 515 q 770 505 818 515 l 700 111 z "},"Ћ":{"ha":1035,"x_min":138,"x_max":949,"o":"m 501 593 q 656 610 582 610 q 871 545 793 610 q 949 367 949 481 q 945 313 949 332 l 889 0 l 751 0 l 795 247 q 811 355 811 336 q 767 461 811 425 q 639 498 722 498 q 481 479 564 498 l 396 0 l 258 0 l 412 873 l 138 873 l 158 993 l 886 993 l 865 873 l 550 873 l 501 593 z "},"Ќ":{"ha":850,"x_min":46,"x_max":897,"o":"m 897 996 l 876 879 q 847 880 871 880 q 805 862 823 880 q 765 782 788 843 q 482 522 686 568 q 628 411 581 484 q 676 211 676 338 q 687 132 676 150 q 726 114 699 114 q 758 117 743 114 l 736 -4 q 688 -7 725 -7 q 576 33 610 -7 q 542 175 542 73 q 485 396 542 326 q 279 467 429 467 l 267 467 l 184 0 l 46 0 l 221 993 l 359 993 l 288 582 l 296 582 q 518 641 437 582 q 647 836 599 699 q 722 961 679 924 q 852 999 766 999 q 897 996 876 999 m 743 1301 l 590 1075 l 494 1075 l 610 1301 l 743 1301 z "},"Ў":{"ha":806,"x_min":46,"x_max":909,"o":"m 909 993 q 658 470 774 669 q 449 173 543 271 q 262 32 356 74 q 46 -9 168 -9 l 72 122 q 376 279 254 122 l 131 993 l 278 993 l 473 393 q 760 993 633 645 l 909 993 m 808 1275 q 547 1072 756 1072 q 397 1121 453 1072 q 342 1251 342 1170 q 347 1303 342 1270 l 464 1293 q 458 1253 458 1267 q 487 1188 458 1212 q 566 1164 515 1164 q 701 1305 680 1164 l 808 1275 z "},"Џ":{"ha":886,"x_min":46,"x_max":911,"o":"m 911 993 l 736 0 l 457 0 l 412 -253 l 281 -253 l 325 0 l 46 0 l 221 993 l 359 993 l 207 122 l 619 122 l 772 993 l 911 993 z "},"А":{"ha":848,"x_min":-33,"x_max":781,"o":"m 624 0 l 593 210 l 236 210 l 119 0 l -33 0 l 549 1007 l 585 1007 l 781 0 l 624 0 m 517 733 l 290 310 l 578 310 l 517 733 z "},"Б":{"ha":791,"x_min":46,"x_max":783,"o":"m 783 993 l 762 875 l 338 875 l 289 599 q 421 607 347 607 q 654 539 568 607 q 741 354 741 471 q 631 100 741 200 q 317 0 522 0 l 46 0 l 221 993 l 783 993 m 204 115 q 314 109 293 109 q 521 173 447 109 q 595 345 595 237 q 395 498 595 498 q 268 489 318 498 l 204 115 z "},"В":{"ha":791,"x_min":46,"x_max":760,"o":"m 46 0 l 222 993 q 414 1008 328 1008 q 760 774 760 1008 q 709 633 760 694 q 572 547 659 571 q 739 326 739 494 q 622 81 739 170 q 253 -8 504 -8 q 46 0 176 -8 m 339 888 l 292 607 q 393 603 351 603 q 621 778 621 603 q 444 895 621 895 q 339 888 415 895 m 269 493 l 203 115 q 300 107 257 107 q 525 169 452 107 q 597 321 597 230 q 540 455 597 412 q 364 498 483 498 q 269 493 311 498 z "},"Г":{"ha":721,"x_min":46,"x_max":800,"o":"m 800 993 l 779 871 l 340 871 l 186 0 l 46 0 l 221 993 l 800 993 z "},"Д":{"ha":950,"x_min":-87,"x_max":946,"o":"m 946 993 l 789 114 l 895 114 l 825 -285 l 699 -285 l 749 0 l 89 0 l 39 -285 l -87 -285 l -18 114 l 39 114 q 238 371 155 241 q 380 628 322 500 q 524 993 437 756 l 946 993 m 793 879 l 606 879 q 191 114 438 396 l 656 114 l 793 879 z "},"Е":{"ha":760,"x_min":46,"x_max":822,"o":"m 342 871 l 293 596 l 623 596 l 602 481 l 273 481 l 210 122 l 660 122 l 639 0 l 46 0 l 221 993 l 822 993 l 799 871 l 342 871 z "},"Ж":{"ha":1234,"x_min":-3,"x_max":1284,"o":"m 1284 996 l 1264 879 q 1235 880 1259 880 q 1192 863 1208 880 q 1153 785 1175 846 q 889 521 1072 564 q 1067 210 1067 443 q 1076 131 1067 149 q 1111 114 1085 114 q 1141 117 1126 114 l 1121 -4 q 1079 -7 1111 -7 q 968 35 1000 -7 q 936 175 936 76 q 881 403 936 337 q 714 469 826 469 l 631 0 l 497 0 l 581 469 q 381 402 460 469 q 252 182 302 334 q 173 36 216 79 q 47 -7 130 -7 q -3 -4 7 -7 l 20 117 q 47 114 35 114 q 90 134 72 114 q 132 221 108 154 q 415 526 218 460 q 245 790 245 583 q 235 863 245 846 q 199 880 225 880 q 167 879 172 880 l 189 996 q 231 999 210 999 q 341 956 309 999 q 372 819 372 913 q 426 639 372 697 q 600 581 479 581 l 675 993 l 808 993 l 733 581 q 1034 817 954 581 q 1109 956 1065 913 q 1238 999 1153 999 q 1284 996 1263 999 z "},"З":{"ha":720,"x_min":9,"x_max":711,"o":"m 170 966 q 447 1011 314 1011 q 640 954 568 1011 q 711 796 711 897 q 643 624 711 693 q 500 533 574 554 q 622 457 579 511 q 664 329 664 404 q 617 163 664 246 q 478 32 571 81 q 261 -17 385 -17 q 9 36 116 -17 l 53 165 q 282 100 151 100 q 454 161 385 100 q 524 321 524 222 q 467 439 524 397 q 306 481 410 481 q 227 478 275 481 l 248 591 q 336 589 299 589 q 513 644 446 589 q 581 782 581 700 q 539 869 581 838 q 428 900 498 900 q 205 843 321 900 l 170 966 z "},"И":{"ha":932,"x_min":46,"x_max":957,"o":"m 957 1010 l 779 0 l 640 0 l 761 693 l 82 -17 l 46 -17 l 224 993 l 363 993 l 241 300 l 921 1010 l 957 1010 z "},"Й":{"ha":932,"x_min":46,"x_max":957,"o":"m 957 1010 l 779 0 l 640 0 l 761 693 l 82 -17 l 46 -17 l 224 993 l 363 993 l 241 300 l 921 1010 l 957 1010 m 873 1275 q 612 1072 821 1072 q 463 1121 518 1072 q 407 1251 407 1170 q 412 1303 407 1270 l 529 1293 q 524 1253 524 1267 q 552 1188 524 1212 q 631 1164 581 1164 q 766 1305 745 1164 l 873 1275 z "},"К":{"ha":846,"x_min":46,"x_max":897,"o":"m 897 996 l 876 879 q 847 880 871 880 q 805 862 823 880 q 765 782 788 843 q 482 522 686 568 q 628 411 581 484 q 676 211 676 338 q 687 132 676 150 q 726 114 699 114 q 758 117 743 114 l 736 -4 q 688 -7 725 -7 q 576 33 610 -7 q 542 175 542 73 q 485 396 542 326 q 279 467 429 467 l 267 467 l 184 0 l 46 0 l 221 993 l 359 993 l 288 582 l 296 582 q 518 641 437 582 q 647 836 599 699 q 722 961 679 924 q 852 999 766 999 q 897 996 876 999 z "},"Л":{"ha":937,"x_min":-26,"x_max":962,"o":"m 962 993 l 786 0 l 648 0 l 806 873 l 587 873 q 489 555 549 722 q 361 265 429 389 q 234 84 293 141 q 117 9 176 28 q -26 -9 58 -9 l -3 119 q 81 136 43 119 q 166 202 119 153 q 276 376 213 251 q 396 662 339 500 q 501 993 452 823 l 962 993 z "},"М":{"ha":1044,"x_min":-18,"x_max":961,"o":"m 825 0 l 811 614 l 481 -14 l 447 -14 l 339 624 l 113 0 l -18 0 l 336 993 l 407 993 l 518 296 l 869 993 l 933 993 l 961 0 l 825 0 z "},"Н":{"ha":908,"x_min":46,"x_max":933,"o":"m 619 0 l 704 481 l 269 481 l 184 0 l 46 0 l 221 993 l 361 993 l 290 596 l 724 596 l 794 993 l 933 993 l 757 0 l 619 0 z "},"О":{"ha":937,"x_min":78,"x_max":930,"o":"m 78 366 q 216 818 78 625 q 579 1011 354 1011 q 840 918 750 1011 q 930 648 930 825 q 789 170 930 357 q 399 -17 648 -17 q 163 89 248 -17 q 78 366 78 195 m 222 383 q 273 181 222 256 q 419 106 323 106 q 689 263 590 106 q 787 635 787 420 q 568 890 787 890 q 392 818 471 890 q 268 620 313 745 q 222 383 222 496 z "},"П":{"ha":884,"x_min":46,"x_max":908,"o":"m 908 993 l 733 0 l 595 0 l 749 871 l 339 871 l 184 0 l 46 0 l 221 993 l 908 993 z "},"Р":{"ha":779,"x_min":46,"x_max":802,"o":"m 256 382 l 187 0 l 46 0 l 228 993 q 427 1007 347 1007 q 802 718 802 1007 q 688 460 802 554 q 390 367 575 367 q 256 382 323 367 m 342 871 l 277 504 q 386 486 313 486 q 584 543 510 486 q 657 704 657 600 q 460 888 657 888 q 342 871 404 888 z "},"С":{"ha":783,"x_min":81,"x_max":802,"o":"m 802 979 l 764 846 q 603 890 707 890 q 334 730 444 890 q 224 385 224 570 q 457 106 224 106 q 690 203 576 106 l 679 60 q 421 -17 597 -17 q 169 83 257 -17 q 81 359 81 183 q 225 818 81 625 q 611 1011 370 1011 q 802 979 727 1011 z "},"Т":{"ha":860,"x_min":138,"x_max":940,"o":"m 591 871 l 439 0 l 300 0 l 453 871 l 138 871 l 158 993 l 940 993 l 920 871 l 591 871 z "},"У":{"ha":806,"x_min":46,"x_max":909,"o":"m 909 993 q 658 470 774 669 q 449 173 543 271 q 262 32 356 74 q 46 -9 168 -9 l 72 122 q 376 279 254 122 l 131 993 l 278 993 l 473 393 q 760 993 633 645 l 909 993 z "},"Ф":{"ha":1040,"x_min":83,"x_max":1028,"o":"m 693 899 q 938 805 848 892 q 1028 582 1028 718 q 898 259 1028 400 q 554 107 768 118 l 532 -14 l 396 -14 l 418 107 q 173 202 262 114 q 83 427 83 290 q 215 747 83 607 q 557 899 347 888 l 578 1014 l 714 1014 l 693 899 m 571 211 q 806 329 718 218 q 893 574 893 439 q 836 731 893 671 q 673 794 779 790 l 571 211 m 541 794 q 306 680 393 787 q 218 435 218 572 q 275 276 218 337 q 437 211 332 216 l 541 794 z "},"Х":{"ha":799,"x_min":-35,"x_max":882,"o":"m 572 0 l 414 393 l 125 0 l -35 0 l 361 518 l 163 993 l 309 993 l 454 633 l 726 993 l 882 993 l 505 505 l 724 0 l 572 0 z "},"Ц":{"ha":896,"x_min":46,"x_max":892,"o":"m 892 993 l 737 121 l 843 121 l 771 -285 l 644 -285 l 694 0 l 46 0 l 221 993 l 359 993 l 205 121 l 599 121 l 753 993 l 892 993 z "},"Ч":{"ha":828,"x_min":143,"x_max":852,"o":"m 852 993 l 677 0 l 541 0 l 611 400 q 428 378 511 378 q 218 442 293 378 q 143 624 143 506 q 152 711 143 662 l 203 993 l 343 993 l 304 771 q 289 673 290 688 q 288 642 288 657 q 453 490 288 490 q 631 515 534 490 l 715 993 l 852 993 z "},"Ш":{"ha":1238,"x_min":46,"x_max":1263,"o":"m 1263 993 l 1088 0 l 46 0 l 221 993 l 354 993 l 200 115 l 521 115 l 675 993 l 808 993 l 654 115 l 975 115 l 1129 993 l 1263 993 z "},"Щ":{"ha":1261,"x_min":46,"x_max":1257,"o":"m 1257 993 l 1103 119 l 1206 119 l 1133 -285 l 1007 -285 l 1057 0 l 46 0 l 221 993 l 354 993 l 200 115 l 518 115 l 672 993 l 806 993 l 652 115 l 970 115 l 1124 993 l 1257 993 z "},"Ъ":{"ha":1031,"x_min":138,"x_max":981,"o":"m 532 615 q 661 624 593 624 q 896 557 812 624 q 981 372 981 491 q 932 189 981 277 q 783 50 884 100 q 547 0 682 0 l 288 0 l 441 875 l 138 875 l 158 993 l 600 993 l 532 615 m 446 114 q 547 109 508 109 q 756 176 677 109 q 836 354 836 243 q 784 473 836 432 q 632 514 731 514 q 513 504 563 514 l 446 114 z "},"Ы":{"ha":1074,"x_min":46,"x_max":1099,"o":"m 288 615 q 407 624 352 624 q 640 557 555 624 q 725 371 725 490 q 676 187 725 276 q 526 49 627 98 q 293 0 425 0 l 46 0 l 221 993 l 355 993 l 288 615 m 200 111 q 294 106 273 106 q 504 175 425 106 q 583 357 583 243 q 379 515 583 515 q 267 505 316 515 l 200 111 m 1099 993 l 924 0 l 790 0 l 965 993 l 1099 993 z "},"Ь":{"ha":800,"x_min":46,"x_max":750,"o":"m 290 614 q 431 624 361 624 q 666 557 581 624 q 750 372 750 491 q 702 189 750 277 q 552 50 654 100 q 317 0 451 0 l 46 0 l 221 993 l 358 993 l 290 614 m 204 114 q 317 109 281 109 q 526 176 448 109 q 604 355 604 244 q 401 513 604 513 q 271 501 329 513 l 204 114 z "},"Э":{"ha":789,"x_min":17,"x_max":777,"o":"m 176 965 q 433 1011 322 1011 q 689 913 601 1011 q 777 632 777 816 q 633 169 777 355 q 250 -17 490 -17 q 17 31 126 -17 l 57 164 q 262 103 146 103 q 488 201 392 103 q 621 471 583 298 l 258 471 l 281 581 l 637 581 q 639 627 639 595 q 406 893 639 893 q 212 836 324 893 l 176 965 z "},"Ю":{"ha":1236,"x_min":46,"x_max":1226,"o":"m 452 596 q 618 903 504 795 q 893 1011 733 1011 q 1137 912 1048 1011 q 1226 650 1226 814 q 1094 179 1226 375 q 726 -17 962 -17 q 499 86 581 -17 q 418 364 418 190 q 428 482 418 413 l 265 482 l 180 0 l 46 0 l 221 993 l 355 993 l 286 596 l 452 596 m 745 102 q 997 264 907 102 q 1088 636 1088 427 q 1034 824 1088 755 q 879 893 981 893 q 645 738 734 893 q 555 382 555 583 q 745 102 555 102 z "},"Я":{"ha":831,"x_min":-17,"x_max":856,"o":"m 856 990 l 681 0 l 543 0 l 619 431 l 561 432 q 224 172 311 432 q 146 30 189 66 q 25 -7 103 -7 q -17 -4 -6 -7 l 5 117 q 29 114 20 114 q 64 130 50 114 q 98 205 77 145 q 358 475 179 435 q 167 689 167 522 q 280 910 167 815 q 611 1004 394 1004 q 856 990 696 1004 m 699 879 q 571 888 631 888 q 379 833 449 888 q 310 690 310 779 q 335 612 310 645 q 411 561 361 579 q 530 542 460 543 l 639 541 l 699 879 z "},"а":{"ha":749,"x_min":60,"x_max":732,"o":"m 732 681 l 644 260 q 635 182 635 219 q 676 0 635 94 l 545 0 q 510 96 519 42 q 409 14 465 41 q 286 -14 353 -14 q 123 48 186 -14 q 60 232 60 110 q 180 589 60 435 q 482 742 300 742 q 732 681 649 742 m 589 606 q 467 636 568 636 q 278 522 360 636 q 196 236 196 408 q 319 94 196 94 q 423 124 374 94 q 489 184 472 153 q 524 296 507 214 l 589 606 z "},"б":{"ha":803,"x_min":78,"x_max":836,"o":"m 836 928 q 743 899 793 907 q 596 885 694 890 q 380 814 454 877 q 260 608 307 751 q 372 674 306 650 q 501 699 439 699 q 703 626 631 699 q 775 425 775 553 q 663 120 775 254 q 361 -14 551 -14 q 153 69 227 -14 q 78 297 78 152 q 152 654 78 465 q 337 920 226 844 q 624 1007 448 996 q 806 1042 747 1014 l 836 928 m 380 92 q 565 187 488 92 q 642 410 642 283 q 460 596 642 596 q 383 585 426 596 q 291 548 340 574 q 232 488 241 522 q 215 400 222 454 q 208 297 208 346 q 254 145 208 199 q 380 92 300 92 z "},"в":{"ha":749,"x_min":53,"x_max":710,"o":"m 710 559 q 663 441 710 493 q 534 372 615 390 q 646 314 608 355 q 685 215 685 273 q 596 52 685 119 q 332 -16 507 -16 q 184 2 265 -16 q 78 34 104 20 q 53 64 53 48 q 86 248 53 72 q 136 492 127 463 q 193 609 157 560 q 274 688 229 658 q 371 731 319 718 q 478 745 422 745 q 648 693 585 745 q 710 559 710 641 m 237 414 l 364 414 q 586 549 586 414 q 556 619 586 591 q 468 647 527 647 q 237 414 275 647 m 186 123 q 245 94 197 106 q 350 82 294 82 q 499 117 442 82 q 557 216 557 152 q 518 295 557 264 q 399 325 479 325 l 222 325 l 186 123 z "},"г":{"ha":631,"x_min":37,"x_max":629,"o":"m 140 686 q 393 741 271 741 q 569 692 508 741 q 629 559 629 644 q 590 446 629 494 q 427 351 551 397 q 286 298 343 321 q 203 249 228 275 q 179 183 179 223 q 297 94 179 94 q 542 172 421 94 l 526 36 q 281 -14 396 -14 q 101 37 165 -14 q 37 179 37 88 q 240 397 37 326 q 448 480 405 456 q 490 553 490 505 q 461 610 490 588 q 379 632 432 632 q 193 572 298 632 l 140 686 z "},"д":{"ha":812,"x_min":57,"x_max":808,"o":"m 256 1025 q 468 1039 402 1039 q 808 713 808 1039 q 753 376 808 570 q 591 84 698 181 q 349 -14 485 -14 q 135 61 212 -14 q 57 261 57 136 q 169 566 57 431 q 457 700 281 700 q 675 616 580 700 q 681 704 681 662 q 626 876 681 821 q 447 932 570 932 q 273 904 376 932 l 256 1025 m 663 528 q 449 597 571 597 q 270 499 349 597 q 191 271 191 400 q 234 139 191 186 q 357 92 277 92 q 543 205 464 92 q 663 528 623 318 z "},"е":{"ha":713,"x_min":61,"x_max":713,"o":"m 195 345 q 193 304 193 337 q 247 145 193 197 q 375 94 300 94 q 549 154 459 94 l 533 24 q 342 -14 437 -14 q 61 297 61 -14 q 181 612 61 483 q 479 741 301 741 q 648 694 583 741 q 713 561 713 648 q 612 373 713 438 q 367 307 512 307 q 195 345 263 307 m 216 437 q 346 412 275 412 q 522 448 458 412 q 585 543 585 483 q 554 607 585 583 q 468 632 524 632 q 319 582 385 632 q 216 437 254 532 z "},"ж":{"ha":1023,"x_min":8,"x_max":1040,"o":"m 1040 730 l 1018 619 q 991 621 1014 621 q 961 610 970 621 q 943 576 951 599 q 734 379 878 410 q 880 153 871 325 q 889 117 882 129 q 921 106 897 106 q 943 109 929 106 l 921 -4 q 885 -7 901 -7 q 761 131 761 -7 q 587 330 761 330 l 530 0 l 406 0 l 464 330 q 313 285 368 330 q 216 122 259 240 q 153 24 193 56 q 47 -7 113 -7 q 8 -4 33 -7 l 29 107 q 54 106 33 106 q 89 122 77 106 q 110 163 100 138 q 325 386 183 351 q 192 572 199 426 q 183 609 190 597 q 153 621 176 621 q 125 619 129 621 l 147 730 q 182 733 167 733 q 307 603 307 733 q 349 476 307 516 q 482 436 391 436 l 533 726 l 657 726 l 606 436 q 749 478 695 436 q 838 616 803 519 q 894 706 860 678 q 1000 733 928 733 q 1040 730 1015 733 z "},"з":{"ha":628,"x_min":0,"x_max":607,"o":"m 132 700 q 383 741 252 741 q 543 693 479 741 q 607 567 607 646 q 441 380 607 429 q 568 227 568 340 q 481 54 568 121 q 241 -14 395 -14 q 0 45 102 -14 l 68 168 q 267 92 155 92 q 388 130 343 92 q 433 229 433 168 q 292 332 433 332 q 208 328 243 332 l 228 431 q 310 429 240 429 q 430 463 387 429 q 472 550 472 497 q 443 612 472 589 q 361 635 414 635 q 164 579 267 635 l 132 700 z "},"и":{"ha":790,"x_min":83,"x_max":777,"o":"m 310 726 l 223 251 q 221 208 221 239 q 338 94 221 94 q 477 149 409 94 q 560 286 545 203 l 640 726 l 777 726 l 643 0 l 509 0 l 526 103 q 264 -14 452 -14 q 132 37 180 -14 q 83 179 83 87 q 89 242 83 211 l 175 726 l 310 726 z "},"й":{"ha":790,"x_min":83,"x_max":777,"o":"m 310 726 l 223 251 q 221 208 221 239 q 338 94 221 94 q 477 149 409 94 q 560 286 545 203 l 640 726 l 777 726 l 643 0 l 509 0 l 526 103 q 264 -14 452 -14 q 132 37 180 -14 q 83 179 83 87 q 89 242 83 211 l 175 726 l 310 726 m 746 1029 q 490 831 696 831 q 343 879 398 831 q 289 1006 289 926 q 294 1057 289 1024 l 408 1047 q 403 1007 403 1024 q 431 944 403 967 q 509 921 460 921 q 642 1060 620 921 l 746 1029 z "},"к":{"ha":726,"x_min":52,"x_max":743,"o":"m 743 730 l 722 619 q 696 621 715 621 q 668 613 680 621 q 646 576 657 605 q 428 379 581 411 q 578 154 568 324 q 589 115 580 123 q 618 106 598 106 q 644 109 629 106 l 623 -4 q 579 -7 601 -7 q 453 131 453 -7 q 401 279 453 228 q 253 330 350 330 l 241 330 l 183 0 l 52 0 l 179 726 l 311 726 l 260 436 l 272 436 q 436 479 374 436 q 532 616 498 523 q 589 706 555 679 q 694 733 623 733 q 743 730 712 733 z "},"л":{"ha":807,"x_min":-11,"x_max":794,"o":"m 794 726 l 665 0 l 534 0 l 644 618 l 440 618 q 349 292 393 406 q 252 110 305 178 q 138 17 199 43 q -1 -9 77 -9 l -11 -9 l 14 111 q 205 261 132 111 q 342 726 278 411 l 794 726 z "},"м":{"ha":1022,"x_min":1,"x_max":930,"o":"m 796 0 l 800 435 l 488 -12 l 454 -12 l 311 437 l 136 0 l 1 0 l 313 741 l 347 741 l 515 211 l 885 741 l 921 741 l 930 0 l 796 0 z "},"н":{"ha":783,"x_min":52,"x_max":771,"o":"m 771 726 l 642 0 l 510 0 l 568 328 l 241 328 l 183 0 l 52 0 l 179 726 l 311 726 l 260 435 l 586 435 l 637 726 l 771 726 z "},"о":{"ha":751,"x_min":58,"x_max":733,"o":"m 58 267 q 106 496 58 386 q 249 673 155 606 q 461 741 342 741 q 663 669 592 741 q 733 465 733 598 q 623 130 733 273 q 328 -14 513 -14 q 128 59 198 -14 q 58 267 58 132 m 193 275 q 347 92 193 92 q 530 205 462 92 q 597 460 597 319 q 443 635 597 635 q 261 524 330 635 q 193 275 193 413 z "},"п":{"ha":771,"x_min":54,"x_max":720,"o":"m 494 0 l 572 425 q 581 517 581 475 q 461 632 581 632 q 385 615 425 632 q 312 572 345 598 q 279 541 280 547 l 184 0 l 54 0 l 151 550 q 155 596 155 571 q 142 715 155 659 l 265 741 q 283 632 283 644 q 522 741 367 741 q 720 539 720 741 q 713 469 720 506 l 632 0 l 494 0 z "},"р":{"ha":777,"x_min":0,"x_max":757,"o":"m 184 36 l 127 -289 l 0 -289 l 142 510 q 151 614 151 563 q 142 713 151 665 l 271 736 q 283 643 275 728 q 372 708 313 681 q 486 736 431 736 q 757 467 757 736 q 701 213 757 323 q 554 43 644 102 q 342 -17 465 -17 q 252 -1 306 -17 q 184 36 199 14 m 204 143 q 253 107 215 123 q 323 92 290 92 q 542 186 465 92 q 619 450 619 281 q 439 628 619 628 q 398 621 420 628 q 352 603 376 615 q 321 585 337 595 q 298 568 309 577 q 280 551 288 559 q 258 455 274 544 l 204 143 z "},"с":{"ha":633,"x_min":61,"x_max":629,"o":"m 629 703 l 606 593 q 475 632 555 632 q 274 534 351 632 q 196 290 196 435 q 215 195 196 236 q 274 125 235 154 q 359 97 313 97 q 549 157 458 97 l 533 26 q 339 -14 444 -14 q 134 62 207 -14 q 61 268 61 137 q 175 608 61 476 q 465 741 290 741 q 629 703 569 741 z "},"т":{"ha":1168,"x_min":54,"x_max":1117,"o":"m 892 0 l 954 351 q 978 513 978 483 q 859 632 978 632 q 788 615 823 632 q 701 538 752 597 l 606 0 l 473 0 l 566 517 q 567 538 567 524 q 439 632 567 632 q 337 590 391 632 q 281 536 283 549 l 186 0 l 54 0 l 149 529 q 153 593 153 554 q 139 715 153 664 l 264 739 q 278 644 275 690 q 369 715 307 690 q 498 741 431 741 q 700 643 653 741 q 793 713 730 686 q 920 741 856 741 q 1117 551 1117 741 q 1111 486 1117 517 l 1023 0 l 892 0 z "},"у":{"ha":701,"x_min":49,"x_max":772,"o":"m 49 -285 l 49 -160 q 203 -136 142 -160 q 310 -3 264 -112 q 178 184 208 3 l 87 726 l 231 726 l 307 200 q 364 117 318 117 l 627 726 l 772 726 l 415 -66 q 280 -239 358 -193 q 49 -285 202 -285 z "},"ф":{"ha":1044,"x_min":61,"x_max":1018,"o":"m 653 696 q 800 737 726 737 q 961 668 905 737 q 1018 472 1018 599 q 925 140 1018 288 q 682 -8 833 -8 q 551 31 614 -8 q 520 -141 531 -105 q 479 -214 509 -178 q 401 -273 449 -250 q 283 -306 353 -296 l 271 -225 q 345 -196 313 -219 q 391 -143 376 -173 q 414 -67 407 -114 l 428 31 q 267 -9 355 -9 q 118 55 175 -9 q 61 256 61 119 q 154 589 61 441 q 412 736 246 736 q 529 699 477 736 q 562 874 551 837 q 601 948 572 911 q 679 1008 630 985 q 803 1043 728 1032 l 815 962 q 734 930 766 954 q 689 875 703 905 q 668 796 675 844 l 653 696 m 566 126 q 665 87 616 87 q 837 213 780 87 q 893 469 893 338 q 766 642 893 642 q 637 599 715 642 l 566 126 m 515 607 q 414 640 469 640 q 246 523 306 640 q 186 256 186 406 q 317 86 186 86 q 444 134 364 86 l 515 607 z "},"х":{"ha":714,"x_min":-12,"x_max":749,"o":"m 496 0 l 364 281 l 153 0 l -12 0 l 304 378 l 123 726 l 273 726 l 395 471 l 590 726 l 749 726 l 450 372 l 648 0 l 496 0 z "},"ц":{"ha":819,"x_min":83,"x_max":765,"o":"m 765 86 l 701 -237 l 579 -237 l 628 -7 q 533 93 547 -7 q 286 -14 437 -14 q 136 37 188 -14 q 83 183 83 87 q 90 255 83 219 l 175 726 l 311 726 l 252 399 q 228 247 230 271 q 225 204 225 224 q 257 123 225 151 q 349 94 289 94 q 445 121 391 94 q 533 189 498 149 l 628 726 l 760 726 l 665 192 q 661 155 661 171 q 685 103 661 119 q 765 86 708 86 z "},"ч":{"ha":757,"x_min":122,"x_max":743,"o":"m 743 726 l 615 0 l 485 0 l 538 292 q 355 262 443 262 q 185 314 249 262 q 122 471 122 366 q 130 547 122 504 l 164 726 l 296 726 q 262 533 264 547 q 260 494 260 519 q 389 371 260 371 q 555 399 479 371 l 612 726 l 743 726 z "},"ш":{"ha":1160,"x_min":83,"x_max":1146,"o":"m 1146 726 l 1035 100 q 1022 0 1027 58 l 890 0 l 900 82 q 679 -14 808 -14 q 510 94 547 -14 q 279 -14 412 -14 q 136 36 189 -14 q 83 172 83 85 q 89 240 83 210 l 176 726 l 309 726 l 244 365 q 220 203 220 227 q 332 94 220 94 q 443 137 390 94 q 498 192 496 180 l 595 726 l 726 726 l 635 210 q 633 189 633 203 q 732 94 633 94 q 823 120 772 94 q 918 192 874 145 l 1014 726 l 1146 726 z "},"щ":{"ha":1200,"x_min":89,"x_max":1146,"o":"m 1086 -237 l 960 -237 l 1008 -7 q 945 19 970 -7 q 913 93 919 45 q 676 -14 814 -14 q 510 94 547 -14 q 282 -14 418 -14 q 141 36 193 -14 q 89 172 89 85 q 94 240 89 210 l 182 726 l 314 726 l 250 365 q 225 203 225 227 q 335 94 225 94 q 444 137 392 94 q 498 192 496 180 l 595 726 l 725 726 l 633 210 q 632 189 632 203 q 729 94 632 94 q 911 189 819 94 l 1007 726 l 1139 726 l 1044 192 q 1040 155 1040 173 q 1065 102 1040 117 q 1146 86 1090 86 l 1086 -237 z "},"ъ":{"ha":896,"x_min":93,"x_max":842,"o":"m 427 437 q 597 467 516 467 q 777 407 711 467 q 842 248 842 348 q 750 56 842 126 q 501 -14 659 -14 q 351 4 431 -14 q 222 50 271 22 l 332 618 l 93 618 l 114 726 l 484 726 l 427 437 m 367 127 q 422 101 378 113 q 517 90 467 90 q 657 130 602 90 q 713 240 713 170 q 674 329 713 298 q 566 361 636 361 q 407 335 493 361 l 367 127 z "},"ы":{"ha":1023,"x_min":56,"x_max":1011,"o":"m 260 437 q 429 467 349 467 q 607 408 543 467 q 671 248 671 349 q 580 55 671 124 q 334 -14 489 -14 q 184 4 263 -14 q 56 50 104 22 l 186 726 l 317 726 l 260 437 m 199 127 q 254 101 210 113 q 349 90 299 90 q 487 129 432 90 q 542 240 542 168 q 397 361 542 361 q 239 335 325 361 l 199 127 m 1011 726 l 884 0 l 753 0 l 880 726 l 1011 726 z "},"ь":{"ha":745,"x_min":57,"x_max":690,"o":"m 261 435 q 443 467 360 467 q 625 408 559 467 q 690 248 690 349 q 600 57 690 128 q 343 -14 509 -14 q 188 4 270 -14 q 57 50 106 22 l 187 726 l 318 726 l 261 435 m 201 127 q 258 101 212 113 q 355 90 304 90 q 498 128 439 90 q 557 240 557 166 q 411 361 557 361 q 241 332 341 361 l 201 127 z "},"э":{"ha":636,"x_min":5,"x_max":612,"o":"m 143 713 q 340 741 247 741 q 543 667 473 741 q 612 454 612 593 q 507 114 612 241 q 216 -14 401 -14 q 5 22 117 -14 l 54 144 q 227 93 132 93 q 469 326 417 93 l 176 326 l 195 427 l 481 427 l 481 449 q 326 635 481 635 q 178 597 262 635 l 143 713 z "},"ю":{"ha":1018,"x_min":52,"x_max":996,"o":"m 396 433 q 530 656 437 571 q 747 741 623 741 q 930 671 865 741 q 996 481 996 602 q 892 128 996 269 q 616 -14 789 -14 q 434 55 498 -14 q 371 253 371 123 q 376 329 371 278 l 236 329 l 178 0 l 52 0 l 179 726 l 306 726 l 254 433 l 396 433 m 629 90 q 756 150 699 90 q 840 306 813 210 q 867 476 867 402 q 736 636 867 636 q 567 521 639 636 q 494 254 494 406 q 629 90 494 90 z "},"я":{"ha":733,"x_min":-1,"x_max":713,"o":"m 282 335 q 139 486 139 363 q 230 663 139 589 q 484 736 320 736 q 621 726 556 736 q 699 709 686 716 q 713 689 713 701 q 711 677 713 686 l 591 0 l 467 0 l 519 294 l 471 294 q 303 252 363 294 q 212 117 243 210 q 47 -7 172 -7 q -1 -4 26 -7 l 20 106 q 46 104 26 104 q 94 151 78 104 q 165 270 121 227 q 282 335 209 313 m 576 618 q 453 636 549 636 q 320 599 372 636 q 269 500 269 562 q 288 440 269 465 q 341 401 306 415 q 428 387 377 388 l 534 386 l 576 618 z "},"ё":{"ha":713,"x_min":61,"x_max":713,"o":"m 195 345 q 193 304 193 337 q 247 145 193 197 q 375 94 300 94 q 549 154 459 94 l 533 24 q 342 -14 437 -14 q 61 297 61 -14 q 181 612 61 483 q 479 741 301 741 q 648 694 583 741 q 713 561 713 648 q 612 373 713 438 q 367 307 512 307 q 195 345 263 307 m 216 437 q 346 412 275 412 q 522 448 458 412 q 585 543 585 483 q 554 607 585 583 q 468 632 524 632 q 319 582 385 632 q 216 437 254 532 m 624 996 q 678 975 656 996 q 700 921 700 954 q 676 865 700 885 q 624 844 652 844 q 569 866 591 844 q 547 921 547 888 q 568 974 547 952 q 624 996 589 996 m 353 996 q 408 974 386 996 q 429 921 429 953 q 405 865 429 885 q 353 844 381 844 q 299 866 322 844 q 277 921 277 887 q 299 975 277 954 q 353 996 321 996 z "},"ђ":{"ha":765,"x_min":53,"x_max":714,"o":"m 293 611 q 384 676 324 650 q 511 703 444 703 q 661 649 608 703 q 714 496 714 595 q 688 315 714 461 l 642 55 q 604 -96 623 -52 q 556 -175 585 -140 q 485 -236 526 -211 q 386 -274 444 -260 q 253 -288 328 -288 l 260 -174 q 385 -156 340 -174 q 455 -107 431 -138 q 492 -29 480 -75 l 539 229 q 579 471 579 454 q 457 597 579 597 q 337 557 398 597 q 275 505 277 517 l 184 0 l 53 0 l 193 807 l 96 807 l 113 901 l 211 901 l 232 1023 l 359 1023 l 340 901 l 597 901 l 581 807 l 323 807 l 293 611 z "},"ѓ":{"ha":631,"x_min":37,"x_max":629,"o":"m 140 686 q 393 741 271 741 q 569 692 508 741 q 629 559 629 644 q 590 446 629 494 q 427 351 551 397 q 286 298 343 321 q 203 249 228 275 q 179 183 179 223 q 297 94 179 94 q 542 172 421 94 l 526 36 q 281 -14 396 -14 q 101 37 165 -14 q 37 179 37 88 q 240 397 37 326 q 448 480 405 456 q 490 553 490 505 q 461 610 490 588 q 379 632 432 632 q 193 572 298 632 l 140 686 m 611 1057 l 458 831 l 364 831 l 478 1057 l 611 1057 z "},"є":{"ha":633,"x_min":61,"x_max":629,"o":"m 629 707 l 606 596 q 461 635 543 635 q 211 427 275 635 l 494 427 l 476 326 l 195 326 l 193 281 q 235 141 193 190 q 357 93 277 93 q 549 154 456 93 l 533 25 q 339 -14 448 -14 q 132 63 202 -14 q 61 268 61 140 q 164 601 61 461 q 468 741 268 741 q 629 707 559 741 z "},"ѕ":{"ha":572,"x_min":11,"x_max":566,"o":"m 11 43 l 79 165 q 153 117 103 140 q 239 94 203 94 q 340 128 300 94 q 379 215 379 162 q 307 306 379 267 l 205 363 q 124 434 146 396 q 103 517 103 471 q 181 679 103 618 q 375 741 260 741 q 566 690 455 741 l 509 571 q 366 632 441 632 q 278 606 316 632 q 240 536 240 579 q 257 488 240 510 q 313 444 274 466 l 399 397 q 459 361 445 372 q 488 330 474 350 q 510 287 503 310 q 517 239 517 264 q 428 51 517 115 q 216 -14 338 -14 q 11 43 104 -14 z "},"і":{"ha":403,"x_min":110,"x_max":408,"o":"m 318 1011 q 381 985 355 1011 q 408 921 408 960 q 382 857 408 882 q 318 832 356 832 q 253 858 278 832 q 228 921 228 884 q 254 984 228 958 q 318 1011 279 1011 m 110 0 l 220 618 l 123 618 l 147 724 l 370 724 l 241 0 l 110 0 z "},"ї":{"ha":403,"x_min":77,"x_max":500,"o":"m 110 0 l 220 618 l 123 618 l 147 724 l 370 724 l 241 0 l 110 0 m 424 996 q 478 975 456 996 q 500 921 500 954 q 477 866 500 887 q 424 844 454 844 q 369 866 391 844 q 347 921 347 888 q 369 974 347 953 q 424 996 390 996 m 153 996 q 208 974 186 996 q 229 921 229 953 q 206 866 229 887 q 153 844 183 844 q 99 866 122 844 q 77 921 77 887 q 99 975 77 954 q 153 996 121 996 z "},"ј":{"ha":418,"x_min":-153,"x_max":427,"o":"m 336 1011 q 401 984 375 1011 q 427 921 427 956 q 401 858 427 884 q 336 832 376 832 q 271 858 297 832 q 245 921 245 884 q 272 984 245 958 q 336 1011 298 1011 m -153 -282 l -147 -168 q 119 3 87 -168 l 236 618 l 140 618 l 164 726 l 386 726 l 256 11 q 127 -214 227 -146 q -153 -282 27 -282 z "},"љ":{"ha":1202,"x_min":-11,"x_max":1147,"o":"m 741 437 q 907 467 829 467 q 1084 408 1020 467 q 1147 248 1147 349 q 1057 55 1147 123 q 812 -14 966 -14 q 665 4 743 -14 q 538 50 587 22 l 644 618 l 440 618 q 349 292 393 406 q 252 110 305 178 q 138 17 199 43 q -1 -9 77 -9 l -11 -9 l 14 111 q 205 261 132 111 q 342 726 278 411 l 794 726 l 741 437 m 681 126 q 735 100 692 111 q 828 89 779 89 q 965 129 911 89 q 1019 240 1019 168 q 983 331 1019 298 q 875 364 946 364 q 721 338 806 364 l 681 126 z "},"њ":{"ha":1120,"x_min":52,"x_max":1065,"o":"m 657 437 q 825 467 745 467 q 1002 408 938 467 q 1065 248 1065 349 q 975 55 1065 123 q 729 -14 884 -14 q 583 4 660 -14 q 457 50 507 22 l 509 334 l 241 334 l 182 0 l 52 0 l 179 726 l 310 726 l 260 440 l 529 440 l 585 726 l 713 726 l 657 437 m 600 126 q 653 100 611 111 q 745 89 695 89 q 883 128 829 89 q 937 240 937 168 q 901 331 937 298 q 793 364 864 364 q 637 338 723 364 l 600 126 z "},"ћ":{"ha":765,"x_min":53,"x_max":714,"o":"m 293 611 q 384 676 324 650 q 511 703 444 703 q 661 649 608 703 q 714 496 714 595 q 709 431 714 461 l 632 0 l 498 0 l 551 294 q 577 445 575 431 q 579 471 579 459 q 457 597 579 597 q 337 557 398 597 q 275 505 277 517 l 184 0 l 53 0 l 193 807 l 96 807 l 113 901 l 211 901 l 232 1023 l 359 1023 l 340 901 l 597 901 l 581 807 l 323 807 l 293 611 z "},"ќ":{"ha":726,"x_min":52,"x_max":743,"o":"m 743 730 l 722 619 q 696 621 715 621 q 668 613 680 621 q 646 576 657 605 q 428 379 581 411 q 578 154 568 324 q 589 115 580 123 q 618 106 598 106 q 644 109 629 106 l 623 -4 q 579 -7 601 -7 q 453 131 453 -7 q 401 279 453 228 q 253 330 350 330 l 241 330 l 183 0 l 52 0 l 179 726 l 311 726 l 260 436 l 272 436 q 436 479 374 436 q 532 616 498 523 q 589 706 555 679 q 694 733 623 733 q 743 730 712 733 m 657 1057 l 504 831 l 408 831 l 524 1057 l 657 1057 z "},"ў":{"ha":701,"x_min":49,"x_max":772,"o":"m 49 -285 l 49 -160 q 203 -136 142 -160 q 310 -3 264 -112 q 178 184 208 3 l 87 726 l 231 726 l 307 200 q 364 117 318 117 l 627 726 l 772 726 l 415 -66 q 280 -239 358 -193 q 49 -285 202 -285 m 673 1029 q 418 831 623 831 q 271 879 326 831 q 216 1006 216 926 q 222 1057 216 1024 l 336 1047 q 330 1007 330 1024 q 359 944 330 968 q 436 921 387 921 q 570 1060 548 921 l 673 1029 z "},"џ":{"ha":787,"x_min":83,"x_max":774,"o":"m 774 726 l 663 100 q 650 0 654 55 l 517 0 l 526 79 q 385 -3 465 18 l 338 -245 l 214 -245 l 271 -14 q 132 41 180 -10 q 83 179 83 92 q 91 256 83 215 l 176 726 l 311 726 l 226 251 q 224 208 224 239 q 347 94 224 94 q 545 191 452 94 l 640 726 l 774 726 z "},"Ґ":{"ha":721,"x_min":46,"x_max":838,"o":"m 838 1208 l 779 871 l 340 871 l 186 0 l 46 0 l 221 993 l 685 993 l 722 1208 l 838 1208 z "},"ґ":{"ha":610,"x_min":52,"x_max":679,"o":"m 679 908 l 628 618 l 292 618 l 183 0 l 52 0 l 179 726 l 538 726 l 570 908 l 679 908 z "},"Ā":{"ha":848,"x_min":-22,"x_max":859,"o":"m 635 0 l 604 210 l 248 210 l 130 0 l -22 0 l 559 1007 l 595 1007 l 792 0 l 635 0 m 528 734 l 301 309 l 589 309 l 528 734 m 859 1171 l 842 1075 l 341 1075 l 358 1171 l 859 1171 z "},"ā":{"ha":730,"x_min":42,"x_max":745,"o":"m 713 681 l 625 258 q 619 196 619 233 q 652 0 619 90 l 521 0 q 498 73 510 22 q 403 11 466 35 q 269 -14 340 -14 q 102 50 162 -14 q 42 232 42 113 q 160 586 42 431 q 463 740 277 740 q 713 681 637 740 m 571 606 q 448 635 553 635 q 259 521 340 635 q 178 236 178 407 q 307 92 178 92 q 433 161 374 92 q 515 339 492 231 l 571 606 m 745 926 l 728 831 l 228 831 l 245 926 l 745 926 z "},"Ĉ":{"ha":831,"x_min":96,"x_max":825,"o":"m 817 979 l 779 846 q 618 890 722 890 q 349 730 458 890 q 239 385 239 570 q 472 105 239 105 q 705 203 592 105 l 694 60 q 436 -17 611 -17 q 184 83 273 -17 q 96 360 96 184 q 244 822 96 633 q 627 1010 392 1010 q 817 979 745 1010 m 692 1073 l 604 1203 l 460 1073 l 344 1073 l 589 1304 l 661 1304 l 825 1073 l 692 1073 z "},"ĉ":{"ha":639,"x_min":61,"x_max":683,"o":"m 629 703 l 606 593 q 475 631 557 631 q 273 533 350 631 q 196 290 196 434 q 246 150 196 202 q 359 97 296 97 q 548 157 458 97 l 534 26 q 339 -14 445 -14 q 133 63 205 -14 q 61 268 61 140 q 175 608 61 475 q 465 740 289 740 q 629 703 570 740 m 549 829 l 461 959 l 318 829 l 201 829 l 446 1060 l 519 1060 l 683 829 l 549 829 z "},"Ċ":{"ha":831,"x_min":96,"x_max":817,"o":"m 817 979 l 779 846 q 618 890 722 890 q 349 730 458 890 q 239 385 239 570 q 472 105 239 105 q 705 203 592 105 l 694 60 q 436 -17 611 -17 q 184 83 273 -17 q 96 360 96 184 q 244 822 96 633 q 627 1010 392 1010 q 817 979 745 1010 m 609 1234 q 665 1211 642 1234 q 689 1155 689 1187 q 665 1098 689 1122 q 609 1075 642 1075 q 553 1098 576 1075 q 530 1155 530 1122 q 553 1211 530 1188 q 609 1234 576 1234 z "},"ċ":{"ha":639,"x_min":61,"x_max":629,"o":"m 629 703 l 606 593 q 475 631 557 631 q 273 533 350 631 q 196 290 196 434 q 246 150 196 202 q 359 97 296 97 q 548 157 458 97 l 534 26 q 339 -14 445 -14 q 133 63 205 -14 q 61 268 61 140 q 175 608 61 475 q 465 740 289 740 q 629 703 570 740 m 465 990 q 522 967 498 990 q 545 911 545 943 q 522 854 545 878 q 465 831 498 831 q 409 854 432 831 q 386 911 386 878 q 409 967 386 944 q 465 990 432 990 z "},"Ē":{"ha":744,"x_min":32,"x_max":808,"o":"m 328 871 l 279 595 l 608 595 l 587 480 l 259 480 l 196 122 l 646 122 l 625 0 l 32 0 l 208 994 l 808 994 l 785 871 l 328 871 m 784 1171 l 767 1075 l 267 1075 l 283 1171 l 784 1171 z "},"ē":{"ha":746,"x_min":71,"x_max":760,"o":"m 211 343 q 205 281 205 311 q 255 143 205 191 q 395 95 305 95 q 557 154 475 95 l 543 22 q 351 -14 435 -14 q 71 301 71 -14 q 189 613 71 486 q 486 740 307 740 q 658 694 593 740 q 722 562 722 648 q 622 375 722 444 q 376 307 522 307 q 211 343 278 307 m 233 437 q 355 414 285 414 q 528 448 460 414 q 595 548 595 482 q 479 631 595 631 q 233 437 304 631 m 760 926 l 743 831 l 243 831 l 260 926 l 760 926 z "},"Ĕ":{"ha":744,"x_min":32,"x_max":808,"o":"m 328 871 l 279 595 l 608 595 l 587 480 l 259 480 l 196 122 l 646 122 l 625 0 l 32 0 l 208 994 l 808 994 l 785 871 l 328 871 m 773 1295 q 507 1075 734 1075 q 319 1246 319 1075 q 323 1295 319 1270 l 419 1295 q 414 1259 414 1276 q 526 1179 414 1179 q 676 1295 656 1179 l 773 1295 z "},"ĕ":{"ha":746,"x_min":71,"x_max":737,"o":"m 211 343 q 205 281 205 311 q 255 143 205 191 q 395 95 305 95 q 557 154 475 95 l 543 22 q 351 -14 435 -14 q 71 301 71 -14 q 189 613 71 486 q 486 740 307 740 q 658 694 593 740 q 722 562 722 648 q 622 375 722 444 q 376 307 522 307 q 211 343 278 307 m 233 437 q 355 414 285 414 q 528 448 460 414 q 595 548 595 482 q 479 631 595 631 q 233 437 304 631 m 737 1051 q 471 831 699 831 q 283 1002 283 831 q 288 1051 283 1025 l 383 1051 q 378 1015 378 1031 q 490 935 378 935 q 640 1051 620 935 l 737 1051 z "},"Ė":{"ha":744,"x_min":32,"x_max":808,"o":"m 328 871 l 279 595 l 608 595 l 587 480 l 259 480 l 196 122 l 646 122 l 625 0 l 32 0 l 208 994 l 808 994 l 785 871 l 328 871 m 508 1234 q 564 1211 541 1234 q 588 1155 588 1187 q 564 1098 588 1122 q 508 1075 541 1075 q 452 1098 475 1075 q 429 1155 429 1122 q 452 1211 429 1188 q 508 1234 475 1234 z "},"ė":{"ha":746,"x_min":71,"x_max":722,"o":"m 211 343 q 205 281 205 311 q 255 143 205 191 q 395 95 305 95 q 557 154 475 95 l 543 22 q 351 -14 435 -14 q 71 301 71 -14 q 189 613 71 486 q 486 740 307 740 q 658 694 593 740 q 722 562 722 648 q 622 375 722 444 q 376 307 522 307 q 211 343 278 307 m 233 437 q 355 414 285 414 q 528 448 460 414 q 595 548 595 482 q 479 631 595 631 q 233 437 304 631 m 487 990 q 543 967 519 990 q 567 911 567 943 q 543 854 567 878 q 487 831 519 831 q 431 854 454 831 q 408 911 408 878 q 431 967 408 944 q 487 990 454 990 z "},"Ĝ":{"ha":939,"x_min":76,"x_max":876,"o":"m 865 954 l 825 824 q 636 888 738 888 q 337 747 454 888 q 220 392 220 606 q 491 105 220 105 q 678 170 600 105 l 720 403 l 582 403 l 602 518 l 876 518 l 799 85 q 441 -17 659 -17 q 76 366 76 -17 q 238 831 76 651 q 662 1010 400 1010 q 865 954 808 1010 m 712 1073 l 624 1203 l 481 1073 l 364 1073 l 609 1304 l 682 1304 l 846 1073 l 712 1073 z "},"ĝ":{"ha":697,"x_min":-9,"x_max":699,"o":"m -9 -203 l 52 -109 q 258 -171 176 -171 q 407 -138 347 -171 q 467 -45 467 -104 q 447 4 467 -15 q 378 32 427 24 l 259 52 q 186 126 186 71 q 302 216 186 171 l 279 216 q 140 275 200 216 q 80 418 80 334 q 172 650 80 560 q 406 740 263 740 q 567 691 508 740 l 628 760 l 699 687 l 632 617 q 652 530 652 589 q 593 330 652 413 q 438 213 534 246 q 343 150 343 179 q 369 126 343 126 q 397 129 378 126 q 425 132 416 132 q 595 -21 595 132 q 488 -213 595 -141 q 234 -285 381 -285 q -9 -203 85 -285 m 396 636 q 265 575 318 636 q 212 433 212 515 q 323 285 212 285 q 458 359 399 285 q 516 517 516 433 q 484 604 516 572 q 396 636 451 636 m 509 829 l 420 959 l 277 829 l 161 829 l 406 1060 l 478 1060 l 642 829 l 509 829 z "},"Ġ":{"ha":939,"x_min":76,"x_max":876,"o":"m 865 954 l 825 824 q 636 888 738 888 q 337 747 454 888 q 220 392 220 606 q 491 105 220 105 q 678 170 600 105 l 720 403 l 582 403 l 602 518 l 876 518 l 799 85 q 441 -17 659 -17 q 76 366 76 -17 q 238 831 76 651 q 662 1010 400 1010 q 865 954 808 1010 m 609 1234 q 665 1211 642 1234 q 689 1155 689 1187 q 665 1098 689 1122 q 609 1075 642 1075 q 553 1098 576 1075 q 530 1155 530 1122 q 553 1211 530 1188 q 609 1234 576 1234 z "},"ġ":{"ha":697,"x_min":-9,"x_max":699,"o":"m -9 -203 l 52 -109 q 258 -171 176 -171 q 407 -138 347 -171 q 467 -45 467 -104 q 447 4 467 -15 q 378 32 427 24 l 259 52 q 186 126 186 71 q 302 216 186 171 l 279 216 q 140 275 200 216 q 80 418 80 334 q 172 650 80 560 q 406 740 263 740 q 567 691 508 740 l 628 760 l 699 687 l 632 617 q 652 530 652 589 q 593 330 652 413 q 438 213 534 246 q 343 150 343 179 q 369 126 343 126 q 397 129 378 126 q 425 132 416 132 q 595 -21 595 132 q 488 -213 595 -141 q 234 -285 381 -285 q -9 -203 85 -285 m 396 636 q 265 575 318 636 q 212 433 212 515 q 323 285 212 285 q 458 359 399 285 q 516 517 516 433 q 484 604 516 572 q 396 636 451 636 m 419 990 q 475 967 452 990 q 499 911 499 943 q 475 854 499 878 q 419 831 452 831 q 363 854 386 831 q 340 911 340 878 q 363 967 340 944 q 419 990 386 990 z "},"Ģ":{"ha":939,"x_min":76,"x_max":876,"o":"m 865 954 l 825 824 q 636 888 738 888 q 337 747 454 888 q 220 392 220 606 q 491 105 220 105 q 678 170 600 105 l 720 403 l 582 403 l 602 518 l 876 518 l 799 85 q 441 -17 659 -17 q 76 366 76 -17 q 238 831 76 651 q 662 1010 400 1010 q 865 954 808 1010 m 326 -309 l 321 -241 q 420 -220 380 -241 q 460 -159 460 -198 q 407 -119 460 -119 l 421 -38 q 512 -68 480 -38 q 543 -147 543 -98 q 481 -266 543 -223 q 326 -309 419 -309 z "},"ģ":{"ha":697,"x_min":-9,"x_max":699,"o":"m -9 -203 l 52 -109 q 258 -171 176 -171 q 407 -138 347 -171 q 467 -45 467 -104 q 447 4 467 -15 q 378 32 427 24 l 259 52 q 186 126 186 71 q 302 216 186 171 l 279 216 q 140 275 200 216 q 80 418 80 334 q 172 650 80 560 q 406 740 263 740 q 567 691 508 740 l 628 760 l 699 687 l 632 617 q 652 530 652 589 q 593 330 652 413 q 438 213 534 246 q 343 150 343 179 q 369 126 343 126 q 397 129 378 126 q 425 132 416 132 q 595 -21 595 132 q 488 -213 595 -141 q 234 -285 381 -285 q -9 -203 85 -285 m 396 636 q 265 575 318 636 q 212 433 212 515 q 323 285 212 285 q 458 359 399 285 q 516 517 516 433 q 484 604 516 572 q 396 636 451 636 m 448 1124 l 485 1086 q 437 1030 443 1044 q 432 1003 432 1015 q 460 952 432 975 q 489 897 489 929 q 417 831 489 831 q 344 929 344 831 q 448 1124 344 1043 z "},"Ĥ":{"ha":909,"x_min":45,"x_max":933,"o":"m 619 0 l 704 480 l 270 480 l 185 0 l 45 0 l 221 994 l 361 994 l 290 595 l 724 595 l 795 994 l 933 994 l 758 0 l 619 0 m 692 1073 l 604 1203 l 461 1073 l 345 1073 l 589 1304 l 662 1304 l 826 1073 l 692 1073 z "},"ĥ":{"ha":774,"x_min":53,"x_max":751,"o":"m 499 0 l 580 456 q 585 506 585 484 q 463 631 585 631 q 364 604 416 631 q 280 540 312 576 l 184 0 l 53 0 l 230 1024 l 358 1024 l 298 646 q 394 713 332 686 q 517 740 456 740 q 666 685 613 740 q 720 530 720 630 q 713 456 720 496 l 632 0 l 499 0 m 617 1073 l 529 1203 l 386 1073 l 269 1073 l 514 1304 l 587 1304 l 751 1073 l 617 1073 z "},"Ħ":{"ha":947,"x_min":64,"x_max":1032,"o":"m 1032 840 l 1015 746 l 909 746 l 778 0 l 640 0 l 724 471 l 286 471 l 203 0 l 64 0 l 196 746 l 93 746 l 110 840 l 212 840 l 239 993 l 379 993 l 351 840 l 787 840 l 815 993 l 954 993 l 926 840 l 1032 840 m 771 746 l 335 746 l 307 586 l 743 586 l 771 746 z "},"ħ":{"ha":768,"x_min":53,"x_max":714,"o":"m 714 496 q 707 422 714 461 l 632 0 l 498 0 l 574 422 q 579 471 579 454 q 457 597 579 597 q 351 566 408 597 q 275 505 300 536 l 184 0 l 53 0 l 193 807 l 96 807 l 113 901 l 211 901 l 232 1023 l 359 1023 l 340 901 l 597 901 l 581 807 l 323 807 l 293 611 q 387 677 326 652 q 511 703 446 703 q 662 648 609 703 q 714 496 714 594 z "},"Ĩ":{"ha":387,"x_min":51,"x_max":547,"o":"m 51 0 l 227 994 l 365 994 l 189 0 l 51 0 m 547 1215 q 392 1075 486 1075 q 304 1101 351 1075 q 235 1127 256 1127 q 153 1075 187 1127 l 91 1075 q 153 1174 111 1132 q 241 1215 195 1215 q 338 1189 292 1215 q 405 1163 383 1163 q 488 1215 460 1163 l 547 1215 z "},"ĩ":{"ha":426,"x_min":48,"x_max":505,"o":"m 94 0 l 203 618 l 107 618 l 131 724 l 353 724 l 224 0 l 94 0 m 505 971 q 349 831 444 831 q 261 857 309 831 q 193 883 214 883 q 110 831 144 883 l 48 831 q 110 929 68 888 q 198 971 152 971 q 295 945 250 971 q 362 919 340 919 q 445 971 418 919 l 505 971 z "},"Ī":{"ha":387,"x_min":51,"x_max":581,"o":"m 51 0 l 227 994 l 365 994 l 189 0 l 51 0 m 581 1171 l 564 1075 l 63 1075 l 80 1171 l 581 1171 z "},"ī":{"ha":426,"x_min":19,"x_max":536,"o":"m 94 0 l 203 618 l 107 618 l 131 724 l 353 724 l 224 0 l 94 0 m 536 926 l 519 831 l 19 831 l 36 926 l 536 926 z "},"Ĭ":{"ha":387,"x_min":51,"x_max":571,"o":"m 51 0 l 227 994 l 365 994 l 189 0 l 51 0 m 571 1295 q 305 1075 532 1075 q 117 1246 117 1075 q 121 1295 117 1270 l 217 1295 q 212 1259 212 1276 q 324 1179 212 1179 q 474 1295 454 1179 l 571 1295 z "},"ĭ":{"ha":426,"x_min":86,"x_max":541,"o":"m 94 0 l 203 618 l 107 618 l 131 724 l 353 724 l 224 0 l 94 0 m 541 1051 q 275 831 502 831 q 86 1002 86 831 q 91 1051 86 1025 l 186 1051 q 182 1015 182 1031 q 294 935 182 935 q 444 1051 423 935 l 541 1051 z "},"Į":{"ha":387,"x_min":14,"x_max":386,"o":"m 386 994 l 210 0 q 127 -102 127 -38 q 192 -154 127 -154 q 286 -128 237 -154 l 286 -229 q 172 -253 216 -253 q 61 -218 105 -253 q 14 -116 14 -180 q 78 32 14 -33 l 248 994 l 386 994 z "},"į":{"ha":426,"x_min":29,"x_max":392,"o":"m 392 920 q 366 857 392 882 q 302 831 340 831 q 238 857 264 831 q 212 920 212 882 q 238 985 212 958 q 302 1011 264 1011 q 366 985 340 1011 q 392 920 392 959 m 353 724 l 224 0 q 142 -102 142 -38 q 208 -154 142 -154 q 302 -128 252 -154 l 302 -229 q 187 -253 232 -253 q 77 -218 121 -253 q 29 -116 29 -180 q 100 39 29 -29 l 203 618 l 107 618 l 131 724 l 353 724 z "},"Ĳ":{"ha":1010,"x_min":51,"x_max":1004,"o":"m 51 0 l 227 994 l 365 994 l 189 0 l 51 0 m 338 199 l 456 199 q 548 109 456 109 q 681 145 635 109 q 758 366 726 182 l 869 994 l 1004 994 l 895 371 q 783 72 858 157 q 528 -14 707 -14 q 388 34 439 -14 q 336 166 336 82 q 338 199 336 182 z "},"ĳ":{"ha":814,"x_min":94,"x_max":789,"o":"m 302 1011 q 366 985 339 1011 q 392 921 392 959 q 366 858 392 884 q 302 831 339 831 q 238 858 264 831 q 212 921 212 884 q 238 985 212 959 q 302 1011 264 1011 m 94 0 l 203 618 l 107 618 l 131 724 l 353 724 l 224 0 l 94 0 m 699 1011 q 762 985 736 1011 q 789 921 789 958 q 762 858 789 884 q 699 831 736 831 q 635 858 661 831 q 608 921 608 884 q 635 985 608 958 q 699 1011 661 1011 m 210 -281 l 216 -168 q 482 3 450 -168 l 599 618 l 503 618 l 526 726 l 749 726 l 618 11 q 492 -213 590 -144 q 210 -281 395 -281 z "},"Ĵ":{"ha":662,"x_min":-11,"x_max":778,"o":"m -9 199 l 110 199 q 201 109 110 109 q 334 145 289 109 q 412 366 380 182 l 522 994 l 658 994 l 549 371 q 436 72 511 157 q 181 -14 361 -14 q 41 34 93 -14 q -11 166 -11 82 q -9 199 -11 182 m 644 1073 l 556 1203 l 413 1073 l 296 1073 l 541 1304 l 614 1304 l 778 1073 l 644 1073 z "},"ĵ":{"ha":509,"x_min":-94,"x_max":583,"o":"m -94 -281 l -89 -168 q 178 3 145 -168 l 294 618 l 199 618 l 222 726 l 445 726 l 314 11 q 188 -213 286 -144 q -94 -281 90 -281 m 449 829 l 361 959 l 218 829 l 101 829 l 346 1060 l 418 1060 l 583 829 l 449 829 z "},"Ķ":{"ha":800,"x_min":47,"x_max":879,"o":"m 589 0 l 397 457 l 231 269 l 184 0 l 47 0 l 222 994 l 359 994 l 269 479 l 721 994 l 879 994 l 506 563 l 746 0 l 589 0 m 218 -309 l 212 -241 q 312 -220 272 -241 q 352 -159 352 -198 q 298 -119 352 -119 l 313 -38 q 403 -68 372 -38 q 435 -147 435 -98 q 373 -266 435 -223 q 218 -309 311 -309 z "},"ķ":{"ha":701,"x_min":72,"x_max":677,"o":"m 299 321 l 248 277 l 201 0 l 72 0 l 243 1024 l 369 1024 l 276 429 q 590 750 531 667 l 677 672 q 399 391 568 551 l 673 0 l 522 0 l 299 321 m 204 -309 l 199 -241 q 298 -220 258 -241 q 338 -159 338 -198 q 285 -119 338 -119 l 299 -38 q 390 -68 358 -38 q 421 -147 421 -98 q 359 -266 421 -223 q 204 -309 297 -309 z "},"ĸ":{"ha":746,"x_min":54,"x_max":734,"o":"m 355 323 l 221 211 l 183 0 l 54 0 l 182 726 l 311 726 l 249 370 q 650 745 589 663 l 734 661 q 454 399 633 544 l 686 0 l 530 0 l 355 323 z "},"Ļ":{"ha":703,"x_min":57,"x_max":666,"o":"m 57 0 l 233 994 l 371 994 l 217 122 l 666 122 l 644 0 l 57 0 m 195 -309 l 189 -241 q 289 -220 249 -241 q 329 -159 329 -198 q 275 -119 329 -119 l 290 -38 q 380 -68 349 -38 q 412 -147 412 -98 q 350 -266 412 -223 q 195 -309 288 -309 z "},"ļ":{"ha":445,"x_min":63,"x_max":397,"o":"m 332 81 l 317 -14 q 99 148 99 -14 q 133 366 99 197 l 263 1024 l 397 1024 l 273 406 q 235 164 235 213 q 332 81 235 81 m 68 -309 l 63 -241 q 163 -220 123 -241 q 203 -159 203 -198 q 149 -119 203 -119 l 163 -38 q 254 -68 222 -38 q 286 -147 286 -98 q 223 -266 286 -223 q 68 -309 161 -309 z "},"Ņ":{"ha":886,"x_min":40,"x_max":899,"o":"m 680 -14 l 292 692 l 176 0 l 40 0 l 216 994 l 270 994 l 650 317 l 764 994 l 899 994 l 721 -14 l 680 -14 m 231 -309 l 226 -241 q 326 -220 286 -241 q 366 -159 366 -198 q 312 -119 366 -119 l 326 -38 q 417 -68 385 -38 q 448 -147 448 -98 q 386 -266 448 -223 q 231 -309 324 -309 z "},"ņ":{"ha":759,"x_min":53,"x_max":718,"o":"m 494 0 l 570 422 q 580 516 580 479 q 460 631 580 631 q 361 604 414 631 q 277 540 309 577 l 183 0 l 53 0 l 151 551 q 154 595 154 570 q 140 715 154 665 l 264 740 q 282 632 283 641 q 521 740 365 740 q 718 539 718 740 q 709 450 718 499 l 631 0 l 494 0 m 177 -309 l 172 -241 q 271 -220 231 -241 q 311 -159 311 -198 q 258 -119 311 -119 l 272 -38 q 362 -68 331 -38 q 394 -147 394 -98 q 332 -266 394 -223 q 177 -309 270 -309 z "},"ŉ":{"ha":840,"x_min":18,"x_max":799,"o":"m 45 741 l 18 787 q 81 839 74 823 q 89 871 89 855 q 70 912 89 888 q 52 954 52 935 q 117 1024 52 1024 q 193 946 193 1024 q 151 828 193 884 q 45 741 110 771 m 575 0 l 651 422 q 661 516 661 479 q 541 631 661 631 q 443 604 495 631 q 359 540 390 577 l 264 0 l 134 0 l 232 551 q 235 595 235 570 q 221 715 235 665 l 346 740 q 363 632 364 641 q 602 740 446 740 q 799 539 799 740 q 790 450 799 499 l 712 0 l 575 0 z "},"Ŋ":{"ha":905,"x_min":45,"x_max":875,"o":"m 875 734 q 863 610 875 681 l 810 310 q 711 65 781 143 q 524 -14 640 -14 q 364 40 425 -14 l 428 138 q 518 103 471 103 q 629 175 590 103 q 671 315 654 222 l 718 582 q 732 718 732 661 q 707 828 732 793 q 561 889 662 889 q 319 771 435 889 l 183 0 l 45 0 l 220 993 l 301 993 l 335 901 q 607 1011 453 1011 q 804 942 735 1011 q 875 734 875 871 z "},"ŋ":{"ha":759,"x_min":53,"x_max":718,"o":"m 718 539 q 707 450 718 505 l 631 0 q 429 -269 591 -220 q 292 -288 370 -288 l 313 -174 q 395 -161 359 -174 q 494 0 469 -136 l 570 422 q 580 517 580 476 q 463 632 579 632 q 361 604 414 632 q 278 541 308 576 l 183 0 l 53 0 l 150 550 q 154 596 154 574 q 140 715 154 660 l 264 741 q 282 632 282 644 q 521 741 366 741 q 718 539 718 741 z "},"Ō":{"ha":936,"x_min":77,"x_max":931,"o":"m 77 365 q 217 819 77 627 q 580 1011 357 1011 q 841 918 751 1011 q 931 648 931 824 q 790 171 931 359 q 398 -17 648 -17 q 163 89 248 -17 q 77 365 77 195 m 222 384 q 273 180 222 255 q 420 105 324 105 q 688 262 589 105 q 787 634 787 418 q 568 890 787 890 q 319 724 416 890 q 222 384 222 558 m 862 1171 l 845 1075 l 345 1075 l 361 1171 l 862 1171 z "},"ō":{"ha":745,"x_min":50,"x_max":733,"o":"m 50 267 q 163 601 50 462 q 453 740 277 740 q 655 668 585 740 q 725 465 725 597 q 683 248 725 361 q 547 61 642 136 q 320 -14 452 -14 q 119 60 189 -14 q 50 267 50 134 m 185 275 q 339 92 185 92 q 521 203 454 92 q 589 460 589 314 q 435 635 589 635 q 297 579 357 635 q 212 437 238 524 q 185 275 185 350 m 733 926 l 716 831 l 216 831 l 233 926 l 733 926 z "},"Ŏ":{"ha":936,"x_min":77,"x_max":931,"o":"m 77 365 q 217 819 77 627 q 580 1011 357 1011 q 841 918 751 1011 q 931 648 931 824 q 790 171 931 359 q 398 -17 648 -17 q 163 89 248 -17 q 77 365 77 195 m 222 384 q 273 180 222 255 q 420 105 324 105 q 688 262 589 105 q 787 634 787 418 q 568 890 787 890 q 319 724 416 890 q 222 384 222 558 m 873 1295 q 607 1075 834 1075 q 418 1246 418 1075 q 423 1295 418 1270 l 519 1295 q 514 1259 514 1276 q 626 1179 514 1179 q 776 1295 755 1179 l 873 1295 z "},"ŏ":{"ha":745,"x_min":50,"x_max":725,"o":"m 50 267 q 163 601 50 462 q 453 740 277 740 q 655 668 585 740 q 725 465 725 597 q 683 248 725 361 q 547 61 642 136 q 320 -14 452 -14 q 119 60 189 -14 q 50 267 50 134 m 185 275 q 339 92 185 92 q 521 203 454 92 q 589 460 589 314 q 435 635 589 635 q 297 579 357 635 q 212 437 238 524 q 185 275 185 350 m 724 1051 q 458 831 685 831 q 269 1002 269 831 q 274 1051 269 1025 l 370 1051 q 365 1015 365 1031 q 477 935 365 935 q 627 1051 606 935 l 724 1051 z "},"Ŗ":{"ha":808,"x_min":48,"x_max":794,"o":"m 566 0 l 410 427 q 267 433 357 427 l 191 0 l 48 0 l 223 994 q 333 999 251 994 q 467 1004 414 1004 q 709 947 624 1004 q 794 786 794 891 q 721 569 794 662 q 536 450 647 475 l 721 0 l 566 0 m 344 871 l 287 549 q 381 542 337 542 q 575 592 502 542 q 649 730 649 642 q 597 844 649 810 q 425 878 546 878 q 344 871 399 878 m 195 -309 l 189 -241 q 289 -220 249 -241 q 329 -159 329 -198 q 275 -119 329 -119 l 290 -38 q 380 -68 349 -38 q 412 -147 412 -98 q 350 -266 412 -223 q 195 -309 288 -309 z "},"ŗ":{"ha":578,"x_min":-5,"x_max":603,"o":"m 566 599 q 471 631 526 631 q 340 568 403 631 q 262 416 278 505 l 189 0 l 60 0 l 188 726 l 317 726 l 296 610 q 529 740 390 740 q 603 730 553 740 l 566 599 m 1 -309 l -5 -241 q 95 -220 55 -241 q 135 -159 135 -198 q 81 -119 135 -119 l 96 -38 q 186 -68 155 -38 q 218 -147 218 -98 q 156 -266 218 -223 q 1 -309 94 -309 z "},"Ŝ":{"ha":668,"x_min":59,"x_max":683,"o":"m 59 32 l 100 162 q 187 123 129 139 q 298 106 245 106 q 428 146 379 106 q 477 254 477 185 q 440 356 477 312 q 314 465 403 400 q 184 585 224 529 q 143 724 143 640 q 228 934 143 858 q 448 1010 313 1010 q 651 984 601 1010 l 612 852 q 549 882 593 868 q 465 895 504 895 q 328 856 378 895 q 278 743 278 817 q 294 682 278 711 q 337 630 310 653 q 449 543 364 606 q 573 415 533 480 q 612 262 612 349 q 522 55 612 127 q 283 -17 431 -17 q 163 -2 230 -17 q 59 32 97 13 m 549 1073 l 461 1203 l 318 1073 l 201 1073 l 446 1304 l 519 1304 l 683 1073 l 549 1073 z "},"ŝ":{"ha":562,"x_min":6,"x_max":595,"o":"m 6 43 l 73 165 q 149 117 100 139 q 234 95 199 95 q 334 127 294 95 q 373 216 373 160 q 352 267 373 244 q 281 318 332 289 l 185 371 q 119 434 141 396 q 97 516 97 473 q 176 679 97 617 q 369 740 254 740 q 560 690 448 740 l 503 570 q 359 631 436 631 q 272 605 309 631 q 235 536 235 579 q 256 483 235 505 q 328 433 277 460 l 423 381 q 489 320 467 357 q 511 239 511 283 q 426 54 511 122 q 212 -14 342 -14 q 6 43 97 -14 m 461 829 l 373 959 l 230 829 l 113 829 l 358 1060 l 431 1060 l 595 829 l 461 829 z "},"Ŧ":{"ha":806,"x_min":106,"x_max":910,"o":"m 910 994 l 888 871 l 562 871 l 501 529 l 715 529 l 697 429 l 484 429 l 408 0 l 269 0 l 345 429 l 131 429 l 149 529 l 363 529 l 422 871 l 106 871 l 128 994 l 910 994 z "},"ŧ":{"ha":583,"x_min":69,"x_max":568,"o":"m 568 726 l 546 625 l 347 625 l 310 447 l 489 447 l 469 355 l 291 355 l 273 264 q 262 189 262 212 q 363 95 262 95 q 473 121 413 95 l 468 7 q 289 -14 412 -14 q 169 34 212 -14 q 125 165 125 82 q 131 212 125 186 l 161 355 l 69 355 l 90 447 l 180 447 l 218 625 l 131 625 l 154 726 l 239 726 l 269 878 l 416 934 l 368 726 l 568 726 z "},"Ũ":{"ha":901,"x_min":91,"x_max":917,"o":"m 220 994 l 362 994 l 240 313 q 236 271 236 291 q 282 150 236 194 q 409 105 329 105 q 573 161 508 105 q 656 317 638 218 l 777 994 l 917 994 l 795 302 q 660 67 768 152 q 389 -17 551 -17 q 171 50 251 -17 q 91 227 91 117 q 98 303 91 263 l 220 994 m 815 1215 q 660 1075 754 1075 q 572 1101 619 1075 q 503 1127 524 1127 q 420 1075 455 1127 l 359 1075 q 421 1174 379 1132 q 509 1215 463 1215 q 606 1189 560 1215 q 673 1163 651 1163 q 755 1215 728 1163 l 815 1215 z "},"ũ":{"ha":773,"x_min":66,"x_max":758,"o":"m 292 726 l 208 263 q 202 208 202 233 q 320 95 202 95 q 459 149 393 95 q 540 279 526 203 l 623 726 l 758 726 l 625 0 l 490 0 l 509 102 q 245 -14 433 -14 q 113 37 161 -14 q 66 179 66 87 q 73 250 66 212 l 157 726 l 292 726 m 707 971 q 551 831 646 831 q 463 857 511 831 q 395 883 416 883 q 312 831 347 883 l 250 831 q 312 929 271 888 q 400 971 354 971 q 497 945 452 971 q 564 919 543 919 q 647 971 620 919 l 707 971 z "},"Ū":{"ha":901,"x_min":91,"x_max":917,"o":"m 220 994 l 362 994 l 240 313 q 236 271 236 291 q 282 150 236 194 q 409 105 329 105 q 573 161 508 105 q 656 317 638 218 l 777 994 l 917 994 l 795 302 q 660 67 768 152 q 389 -17 551 -17 q 171 50 251 -17 q 91 227 91 117 q 98 303 91 263 l 220 994 m 845 1171 l 828 1075 l 328 1075 l 345 1171 l 845 1171 z "},"ū":{"ha":773,"x_min":66,"x_max":758,"o":"m 292 726 l 208 263 q 202 208 202 233 q 320 95 202 95 q 459 149 393 95 q 540 279 526 203 l 623 726 l 758 726 l 625 0 l 490 0 l 509 102 q 245 -14 433 -14 q 113 37 161 -14 q 66 179 66 87 q 73 250 66 212 l 157 726 l 292 726 m 740 926 l 723 831 l 222 831 l 239 926 l 740 926 z "},"Ŭ":{"ha":901,"x_min":91,"x_max":917,"o":"m 220 994 l 362 994 l 240 313 q 236 271 236 291 q 282 150 236 194 q 409 105 329 105 q 573 161 508 105 q 656 317 638 218 l 777 994 l 917 994 l 795 302 q 660 67 768 152 q 389 -17 551 -17 q 171 50 251 -17 q 91 227 91 117 q 98 303 91 263 l 220 994 m 832 1295 q 566 1075 793 1075 q 378 1246 378 1075 q 382 1295 378 1270 l 478 1295 q 473 1259 473 1276 q 585 1179 473 1179 q 735 1295 715 1179 l 832 1295 z "},"ŭ":{"ha":773,"x_min":66,"x_max":758,"o":"m 292 726 l 208 263 q 202 208 202 233 q 320 95 202 95 q 459 149 393 95 q 540 279 526 203 l 623 726 l 758 726 l 625 0 l 490 0 l 509 102 q 245 -14 433 -14 q 113 37 161 -14 q 66 179 66 87 q 73 250 66 212 l 157 726 l 292 726 m 737 1051 q 471 831 699 831 q 283 1002 283 831 q 288 1051 283 1025 l 383 1051 q 378 1015 378 1031 q 490 935 378 935 q 640 1051 620 935 l 737 1051 z "},"Ų":{"ha":901,"x_min":91,"x_max":917,"o":"m 917 994 l 795 302 q 656 64 767 147 q 452 -14 571 -1 q 394 -102 394 -49 q 459 -154 394 -154 q 553 -128 504 -154 l 553 -229 q 439 -253 484 -253 q 328 -218 372 -253 q 281 -116 281 -180 q 311 -11 281 -59 q 167 54 224 4 q 91 228 91 121 q 98 302 91 264 l 220 994 l 362 994 l 240 314 q 236 271 236 292 q 285 147 236 192 q 408 106 330 106 q 573 161 509 106 q 656 317 637 216 l 777 994 l 917 994 z "},"ų":{"ha":773,"x_min":66,"x_max":758,"o":"m 758 726 l 625 0 q 542 -102 542 -38 q 607 -154 542 -154 q 701 -128 652 -154 l 701 -229 q 587 -253 631 -253 q 476 -218 520 -253 q 429 -116 429 -180 q 496 35 429 -31 l 509 103 q 245 -14 433 -14 q 117 33 165 -14 q 66 179 66 83 q 73 250 66 212 l 157 726 l 292 726 l 206 262 q 202 208 202 240 q 319 94 202 94 q 456 146 390 94 q 541 279 526 201 l 623 726 l 758 726 z "},"Ŵ":{"ha":1183,"x_min":126,"x_max":1292,"o":"m 805 -14 l 762 -14 l 648 657 l 304 -14 l 262 -14 l 126 994 l 267 994 l 348 322 l 685 994 l 732 994 l 832 326 l 1144 994 l 1292 994 l 805 -14 m 821 1073 l 732 1203 l 589 1073 l 473 1073 l 718 1304 l 790 1304 l 954 1073 l 821 1073 z "},"ŵ":{"ha":1034,"x_min":78,"x_max":1084,"o":"m 707 -14 l 673 -14 l 538 459 l 248 -14 l 214 -14 l 78 728 l 209 728 l 288 267 l 559 728 l 593 728 l 723 263 l 951 728 l 1084 728 q 707 -14 857 283 m 692 829 l 604 959 l 460 829 l 344 829 l 589 1060 l 661 1060 l 825 829 l 692 829 z "},"Ŷ":{"ha":792,"x_min":123,"x_max":900,"o":"m 484 445 l 406 0 l 270 0 l 349 445 l 123 994 l 265 994 l 434 570 l 747 994 l 900 994 l 484 445 m 631 1073 l 543 1203 l 399 1073 l 283 1073 l 528 1304 l 600 1304 l 764 1073 l 631 1073 z "},"ŷ":{"ha":685,"x_min":21,"x_max":743,"o":"m 21 -285 l 21 -155 q 200 -117 147 -155 q 276 -3 253 -79 q 149 185 180 -3 l 58 726 l 199 726 l 279 199 q 334 121 290 121 l 596 726 l 743 726 l 378 -87 q 256 -237 332 -190 q 21 -285 179 -285 m 513 829 l 425 959 l 281 829 l 165 829 l 410 1060 l 482 1060 l 646 829 l 513 829 z "},"ſ":{"ha":485,"x_min":71,"x_max":590,"o":"m 71 0 l 195 726 q 493 1023 245 1023 q 590 1004 549 1023 l 566 903 q 485 922 517 922 q 329 726 361 922 l 210 0 l 71 0 z "},"Ǻ":{"ha":848,"x_min":-22,"x_max":792,"o":"m 792 0 l 635 0 l 604 210 l 250 210 l 133 0 l -22 0 l 534 897 q 428 1014 428 916 q 473 1098 428 1063 q 567 1133 515 1129 l 637 1274 l 770 1274 l 649 1121 q 729 1014 729 1089 q 604 895 729 909 l 792 0 m 670 1014 q 637 1061 670 1044 q 578 1074 611 1074 q 520 1060 547 1074 q 488 1014 488 1043 q 578 953 488 953 q 638 966 613 953 q 670 1014 670 983 m 588 309 l 528 700 l 307 309 l 588 309 z "},"ǻ":{"ha":730,"x_min":42,"x_max":751,"o":"m 713 681 l 625 258 q 619 196 619 233 q 652 0 619 90 l 521 0 q 498 73 510 22 q 403 11 466 35 q 269 -14 340 -14 q 102 50 162 -14 q 42 232 42 113 q 160 586 42 431 q 463 740 277 740 q 713 681 637 740 m 571 606 q 448 635 553 635 q 259 521 340 635 q 178 236 178 407 q 307 92 178 92 q 433 161 374 92 q 515 339 492 231 l 571 606 m 522 795 q 412 827 454 795 q 371 916 371 859 q 417 1000 371 964 q 522 1036 463 1036 q 628 1002 584 1036 q 672 916 672 968 q 630 828 672 861 q 522 795 589 795 m 522 976 q 458 959 486 976 q 431 916 431 941 q 522 854 431 854 q 586 871 559 854 q 613 916 613 887 q 586 959 613 943 q 522 976 558 976 m 751 1310 l 598 1084 l 503 1084 l 618 1310 l 751 1310 z "},"Ǽ":{"ha":1204,"x_min":-56,"x_max":1262,"o":"m 530 208 l 233 208 l 102 0 l -56 0 l 597 994 l 1262 994 l 1240 871 l 788 871 l 741 595 l 1063 595 l 1042 480 l 721 480 l 657 122 l 1101 122 l 1080 0 l 494 0 l 530 208 m 643 849 l 294 309 l 548 309 l 643 849 m 1056 1301 l 903 1075 l 808 1075 l 922 1301 l 1056 1301 z "},"ǽ":{"ha":1173,"x_min":42,"x_max":1162,"o":"m 650 343 q 645 281 645 311 q 695 143 645 191 q 836 95 745 95 q 997 154 916 95 l 983 22 q 791 -14 874 -14 q 610 68 680 -14 q 604 0 608 28 l 477 -1 q 491 104 478 26 q 401 19 462 52 q 269 -14 340 -14 q 102 50 162 -14 q 42 232 42 113 q 160 586 42 431 q 463 740 277 740 q 693 712 604 740 l 686 664 q 926 740 790 740 q 1098 693 1034 740 q 1162 562 1162 647 q 1062 375 1162 444 q 815 307 962 307 q 650 343 718 307 m 562 613 q 448 635 503 635 q 255 518 332 635 q 178 236 178 401 q 300 92 178 92 q 515 338 447 90 l 562 613 m 673 437 q 794 414 725 414 q 964 451 895 414 q 1034 555 1034 488 q 892 631 1034 631 q 763 575 823 631 q 673 437 703 518 m 846 1057 l 693 831 l 598 831 l 713 1057 l 846 1057 z "},"Ǿ":{"ha":936,"x_min":-1,"x_max":1042,"o":"m 1042 1011 l 899 848 q 940 648 940 766 q 798 171 940 358 q 407 -17 656 -17 q 203 56 285 -17 l 143 -14 l -1 -14 l 136 142 q 86 365 86 237 q 226 819 86 627 q 589 1011 366 1011 q 836 931 747 1011 l 907 1011 l 1042 1011 m 245 264 l 743 825 q 576 890 688 890 q 328 724 425 890 q 231 384 231 558 q 245 264 231 318 m 789 722 l 296 161 q 429 105 347 105 q 697 262 597 105 q 796 634 796 418 q 789 722 796 683 m 783 1301 l 630 1075 l 535 1075 l 650 1301 l 783 1301 z "},"ǿ":{"ha":745,"x_min":-38,"x_max":808,"o":"m 694 740 l 808 740 l 691 618 q 725 465 725 555 q 683 248 725 361 q 547 61 642 136 q 320 -14 452 -14 q 139 42 208 -14 l 85 -14 l -38 -14 l 83 111 q 50 267 50 176 q 163 601 50 462 q 453 740 277 740 q 639 683 570 740 l 694 740 m 190 221 l 549 591 q 435 635 511 635 q 297 579 357 635 q 212 437 238 524 q 185 276 185 351 q 190 221 185 246 m 585 508 l 229 136 q 339 92 268 92 q 477 149 419 92 q 562 294 536 205 q 589 458 589 382 q 585 508 589 486 m 622 1057 l 469 831 l 374 831 l 488 1057 l 622 1057 z "},"Ẁ":{"ha":1183,"x_min":126,"x_max":1292,"o":"m 805 -14 l 762 -14 l 648 657 l 304 -14 l 262 -14 l 126 994 l 267 994 l 348 322 l 685 994 l 732 994 l 832 326 l 1144 994 l 1292 994 l 805 -14 m 720 1075 l 614 1301 l 747 1301 l 787 1075 l 720 1075 z "},"ẁ":{"ha":1034,"x_min":78,"x_max":1084,"o":"m 707 -14 l 673 -14 l 538 459 l 248 -14 l 214 -14 l 78 728 l 209 728 l 288 267 l 559 728 l 593 728 l 723 263 l 951 728 l 1084 728 q 707 -14 857 283 m 576 831 l 470 1057 l 604 1057 l 644 831 l 576 831 z "},"Ẃ":{"ha":1183,"x_min":126,"x_max":1292,"o":"m 805 -14 l 762 -14 l 648 657 l 304 -14 l 262 -14 l 126 994 l 267 994 l 348 322 l 685 994 l 732 994 l 832 326 l 1144 994 l 1292 994 l 805 -14 m 873 1301 l 720 1075 l 625 1075 l 739 1301 l 873 1301 z "},"ẃ":{"ha":1034,"x_min":78,"x_max":1084,"o":"m 707 -14 l 673 -14 l 538 459 l 248 -14 l 214 -14 l 78 728 l 209 728 l 288 267 l 559 728 l 593 728 l 723 263 l 951 728 l 1084 728 q 707 -14 857 283 m 751 1057 l 597 831 l 503 831 l 617 1057 l 751 1057 z "},"Ẅ":{"ha":1183,"x_min":126,"x_max":1292,"o":"m 805 -14 l 762 -14 l 648 657 l 304 -14 l 262 -14 l 126 994 l 267 994 l 348 322 l 685 994 l 732 994 l 832 326 l 1144 994 l 1292 994 l 805 -14 m 563 1230 q 617 1207 595 1230 q 639 1154 639 1185 q 616 1099 639 1122 q 563 1077 594 1077 q 509 1099 531 1077 q 486 1154 486 1122 q 509 1207 486 1185 q 563 1230 531 1230 m 883 1230 q 937 1207 915 1230 q 960 1154 960 1185 q 937 1099 960 1122 q 883 1077 915 1077 q 829 1099 851 1077 q 807 1154 807 1122 q 829 1207 807 1185 q 883 1230 851 1230 z "},"ẅ":{"ha":1034,"x_min":78,"x_max":1084,"o":"m 707 -14 l 673 -14 l 538 459 l 248 -14 l 214 -14 l 78 728 l 209 728 l 288 267 l 559 728 l 593 728 l 723 263 l 951 728 l 1084 728 q 707 -14 857 283 m 434 985 q 488 963 466 985 q 510 909 510 941 q 488 855 510 878 q 434 833 465 833 q 380 855 402 833 q 357 909 357 878 q 380 963 357 941 q 434 985 402 985 m 754 985 q 808 963 786 985 q 831 909 831 941 q 808 855 831 878 q 754 833 786 833 q 700 855 722 833 q 678 909 678 878 q 700 963 678 941 q 754 985 722 985 z "},"Ỳ":{"ha":792,"x_min":123,"x_max":900,"o":"m 484 445 l 406 0 l 270 0 l 349 445 l 123 994 l 265 994 l 434 570 l 747 994 l 900 994 l 484 445 m 506 1075 l 400 1301 l 534 1301 l 574 1075 l 506 1075 z "},"ỳ":{"ha":685,"x_min":21,"x_max":743,"o":"m 21 -285 l 21 -155 q 200 -117 147 -155 q 276 -3 253 -79 q 149 185 180 -3 l 58 726 l 199 726 l 279 199 q 334 121 290 121 l 596 726 l 743 726 l 378 -87 q 256 -237 332 -190 q 21 -285 179 -285 m 380 831 l 275 1057 l 408 1057 l 448 831 l 380 831 z "},"―":{"ha":1020,"x_min":58,"x_max":959,"o":"m 58 361 l 72 450 l 959 450 l 945 361 l 58 361 z "},"‗":{"ha":728,"x_min":-5,"x_max":730,"o":"m 730 -172 l -5 -172 l -5 -85 l 730 -85 l 730 -172 m 730 -342 l -5 -342 l -5 -254 l 730 -254 l 730 -342 z "},"′":{"ha":222,"x_min":109,"x_max":346,"o":"m 199 716 l 109 716 l 221 995 l 346 995 l 199 716 z "},"″":{"ha":471,"x_min":129,"x_max":570,"o":"m 219 716 l 129 716 l 241 995 l 366 995 l 219 716 m 422 716 l 332 716 l 445 995 l 570 995 l 422 716 z "},"‼":{"ha":846,"x_min":90,"x_max":760,"o":"m 238 259 l 190 259 q 202 591 194 506 q 220 733 210 677 l 270 1011 l 423 1011 l 375 734 q 238 259 353 604 m 186 178 q 254 150 226 178 q 282 82 282 122 q 254 14 282 42 q 186 -14 226 -14 q 118 14 146 -14 q 90 82 90 42 q 118 150 90 122 q 186 178 146 178 m 574 259 l 526 259 q 538 591 530 506 q 557 733 547 677 l 606 1011 l 760 1011 l 711 734 q 574 259 689 604 m 522 178 q 590 150 562 178 q 618 82 618 122 q 590 14 618 42 q 522 -14 562 -14 q 454 14 482 -14 q 426 82 426 42 q 454 150 426 122 q 522 178 482 178 z "},"‾":{"ha":728,"x_min":-4,"x_max":532,"o":"m 532 998 l 532 915 l -4 915 l -4 998 l 532 998 z "},"ⁿ":{"ha":627,"x_min":134,"x_max":614,"o":"m 614 867 q 607 799 614 838 l 551 489 l 446 489 l 498 777 q 505 844 505 814 q 425 928 505 928 q 307 861 359 928 l 239 489 l 134 489 l 203 873 q 205 907 205 889 q 196 993 205 954 l 294 1011 q 303 962 300 981 l 303 960 q 306 942 306 945 q 469 1011 359 1011 q 614 867 614 1011 z "},"₤":{"ha":735,"x_min":54,"x_max":734,"o":"m 558 446 l 545 354 l 354 354 q 264 118 328 165 q 336 92 300 104 q 454 75 386 75 q 631 158 571 75 l 708 72 q 595 -16 675 17 q 452 -46 524 -46 q 312 -24 384 -46 q 191 -3 241 -3 q 74 -12 142 -3 l 54 90 q 121 140 71 97 q 221 354 197 207 l 93 354 l 109 446 l 232 446 q 237 551 237 488 l 122 551 l 135 643 l 233 643 q 572 1004 233 1004 q 734 951 678 1004 l 669 847 q 539 890 611 890 q 366 673 366 890 q 367 643 366 656 l 582 643 l 568 551 l 370 551 q 364 446 370 496 l 558 446 z "},"₧":{"ha":1541,"x_min":31,"x_max":1539,"o":"m 1539 690 l 1480 572 q 1352 632 1422 632 q 1279 606 1311 632 q 1243 532 1243 578 q 1307 438 1243 480 q 1426 362 1367 400 q 1491 232 1491 309 q 1399 47 1491 113 q 1192 -14 1317 -14 q 1028 41 1100 -14 q 865 -14 962 -14 q 743 33 787 -14 q 700 158 700 79 q 707 221 700 187 l 790 625 l 701 625 q 633 490 680 547 q 355 367 532 367 q 241 382 292 367 l 171 0 l 31 0 l 214 993 q 401 1008 340 1008 q 717 741 717 1008 q 716 733 717 738 q 715 726 715 728 l 812 726 l 842 878 l 986 933 l 939 726 l 1097 726 l 1076 625 l 917 625 l 843 257 q 835 186 835 216 q 920 94 835 94 q 1054 179 979 94 q 1211 94 1120 94 q 1310 125 1270 94 q 1354 215 1354 159 q 1291 309 1354 269 q 1173 383 1232 346 q 1109 524 1109 437 q 1188 683 1109 621 q 1360 741 1261 741 q 1539 690 1451 741 m 579 700 q 581 731 581 716 q 427 888 581 888 q 330 875 383 888 l 264 504 q 350 486 294 486 q 579 700 558 486 z "},"℅":{"ha":970,"x_min":112,"x_max":937,"o":"m 495 904 q 394 936 445 936 q 256 879 307 936 q 208 746 208 825 q 241 665 208 694 q 311 642 268 642 q 444 684 372 642 l 431 587 q 298 562 370 562 q 165 606 216 562 q 113 733 113 652 q 191 936 113 857 q 381 1015 268 1015 q 495 989 448 1015 l 495 904 m 926 1011 l 205 -24 l 112 -24 l 833 1011 l 926 1011 m 937 256 q 873 61 937 138 q 690 -21 804 -21 q 559 26 606 -21 q 512 157 512 73 q 574 350 512 275 q 759 432 642 432 q 890 386 843 432 q 937 256 937 339 m 842 254 q 749 353 842 353 q 639 290 677 353 q 606 157 606 237 q 699 58 606 58 q 810 121 772 58 q 842 254 842 174 z "},"ℓ":{"ha":728,"x_min":115,"x_max":707,"o":"m 701 814 q 552 581 683 720 q 341 389 456 477 l 327 316 q 315 213 315 255 q 326 140 315 163 q 420 92 347 92 q 534 149 467 92 l 585 56 q 493 7 554 28 q 389 -14 433 -14 q 206 64 248 -14 q 183 180 183 108 q 198 316 183 239 l 133 281 l 115 391 q 224 451 178 424 l 243 551 q 328 843 281 747 q 553 1011 411 1011 q 707 867 707 1011 q 701 814 707 842 m 572 817 q 575 853 575 838 q 530 906 575 906 q 437 811 477 906 q 396 671 411 749 l 373 553 q 572 817 551 702 z "},"№":{"ha":1242,"x_min":46,"x_max":1234,"o":"m 1229 437 q 1154 275 1211 335 q 993 207 1091 207 q 869 259 912 207 q 831 386 831 306 q 836 446 831 414 q 913 605 853 543 q 1072 672 979 672 q 1234 499 1234 672 q 1229 437 1234 470 m 1137 89 l 1122 0 l 790 0 l 806 89 l 1137 89 m 847 993 l 671 -9 l 625 -9 l 292 686 l 171 0 l 46 0 l 222 1003 l 268 1003 l 602 307 l 724 993 l 847 993 m 1128 444 q 1133 499 1133 475 q 1059 585 1133 585 q 937 439 963 585 q 932 383 932 408 q 1007 294 932 294 q 1128 444 1101 294 z "},"℮":{"ha":763,"x_min":41,"x_max":721,"o":"m 721 364 l 169 364 l 169 113 q 378 29 271 29 q 528 60 442 29 q 640 123 613 90 l 672 87 q 380 -14 562 -14 q 137 87 233 -14 q 41 355 41 189 q 141 633 41 527 q 382 740 241 740 q 630 627 538 740 q 721 364 721 514 m 170 601 l 170 410 l 597 410 l 597 601 q 384 697 515 697 q 170 601 258 697 z "},"⅛":{"ha":1131,"x_min":142,"x_max":1046,"o":"m 267 -24 l 179 -24 l 840 1011 l 926 1011 l 267 -24 m 201 404 l 283 861 l 142 785 l 156 861 q 372 1002 301 928 l 397 1002 l 291 404 l 201 404 m 798 -14 q 688 21 730 -14 q 643 125 643 58 q 684 248 643 191 q 783 329 725 306 q 720 440 720 368 q 776 566 720 521 q 908 607 827 607 q 1004 576 966 607 q 1046 485 1046 543 q 1011 389 1046 437 q 933 321 978 344 q 1017 191 1017 269 q 951 40 1017 97 q 798 -14 890 -14 m 895 528 q 810 449 810 528 q 886 358 810 401 q 956 473 956 414 q 895 528 956 528 m 846 292 q 733 142 733 237 q 811 66 733 66 q 894 97 862 66 q 926 181 926 129 q 846 292 926 242 z "},"⅜":{"ha":1131,"x_min":88,"x_max":1072,"o":"m 292 -24 l 205 -24 l 866 1011 l 952 1011 l 292 -24 m 823 -14 q 714 21 756 -14 q 669 125 669 58 q 710 248 669 191 q 809 329 751 306 q 745 440 745 368 q 802 565 745 519 q 934 607 854 607 q 1030 576 992 607 q 1072 485 1072 543 q 1037 389 1072 437 q 959 321 1004 344 q 1042 191 1042 269 q 978 40 1042 97 q 823 -14 916 -14 m 920 528 q 863 507 890 528 q 836 453 836 485 q 912 358 836 402 q 981 473 981 414 q 920 528 981 528 m 871 292 q 759 142 759 237 q 837 66 759 66 q 919 98 886 66 q 952 183 952 130 q 871 292 952 242 m 219 397 q 88 446 132 397 l 141 515 q 234 478 168 478 q 328 510 291 478 q 365 597 365 541 q 256 685 365 685 l 269 754 q 393 868 393 754 q 309 930 393 930 q 220 899 252 930 l 195 961 q 332 1011 241 1011 q 435 981 393 1011 q 483 888 483 947 q 449 787 483 834 q 365 722 414 739 q 452 602 452 692 q 383 448 452 503 q 219 397 319 397 z "},"⅝":{"ha":1131,"x_min":81,"x_max":1072,"o":"m 292 -24 l 205 -24 l 866 1011 l 952 1011 l 292 -24 m 823 -14 q 714 21 756 -14 q 669 125 669 58 q 710 248 669 191 q 809 329 751 306 q 745 440 745 368 q 802 565 745 519 q 934 607 854 607 q 1030 576 992 607 q 1072 485 1072 543 q 1037 389 1072 437 q 959 321 1004 344 q 1042 191 1042 269 q 978 40 1042 97 q 823 -14 916 -14 m 920 528 q 863 507 890 528 q 836 453 836 485 q 912 358 836 402 q 981 473 981 414 q 920 528 981 528 m 871 292 q 759 142 759 237 q 837 66 759 66 q 919 98 886 66 q 952 181 952 130 q 871 292 952 242 m 166 689 l 142 708 l 194 1004 l 491 1004 l 476 921 l 256 921 l 234 789 q 313 811 266 811 q 422 769 380 811 q 465 660 465 726 q 397 470 465 542 q 212 397 328 397 q 81 443 129 397 l 125 518 q 226 478 168 478 q 334 524 294 478 q 373 636 373 568 q 271 730 373 730 q 166 689 212 730 z "},"⅞":{"ha":1131,"x_min":144,"x_max":1046,"o":"m 267 -24 l 179 -24 l 840 1011 l 926 1011 l 267 -24 m 798 -14 q 688 21 730 -14 q 643 125 643 58 q 684 248 643 191 q 783 329 725 306 q 720 440 720 368 q 776 565 720 519 q 908 607 828 607 q 1004 576 966 607 q 1046 485 1046 543 q 1011 389 1046 437 q 933 321 978 344 q 1017 191 1017 269 q 952 40 1017 97 q 798 -14 890 -14 m 895 528 q 838 507 864 528 q 810 453 810 485 q 886 358 810 402 q 956 473 956 414 q 895 528 956 528 m 846 292 q 733 142 733 237 q 811 66 733 66 q 893 98 860 66 q 926 181 926 130 q 846 292 926 242 m 249 404 l 144 404 q 275 667 259 637 q 425 920 354 820 l 151 920 l 167 1004 l 553 1004 l 549 972 q 387 694 474 866 q 249 404 363 646 z "},"□":{"ha":839,"x_min":99,"x_max":739,"o":"m 99 640 l 739 640 l 739 0 l 99 0 l 99 640 m 151 589 l 151 52 l 688 52 l 688 589 l 151 589 z "},"▪":{"ha":492,"x_min":89,"x_max":403,"o":"m 403 616 l 403 302 l 89 302 l 89 616 l 403 616 z "},"▫":{"ha":492,"x_min":89,"x_max":403,"o":"m 403 616 l 403 302 l 89 302 l 89 616 l 403 616 m 351 564 l 140 564 l 140 353 l 351 353 l 351 564 z "},"●":{"ha":839,"x_min":120,"x_max":718,"o":"m 120 391 q 208 602 120 515 q 419 690 295 690 q 630 602 543 690 q 718 391 718 515 q 630 180 718 267 q 419 92 543 92 q 208 180 295 92 q 120 391 120 267 z "},"◦":{"ha":492,"x_min":76,"x_max":416,"o":"m 246 629 q 367 579 317 629 q 416 459 416 530 q 367 339 416 389 q 246 289 317 289 q 126 339 176 289 q 76 459 76 389 q 125 579 76 530 q 246 629 175 629 m 246 578 q 162 543 197 578 q 127 459 127 508 q 162 375 127 410 q 246 340 197 340 q 330 375 295 340 q 365 459 365 410 q 330 543 365 508 q 246 578 296 578 z "},"‛":{"ha":510,"x_min":221,"x_max":452,"o":"m 387 845 q 355 829 387 845 q 327 752 323 812 q 342 710 328 732 l 376 656 l 312 611 q 221 835 221 714 q 239 934 221 885 q 345 1024 272 1024 q 381 1019 361 1024 q 451 945 452 1000 q 387 845 451 878 z "},"Ș":{"ha":668,"x_min":59,"x_max":651,"o":"m 59 32 l 100 162 q 187 123 129 139 q 298 106 245 106 q 428 146 379 106 q 477 254 477 185 q 440 356 477 312 q 314 465 403 400 q 184 585 224 529 q 143 724 143 640 q 228 934 143 858 q 448 1010 313 1010 q 651 984 601 1010 l 612 852 q 549 882 593 868 q 465 895 504 895 q 328 856 378 895 q 278 743 278 817 q 294 682 278 711 q 337 630 310 653 q 449 543 364 606 q 573 415 533 480 q 612 262 612 349 q 522 55 612 127 q 283 -17 431 -17 q 163 -2 230 -17 q 59 32 97 13 m 229 -357 l 202 -311 q 265 -259 258 -275 q 273 -227 273 -243 q 254 -186 273 -210 q 235 -144 235 -163 q 301 -74 235 -74 q 376 -152 376 -74 q 335 -270 376 -214 q 229 -357 294 -327 z "},"ș":{"ha":562,"x_min":6,"x_max":560,"o":"m 6 43 l 73 165 q 149 117 100 139 q 234 95 199 95 q 334 127 294 95 q 373 216 373 160 q 352 267 373 244 q 281 318 332 289 l 185 371 q 119 434 141 396 q 97 516 97 473 q 176 679 97 617 q 369 740 254 740 q 560 690 448 740 l 503 570 q 359 631 436 631 q 272 605 309 631 q 235 536 235 579 q 256 483 235 505 q 328 433 277 460 l 423 381 q 489 320 467 357 q 511 239 511 283 q 426 54 511 122 q 212 -14 342 -14 q 6 43 97 -14 m 156 -357 l 129 -311 q 192 -259 184 -275 q 199 -227 199 -243 q 181 -186 199 -210 q 162 -144 162 -163 q 228 -74 162 -74 q 303 -152 303 -74 q 262 -270 303 -214 q 156 -357 220 -327 z "},"Ţ":{"ha":806,"x_min":106,"x_max":910,"o":"m 562 871 l 408 0 l 269 0 l 422 871 l 106 871 l 128 994 l 910 994 l 888 871 l 562 871 m 191 -309 l 185 -241 q 285 -220 245 -241 q 325 -159 325 -198 q 271 -119 325 -119 l 286 -38 q 376 -68 345 -38 q 408 -147 408 -98 q 346 -266 408 -223 q 191 -309 283 -309 z "},"ţ":{"ha":583,"x_min":109,"x_max":568,"o":"m 218 625 l 134 625 l 155 726 l 239 726 l 269 878 l 416 934 l 368 726 l 568 726 l 546 625 l 347 625 l 271 264 q 262 199 262 222 q 365 95 262 95 q 473 120 415 95 l 468 7 q 288 -14 412 -14 q 168 34 211 -14 q 125 165 125 82 q 131 212 125 184 l 218 625 m 114 -309 l 109 -241 q 208 -220 168 -241 q 248 -159 248 -198 q 195 -119 248 -119 l 209 -38 q 299 -68 268 -38 q 331 -147 331 -98 q 269 -266 331 -223 q 114 -309 207 -309 z "},"ﬆ":{"ha":1074,"x_min":-5,"x_max":1090,"o":"m -5 49 l 56 158 q 236 94 149 94 q 329 123 298 94 q 361 196 361 151 q 330 272 361 243 q 231 339 299 301 q 126 420 162 376 q 90 539 90 464 q 118 637 90 593 q 192 706 145 682 q 274 734 239 730 q 383 739 308 739 q 370 804 370 761 q 450 987 370 917 q 661 1057 531 1057 q 847 1009 775 1057 q 920 882 920 960 q 911 804 920 842 l 893 726 l 1090 726 l 1069 618 l 871 618 l 796 264 q 783 168 783 203 q 806 116 783 138 q 868 94 828 94 q 987 119 924 94 l 1013 24 q 819 -14 930 -14 q 697 30 743 -14 q 652 144 652 73 q 664 257 652 201 l 742 618 l 657 618 l 677 726 l 764 726 l 778 793 q 785 850 785 825 q 744 921 785 893 q 642 949 703 949 q 527 904 568 949 q 485 799 485 859 q 547 690 485 735 l 497 583 q 340 632 416 632 q 254 606 285 632 q 222 543 222 579 q 243 488 222 512 q 355 411 263 464 q 465 319 435 366 q 496 207 496 273 q 422 47 496 108 q 229 -14 348 -14 q -5 49 85 -14 z "},"ﬀ":{"ha":832,"x_min":-71,"x_max":1003,"o":"m 977 905 q 895 922 931 922 q 739 726 772 922 l 911 726 l 892 618 l 721 618 l 628 56 q 349 -277 577 -252 l 336 -197 q 481 0 451 -167 l 587 618 l 314 618 l 221 56 q -58 -277 170 -252 l -71 -197 q 74 0 44 -167 l 180 618 l 78 618 l 97 726 l 197 726 q 293 947 228 884 q 482 1010 357 1010 q 582 993 536 1010 l 555 892 q 473 908 512 908 q 377 866 406 908 q 332 726 347 823 l 604 726 q 708 955 636 887 q 903 1023 779 1023 q 1003 1007 959 1023 l 977 905 z "},"ﬃ":{"ha":1215,"x_min":-71,"x_max":1210,"o":"m 905 0 l 1015 618 l 721 618 l 628 56 q 349 -277 577 -252 l 336 -197 q 481 0 451 -167 l 587 618 l 314 618 l 221 56 q -58 -277 170 -252 l -71 -197 q 74 0 44 -167 l 180 618 l 78 618 l 97 726 l 197 726 q 293 947 228 884 q 482 1010 357 1010 q 582 993 536 1010 l 555 892 q 473 908 512 908 q 377 866 406 908 q 332 726 347 823 l 604 726 q 708 955 636 887 q 903 1023 779 1023 q 1003 1007 959 1023 l 977 905 q 895 922 931 922 q 739 726 772 922 l 1160 726 l 1032 0 l 905 0 m 1210 918 q 1185 858 1210 883 q 1124 833 1160 833 q 1062 859 1087 833 q 1038 918 1038 884 q 1063 979 1038 953 q 1124 1004 1088 1004 q 1184 979 1159 1004 q 1210 918 1210 954 z "},"ﬄ":{"ha":1200,"x_min":-71,"x_max":1178,"o":"m 1131 -14 q 913 147 913 -14 q 942 375 913 207 l 1036 922 l 895 922 q 739 726 772 922 l 897 726 l 878 618 l 721 618 l 628 56 q 349 -277 577 -252 l 336 -197 q 481 0 451 -167 l 587 618 l 314 618 l 221 56 q -58 -277 170 -252 l -71 -197 q 74 0 44 -167 l 180 618 l 78 618 l 97 726 l 197 726 q 293 947 228 884 q 482 1010 357 1010 q 582 993 536 1010 l 555 892 q 473 908 512 908 q 377 866 406 908 q 332 726 347 823 l 604 726 q 708 955 636 887 q 903 1023 779 1023 l 1178 1023 l 1063 345 q 1038 160 1038 197 q 1067 103 1038 123 q 1146 82 1097 82 l 1131 -14 z "},"⁰":{"ha":528,"x_min":97,"x_max":543,"o":"m 361 1007 q 500 962 457 1007 q 543 821 543 916 q 476 519 543 644 q 285 395 409 395 q 97 593 97 395 q 165 889 97 770 q 361 1007 233 1007 m 199 599 q 282 473 199 473 q 400 581 357 473 q 443 825 443 689 q 358 928 443 928 q 240 829 282 928 q 199 599 199 730 z "}}}
